<svg width="179" height="194" viewBox="0 0 179 194" fill="none" xmlns="http://www.w3.org/2000/svg">
<g filter="url(#filter0_b_202_2)">
<rect width="178.256" height="193.5" rx="20" fill="white" fill-opacity="0.1"/>
</g>
<g clip-path="url(#clip0_202_2)">
<path d="M90.0957 26H70.7793C68.6954 26 67 27.6165 67 29.6035V35.6094H85.8965L90.0957 26ZM73.2988 32.0059C72.6031 32.0059 72.0391 31.4681 72.0391 30.8047C72.0391 30.1413 72.6031 29.6035 73.2988 29.6035C73.9946 29.6035 74.5586 30.1413 74.5586 30.8047C74.5586 31.4681 73.9946 32.0059 73.2988 32.0059ZM78.3379 32.0059C77.6422 32.0059 77.0781 31.4681 77.0781 30.8047C77.0781 30.1413 77.6422 29.6035 78.3379 29.6035C79.0336 29.6035 79.5977 30.1413 79.5977 30.8047C79.5977 31.4681 79.0336 32.0059 78.3379 32.0059ZM83.377 32.0059C82.6812 32.0059 82.1172 31.4681 82.1172 30.8047C82.1172 30.1413 82.6812 29.6035 83.377 29.6035C84.0727 29.6035 84.6367 30.1413 84.6367 30.8047C84.6367 31.4681 84.0727 32.0059 83.377 32.0059Z" fill="black"/>
<path d="M92.2794 44.8879V49.3027C92.2794 49.9661 91.7153 50.5039 91.0196 50.5039H85.9805C85.2847 50.5039 84.7207 49.9661 84.7207 49.3027V44.8879C83.1653 46.0025 82.2012 47.7688 82.2012 49.6846C82.2012 51.9713 83.5426 54.028 85.7018 55.0523C86.1298 55.2553 86.4004 55.6718 86.4004 56.1277V67H90.5996V56.1277C90.5996 55.6719 90.8702 55.2553 91.2982 55.0523C93.4574 54.0281 94.7988 51.9713 94.7988 49.6846C94.7988 47.7687 93.8348 46.0025 92.2794 44.8879Z" fill="black"/>
<path d="M106.221 26H92.8252L87.8992 37.2726C87.7036 37.7202 87.2449 38.0117 86.7363 38.0117H67V63.3965C67 65.3835 68.6954 67 70.7793 67H83.8809V56.8344C81.2719 55.3099 79.6816 52.6344 79.6816 49.6847C79.6816 46.1341 82.044 42.9511 85.56 41.7643C85.9456 41.634 86.3734 41.6904 86.7076 41.9157C87.0416 42.1407 87.2402 42.5064 87.2402 42.8965V48.1016H89.7598V42.8965C89.7598 42.5064 89.9585 42.1407 90.2926 41.9156C90.6266 41.6904 91.0546 41.634 91.44 41.7642C94.956 42.9511 97.3184 46.134 97.3184 49.6846C97.3184 52.6343 95.7281 55.3099 93.1191 56.8344V67H106.221C108.305 67 110 65.3835 110 63.3965V29.6035C110 27.6165 108.305 26 106.221 26ZM76.6582 44.0176H73.2988C72.6031 44.0176 72.0391 43.4798 72.0391 42.8164C72.0391 42.153 72.6031 41.6152 73.2988 41.6152H76.6582C77.3539 41.6152 77.918 42.153 77.918 42.8164C77.918 43.4798 77.3539 44.0176 76.6582 44.0176Z" fill="black"/>
</g>
<path d="M28.0999 116.592V115.952H32.5799C32.5799 117.36 32.2172 118.528 31.4919 119.456C30.5532 120.651 29.2146 121.248 27.4759 121.248C25.8972 121.248 24.5799 120.731 23.5239 119.696C22.4786 118.661 21.9559 117.349 21.9559 115.76C21.9559 114.192 22.4892 112.885 23.5559 111.84C24.6332 110.784 25.9559 110.256 27.5239 110.256C28.7506 110.256 29.8652 110.64 30.8679 111.408C31.3586 111.792 31.7852 112.24 32.1479 112.752L31.5879 113.2C31.3319 112.763 30.9906 112.368 30.5639 112.016C29.6679 111.269 28.6492 110.896 27.5079 110.896C26.1426 110.896 24.9959 111.371 24.0679 112.32C23.1506 113.269 22.6919 114.427 22.6919 115.792C22.6919 117.136 23.1452 118.277 24.0519 119.216C24.9586 120.144 26.0946 120.608 27.4599 120.608C28.3026 120.608 29.0492 120.432 29.6999 120.08C30.3612 119.717 30.8519 119.291 31.1719 118.8C31.5986 118.139 31.8332 117.403 31.8759 116.592H28.0999ZM39.9153 115.68V114.544H40.5553V121.072H39.9153V119.904C39.3286 120.8 38.4806 121.248 37.3713 121.248C36.4859 121.248 35.7339 120.933 35.1153 120.304C34.4966 119.675 34.1873 118.843 34.1873 117.808C34.1873 116.795 34.4806 115.973 35.0673 115.344C35.6539 114.715 36.4219 114.4 37.3713 114.4C38.4593 114.4 39.3073 114.827 39.9153 115.68ZM37.4033 115.008C36.7099 115.008 36.1126 115.259 35.6113 115.76C35.1099 116.251 34.8593 116.917 34.8593 117.76C34.8593 118.539 35.0886 119.216 35.5473 119.792C36.0059 120.357 36.6299 120.64 37.4193 120.64C38.1979 120.64 38.8113 120.363 39.2593 119.808C39.7179 119.243 39.9473 118.56 39.9473 117.76C39.9473 116.875 39.6859 116.197 39.1633 115.728C38.6406 115.248 38.0539 115.008 37.4033 115.008ZM44.6773 115.152H43.5413V121.072H42.9013V115.152H42.1813V114.544H42.9013V112.208H43.5413V114.544H44.6773V115.152ZM45.9627 121.072V109.408H46.6027V115.568C47.04 114.789 47.7067 114.4 48.6027 114.4C49.4133 114.4 50.016 114.704 50.4107 115.312C50.624 115.653 50.7307 116.203 50.7307 116.96V121.072H50.0907V116.96C50.0907 116.352 50.0053 115.915 49.8347 115.648C49.5787 115.221 49.152 115.008 48.5547 115.008C47.8293 115.008 47.296 115.312 46.9547 115.92C46.72 116.336 46.6027 116.923 46.6027 117.68V121.072H45.9627ZM58.3808 117.888H52.7968C52.7968 118.699 53.0474 119.36 53.5488 119.872C54.0608 120.384 54.6741 120.64 55.3888 120.64C55.9008 120.64 56.3541 120.507 56.7488 120.24C57.1434 119.963 57.4474 119.6 57.6608 119.152L58.2048 119.472C57.9594 119.941 57.6021 120.357 57.1328 120.72C56.6634 121.072 56.0661 121.248 55.3408 121.248C54.3488 121.248 53.5648 120.928 52.9888 120.288C52.4128 119.637 52.1248 118.821 52.1248 117.84C52.1248 116.763 52.4341 115.92 53.0528 115.312C53.6821 114.704 54.4288 114.4 55.2928 114.4C56.1781 114.4 56.9141 114.725 57.5008 115.376C58.0874 116.027 58.3808 116.864 58.3808 117.888ZM52.8448 117.28H57.7088C57.6234 116.619 57.3568 116.075 56.9088 115.648C56.4714 115.221 55.9328 115.008 55.2928 115.008C54.6421 115.008 54.0928 115.227 53.6448 115.664C53.1968 116.091 52.9301 116.629 52.8448 117.28ZM60.2752 121.072V114.544H60.9152V115.392C61.2032 114.731 61.6832 114.4 62.3552 114.4C62.6112 114.4 62.8405 114.453 63.0432 114.56L62.7232 115.136C62.6058 115.051 62.4458 115.008 62.2432 115.008C61.9338 115.008 61.6778 115.099 61.4752 115.28C61.2832 115.451 61.1498 115.696 61.0752 116.016C61.0112 116.325 60.9685 116.587 60.9472 116.8C60.9258 117.013 60.9152 117.269 60.9152 117.568V121.072H60.2752ZM64.4314 114.544H65.0714V121.072H64.4314V114.544ZM65.1514 112.8C65.0447 112.907 64.9114 112.96 64.7514 112.96C64.5914 112.96 64.4527 112.907 64.3354 112.8C64.2287 112.683 64.1754 112.539 64.1754 112.368C64.1754 112.197 64.2287 112.059 64.3354 111.952C64.4527 111.835 64.5914 111.776 64.7514 111.776C64.9114 111.776 65.0447 111.835 65.1514 111.952C65.2687 112.059 65.3274 112.197 65.3274 112.368C65.3274 112.539 65.2687 112.683 65.1514 112.8ZM67.3689 121.072V114.544H68.0089V115.568C68.4462 114.789 69.1129 114.4 70.0089 114.4C70.8196 114.4 71.4222 114.704 71.8169 115.312C72.0302 115.653 72.1369 116.203 72.1369 116.96V121.072H71.4969V116.96C71.4969 116.352 71.4116 115.915 71.2409 115.648C70.9849 115.221 70.5582 115.008 69.9609 115.008C69.2356 115.008 68.7022 115.312 68.3609 115.92C68.1262 116.336 68.0089 116.923 68.0089 117.68V121.072H67.3689ZM79.823 114.544H80.463V120.88C80.463 122.107 80.1697 123.056 79.583 123.728C79.007 124.411 78.207 124.752 77.183 124.752C76.2977 124.752 75.551 124.501 74.943 124C74.3457 123.509 74.0257 122.827 73.983 121.952H74.655C74.7084 122.624 74.9644 123.157 75.423 123.552C75.8924 123.947 76.479 124.144 77.183 124.144C77.663 124.144 78.079 124.048 78.431 123.856C78.7937 123.664 79.0604 123.445 79.231 123.2C79.4017 122.955 79.535 122.656 79.631 122.304C79.727 121.952 79.7804 121.68 79.791 121.488C79.8124 121.296 79.823 121.093 79.823 120.88V119.952C79.2044 120.816 78.3457 121.248 77.247 121.248C76.383 121.248 75.631 120.944 74.991 120.336C74.351 119.728 74.031 118.885 74.031 117.808C74.031 116.837 74.3297 116.027 74.927 115.376C75.5244 114.725 76.3244 114.4 77.327 114.4C78.3937 114.4 79.2257 114.827 79.823 115.68V114.544ZM79.135 115.808C78.6657 115.275 78.0417 115.008 77.263 115.008C76.4844 115.008 75.8604 115.285 75.391 115.84C74.9324 116.384 74.703 117.051 74.703 117.84C74.703 118.64 74.9324 119.307 75.391 119.84C75.8604 120.373 76.4737 120.64 77.231 120.64C78.0204 120.64 78.655 120.368 79.135 119.824C79.615 119.28 79.855 118.597 79.855 117.776C79.855 116.997 79.615 116.341 79.135 115.808ZM91.7259 115.232V116.08C91.1072 115.365 90.3552 115.008 89.4699 115.008C88.6806 115.008 88.0299 115.28 87.5179 115.824C87.0059 116.357 86.7499 117.029 86.7499 117.84C86.7499 118.715 87.0219 119.403 87.5659 119.904C88.1099 120.395 88.7339 120.64 89.4379 120.64C90.3019 120.64 91.0912 120.251 91.8059 119.472V120.336C91.1232 120.944 90.3286 121.248 89.4219 121.248C88.4406 121.248 87.6352 120.928 87.0059 120.288C86.3872 119.637 86.0779 118.827 86.0779 117.856C86.0779 116.864 86.3872 116.043 87.0059 115.392C87.6246 114.731 88.4459 114.4 89.4699 114.4C90.3126 114.4 91.0646 114.677 91.7259 115.232ZM93.572 109.408H94.212V121.072H93.572V109.408ZM96.5095 114.544H97.1495V121.072H96.5095V114.544ZM97.2295 112.8C97.1229 112.907 96.9895 112.96 96.8295 112.96C96.6695 112.96 96.5309 112.907 96.4135 112.8C96.3069 112.683 96.2535 112.539 96.2535 112.368C96.2535 112.197 96.3069 112.059 96.4135 111.952C96.5309 111.835 96.6695 111.776 96.8295 111.776C96.9895 111.776 97.1229 111.835 97.2295 111.952C97.3469 112.059 97.4055 112.197 97.4055 112.368C97.4055 112.539 97.3469 112.683 97.2295 112.8ZM105.287 117.888H99.703C99.703 118.699 99.9537 119.36 100.455 119.872C100.967 120.384 101.58 120.64 102.295 120.64C102.807 120.64 103.26 120.507 103.655 120.24C104.05 119.963 104.354 119.6 104.567 119.152L105.111 119.472C104.866 119.941 104.508 120.357 104.039 120.72C103.57 121.072 102.972 121.248 102.247 121.248C101.255 121.248 100.471 120.928 99.895 120.288C99.319 119.637 99.031 118.821 99.031 117.84C99.031 116.763 99.3404 115.92 99.959 115.312C100.588 114.704 101.335 114.4 102.199 114.4C103.084 114.4 103.82 114.725 104.407 115.376C104.994 116.027 105.287 116.864 105.287 117.888ZM99.751 117.28H104.615C104.53 116.619 104.263 116.075 103.815 115.648C103.378 115.221 102.839 115.008 102.199 115.008C101.548 115.008 100.999 115.227 100.551 115.664C100.103 116.091 99.8364 116.629 99.751 117.28ZM107.181 121.072V114.544H107.821V115.568C108.259 114.789 108.925 114.4 109.821 114.4C110.632 114.4 111.235 114.704 111.629 115.312C111.843 115.653 111.949 116.203 111.949 116.96V121.072H111.309V116.96C111.309 116.352 111.224 115.915 111.053 115.648C110.797 115.221 110.371 115.008 109.773 115.008C109.048 115.008 108.515 115.312 108.173 115.92C107.939 116.336 107.821 116.923 107.821 117.68V121.072H107.181ZM116.084 115.152H114.948V121.072H114.308V115.152H113.588V114.544H114.308V112.208H114.948V114.544H116.084V115.152ZM117.881 110.4L117.769 114.704H117.289L117.177 110.4H117.881ZM123.322 115.456L122.778 115.744C122.565 115.253 122.186 115.008 121.642 115.008C121.301 115.008 121.029 115.115 120.826 115.328C120.634 115.541 120.538 115.781 120.538 116.048C120.538 116.251 120.597 116.427 120.714 116.576C120.831 116.715 120.954 116.821 121.082 116.896C121.21 116.96 121.413 117.045 121.69 117.152C121.733 117.163 121.834 117.205 121.994 117.28C122.165 117.344 122.277 117.387 122.33 117.408C122.383 117.429 122.474 117.472 122.602 117.536C122.741 117.589 122.842 117.643 122.906 117.696C122.97 117.739 123.045 117.797 123.13 117.872C123.226 117.947 123.306 118.027 123.37 118.112C123.594 118.389 123.706 118.741 123.706 119.168C123.706 119.861 123.493 120.384 123.066 120.736C122.65 121.077 122.154 121.248 121.578 121.248C121.023 121.248 120.543 121.093 120.138 120.784C119.733 120.475 119.461 120.053 119.322 119.52L119.946 119.328C120.053 119.744 120.255 120.069 120.554 120.304C120.863 120.528 121.205 120.64 121.578 120.64C121.994 120.64 122.341 120.507 122.618 120.24C122.895 119.963 123.034 119.616 123.034 119.2C123.034 118.859 122.927 118.597 122.714 118.416C122.501 118.224 122.122 118.016 121.578 117.792C120.831 117.483 120.357 117.195 120.154 116.928C119.962 116.672 119.866 116.389 119.866 116.08C119.866 115.589 120.031 115.189 120.362 114.88C120.693 114.56 121.109 114.4 121.61 114.4C122.453 114.4 123.023 114.752 123.322 115.456ZM129.072 114.544H129.712V121.072H129.072V114.544ZM129.792 112.8C129.685 112.907 129.552 112.96 129.392 112.96C129.232 112.96 129.093 112.907 128.976 112.8C128.869 112.683 128.816 112.539 128.816 112.368C128.816 112.197 128.869 112.059 128.976 111.952C129.093 111.835 129.232 111.776 129.392 111.776C129.552 111.776 129.685 111.835 129.792 111.952C129.909 112.059 129.968 112.197 129.968 112.368C129.968 112.539 129.909 112.683 129.792 112.8ZM137.322 115.68V109.408H137.962V121.072H137.322V119.904C136.735 120.8 135.892 121.248 134.794 121.248C133.908 121.248 133.151 120.944 132.522 120.336C131.903 119.717 131.594 118.864 131.594 117.776C131.594 116.667 131.908 115.829 132.538 115.264C133.167 114.688 133.919 114.4 134.794 114.4C135.882 114.4 136.724 114.827 137.322 115.68ZM134.794 115.008C134.079 115.008 133.476 115.248 132.986 115.728C132.506 116.208 132.266 116.885 132.266 117.76C132.266 118.667 132.516 119.376 133.018 119.888C133.519 120.389 134.122 120.64 134.826 120.64C135.519 120.64 136.111 120.389 136.602 119.888C137.103 119.376 137.354 118.667 137.354 117.76C137.354 116.971 137.124 116.315 136.666 115.792C136.207 115.269 135.583 115.008 134.794 115.008ZM146.1 117.888H140.516C140.516 118.699 140.766 119.36 141.268 119.872C141.78 120.384 142.393 120.64 143.108 120.64C143.62 120.64 144.073 120.507 144.468 120.24C144.862 119.963 145.166 119.6 145.38 119.152L145.924 119.472C145.678 119.941 145.321 120.357 144.852 120.72C144.382 121.072 143.785 121.248 143.06 121.248C142.068 121.248 141.284 120.928 140.708 120.288C140.132 119.637 139.844 118.821 139.844 117.84C139.844 116.763 140.153 115.92 140.772 115.312C141.401 114.704 142.148 114.4 143.012 114.4C143.897 114.4 144.633 114.725 145.22 115.376C145.806 116.027 146.1 116.864 146.1 117.888ZM140.564 117.28H145.428C145.342 116.619 145.076 116.075 144.628 115.648C144.19 115.221 143.652 115.008 143.012 115.008C142.361 115.008 141.812 115.227 141.364 115.664C140.916 116.091 140.649 116.629 140.564 117.28ZM153.306 115.68V114.544H153.946V121.072H153.306V119.904C152.719 120.8 151.871 121.248 150.762 121.248C149.877 121.248 149.125 120.933 148.506 120.304C147.887 119.675 147.578 118.843 147.578 117.808C147.578 116.795 147.871 115.973 148.458 115.344C149.045 114.715 149.813 114.4 150.762 114.4C151.85 114.4 152.698 114.827 153.306 115.68ZM150.794 115.008C150.101 115.008 149.503 115.259 149.002 115.76C148.501 116.251 148.25 116.917 148.25 117.76C148.25 118.539 148.479 119.216 148.938 119.792C149.397 120.357 150.021 120.64 150.81 120.64C151.589 120.64 152.202 120.363 152.65 119.808C153.109 119.243 153.338 118.56 153.338 117.76C153.338 116.875 153.077 116.197 152.554 115.728C152.031 115.248 151.445 115.008 150.794 115.008ZM159.572 115.456L159.028 115.744C158.815 115.253 158.436 115.008 157.892 115.008C157.551 115.008 157.279 115.115 157.076 115.328C156.884 115.541 156.788 115.781 156.788 116.048C156.788 116.251 156.847 116.427 156.964 116.576C157.081 116.715 157.204 116.821 157.332 116.896C157.46 116.96 157.663 117.045 157.94 117.152C157.983 117.163 158.084 117.205 158.244 117.28C158.415 117.344 158.527 117.387 158.58 117.408C158.633 117.429 158.724 117.472 158.852 117.536C158.991 117.589 159.092 117.643 159.156 117.696C159.22 117.739 159.295 117.797 159.38 117.872C159.476 117.947 159.556 118.027 159.62 118.112C159.844 118.389 159.956 118.741 159.956 119.168C159.956 119.861 159.743 120.384 159.316 120.736C158.9 121.077 158.404 121.248 157.828 121.248C157.273 121.248 156.793 121.093 156.388 120.784C155.983 120.475 155.711 120.053 155.572 119.52L156.196 119.328C156.303 119.744 156.505 120.069 156.804 120.304C157.113 120.528 157.455 120.64 157.828 120.64C158.244 120.64 158.591 120.507 158.868 120.24C159.145 119.963 159.284 119.616 159.284 119.2C159.284 118.859 159.177 118.597 158.964 118.416C158.751 118.224 158.372 118.016 157.828 117.792C157.081 117.483 156.607 117.195 156.404 116.928C156.212 116.672 156.116 116.389 156.116 116.08C156.116 115.589 156.281 115.189 156.612 114.88C156.943 114.56 157.359 114.4 157.86 114.4C158.703 114.4 159.273 114.752 159.572 115.456ZM26.4855 132.544H27.1895L29.4455 137.936L31.7015 132.144L33.9575 137.936L36.2775 132.544H36.9815L33.9575 139.472L31.7015 133.68L29.4455 139.472L26.4855 132.544ZM44.0995 135.888H38.5155C38.5155 136.699 38.7662 137.36 39.2675 137.872C39.7795 138.384 40.3929 138.64 41.1075 138.64C41.6195 138.64 42.0729 138.507 42.4675 138.24C42.8622 137.963 43.1662 137.6 43.3795 137.152L43.9235 137.472C43.6782 137.941 43.3209 138.357 42.8515 138.72C42.3822 139.072 41.7849 139.248 41.0595 139.248C40.0675 139.248 39.2835 138.928 38.7075 138.288C38.1315 137.637 37.8435 136.821 37.8435 135.84C37.8435 134.763 38.1529 133.92 38.7715 133.312C39.4009 132.704 40.1475 132.4 41.0115 132.4C41.8969 132.4 42.6329 132.725 43.2195 133.376C43.8062 134.027 44.0995 134.864 44.0995 135.888ZM38.5635 135.28H43.4275C43.3422 134.619 43.0755 134.075 42.6275 133.648C42.1902 133.221 41.6515 133.008 41.0115 133.008C40.3609 133.008 39.8115 133.227 39.3635 133.664C38.9155 134.091 38.6489 134.629 38.5635 135.28ZM55.0403 133.68V132.544H55.6803V139.072H55.0403V137.904C54.4536 138.8 53.6056 139.248 52.4963 139.248C51.6109 139.248 50.8589 138.933 50.2403 138.304C49.6216 137.675 49.3123 136.843 49.3123 135.808C49.3123 134.795 49.6056 133.973 50.1923 133.344C50.7789 132.715 51.5469 132.4 52.4963 132.4C53.5843 132.4 54.4323 132.827 55.0403 133.68ZM52.5283 133.008C51.8349 133.008 51.2376 133.259 50.7363 133.76C50.2349 134.251 49.9843 134.917 49.9843 135.76C49.9843 136.539 50.2136 137.216 50.6723 137.792C51.1309 138.357 51.7549 138.64 52.5443 138.64C53.3229 138.64 53.9363 138.363 54.3843 137.808C54.8429 137.243 55.0723 136.56 55.0723 135.76C55.0723 134.875 54.8109 134.197 54.2883 133.728C53.7656 133.248 53.1789 133.008 52.5283 133.008ZM57.9783 139.072V132.544H58.6183V133.392C58.9063 132.731 59.3863 132.4 60.0583 132.4C60.3143 132.4 60.5436 132.453 60.7463 132.56L60.4263 133.136C60.3089 133.051 60.1489 133.008 59.9463 133.008C59.6369 133.008 59.3809 133.099 59.1783 133.28C58.9863 133.451 58.8529 133.696 58.7783 134.016C58.7143 134.325 58.6716 134.587 58.6503 134.8C58.6289 135.013 58.6183 135.269 58.6183 135.568V139.072H57.9783ZM67.9745 135.888H62.3905C62.3905 136.699 62.6412 137.36 63.1425 137.872C63.6545 138.384 64.2679 138.64 64.9825 138.64C65.4945 138.64 65.9479 138.507 66.3425 138.24C66.7372 137.963 67.0412 137.6 67.2545 137.152L67.7985 137.472C67.5532 137.941 67.1959 138.357 66.7265 138.72C66.2572 139.072 65.6599 139.248 64.9345 139.248C63.9425 139.248 63.1585 138.928 62.5825 138.288C62.0065 137.637 61.7185 136.821 61.7185 135.84C61.7185 134.763 62.0279 133.92 62.6465 133.312C63.2759 132.704 64.0225 132.4 64.8865 132.4C65.7719 132.4 66.5079 132.725 67.0945 133.376C67.6812 134.027 67.9745 134.864 67.9745 135.888ZM62.4385 135.28H67.3025C67.2172 134.619 66.9505 134.075 66.5025 133.648C66.0652 133.221 65.5265 133.008 64.8865 133.008C64.2359 133.008 63.6865 133.227 63.2385 133.664C62.7905 134.091 62.5239 134.629 62.4385 135.28ZM73.6033 139.072V127.408H74.2433V133.568C74.6806 132.789 75.3473 132.4 76.2433 132.4C77.0539 132.4 77.6566 132.704 78.0513 133.312C78.2646 133.653 78.3713 134.203 78.3713 134.96V139.072H77.7313V134.96C77.7313 134.352 77.6459 133.915 77.4753 133.648C77.2193 133.221 76.7926 133.008 76.1953 133.008C75.4699 133.008 74.9366 133.312 74.5953 133.92C74.3606 134.336 74.2433 134.923 74.2433 135.68V139.072H73.6033ZM85.6497 133.68V132.544H86.2897V139.072H85.6497V137.904C85.063 138.8 84.215 139.248 83.1057 139.248C82.2203 139.248 81.4683 138.933 80.8497 138.304C80.231 137.675 79.9217 136.843 79.9217 135.808C79.9217 134.795 80.215 133.973 80.8017 133.344C81.3883 132.715 82.1563 132.4 83.1057 132.4C84.1937 132.4 85.0417 132.827 85.6497 133.68ZM83.1377 133.008C82.4443 133.008 81.847 133.259 81.3457 133.76C80.8443 134.251 80.5937 134.917 80.5937 135.76C80.5937 136.539 80.823 137.216 81.2817 137.792C81.7403 138.357 82.3643 138.64 83.1537 138.64C83.9323 138.64 84.5457 138.363 84.9937 137.808C85.4523 137.243 85.6817 136.56 85.6817 135.76C85.6817 134.875 85.4203 134.197 84.8977 133.728C84.375 133.248 83.7883 133.008 83.1377 133.008ZM89.2277 137.904V142.752H88.5877V132.544H89.2277V133.68C89.857 132.827 90.7103 132.4 91.7877 132.4C92.7477 132.4 93.5157 132.72 94.0917 133.36C94.6677 133.989 94.9557 134.789 94.9557 135.76C94.9557 136.752 94.6623 137.584 94.0757 138.256C93.4997 138.917 92.7263 139.248 91.7557 139.248C91.265 139.248 90.8223 139.152 90.4277 138.96C90.033 138.757 89.761 138.576 89.6117 138.416C89.4623 138.245 89.3343 138.075 89.2277 137.904ZM89.8677 137.824C90.3157 138.368 90.9397 138.64 91.7397 138.64C92.5397 138.64 93.1637 138.368 93.6117 137.824C94.0597 137.28 94.2837 136.592 94.2837 135.76C94.2837 134.896 94.0383 134.224 93.5477 133.744C93.057 133.253 92.4597 133.008 91.7557 133.008C91.0623 133.008 90.4597 133.248 89.9477 133.728C89.4463 134.208 89.1957 134.875 89.1957 135.728C89.1957 136.571 89.4197 137.269 89.8677 137.824ZM97.4777 137.904V142.752H96.8377V132.544H97.4777V133.68C98.107 132.827 98.9603 132.4 100.038 132.4C100.998 132.4 101.766 132.72 102.342 133.36C102.918 133.989 103.206 134.789 103.206 135.76C103.206 136.752 102.912 137.584 102.326 138.256C101.75 138.917 100.976 139.248 100.006 139.248C99.515 139.248 99.0723 139.152 98.6777 138.96C98.283 138.757 98.011 138.576 97.8617 138.416C97.7123 138.245 97.5843 138.075 97.4777 137.904ZM98.1177 137.824C98.5657 138.368 99.1897 138.64 99.9897 138.64C100.79 138.64 101.414 138.368 101.862 137.824C102.31 137.28 102.534 136.592 102.534 135.76C102.534 134.896 102.288 134.224 101.798 133.744C101.307 133.253 100.71 133.008 100.006 133.008C99.3123 133.008 98.7097 133.248 98.1977 133.728C97.6963 134.208 97.4457 134.875 97.4457 135.728C97.4457 136.571 97.6697 137.269 98.1177 137.824ZM105.632 142.752L107.168 139.184L104.064 132.544H104.8L107.536 138.352L109.92 132.544H110.656L106.368 142.752H105.632ZM117.49 133.152H116.354V139.072H115.714V133.152H114.994V132.544H115.714V130.208H116.354V132.544H117.49V133.152ZM119.335 133.392C119.996 132.731 120.812 132.4 121.783 132.4C122.754 132.4 123.564 132.731 124.215 133.392C124.876 134.043 125.207 134.853 125.207 135.824C125.207 136.795 124.876 137.611 124.215 138.272C123.564 138.923 122.754 139.248 121.783 139.248C120.812 139.248 119.996 138.923 119.335 138.272C118.684 137.611 118.359 136.795 118.359 135.824C118.359 134.853 118.684 134.043 119.335 133.392ZM119.815 137.824C120.348 138.368 121.004 138.64 121.783 138.64C122.562 138.64 123.212 138.368 123.735 137.824C124.268 137.28 124.535 136.613 124.535 135.824C124.535 135.035 124.268 134.368 123.735 133.824C123.212 133.28 122.562 133.008 121.783 133.008C121.004 133.008 120.348 133.28 119.815 133.824C119.292 134.368 119.031 135.035 119.031 135.824C119.031 136.613 119.292 137.28 119.815 137.824ZM130.822 139.072V127.408H131.462V133.568C131.899 132.789 132.566 132.4 133.462 132.4C134.273 132.4 134.875 132.704 135.27 133.312C135.483 133.653 135.59 134.203 135.59 134.96V139.072H134.95V134.96C134.95 134.352 134.865 133.915 134.694 133.648C134.438 133.221 134.011 133.008 133.414 133.008C132.689 133.008 132.155 133.312 131.814 133.92C131.579 134.336 131.462 134.923 131.462 135.68V139.072H130.822ZM143.24 135.888H137.656C137.656 136.699 137.907 137.36 138.408 137.872C138.92 138.384 139.533 138.64 140.248 138.64C140.76 138.64 141.213 138.507 141.608 138.24C142.003 137.963 142.307 137.6 142.52 137.152L143.064 137.472C142.819 137.941 142.461 138.357 141.992 138.72C141.523 139.072 140.925 139.248 140.2 139.248C139.208 139.248 138.424 138.928 137.848 138.288C137.272 137.637 136.984 136.821 136.984 135.84C136.984 134.763 137.293 133.92 137.912 133.312C138.541 132.704 139.288 132.4 140.152 132.4C141.037 132.4 141.773 132.725 142.36 133.376C142.947 134.027 143.24 134.864 143.24 135.888ZM137.704 135.28H142.568C142.483 134.619 142.216 134.075 141.768 133.648C141.331 133.221 140.792 133.008 140.152 133.008C139.501 133.008 138.952 133.227 138.504 133.664C138.056 134.091 137.789 134.629 137.704 135.28ZM145.135 127.408H145.775V139.072H145.135V127.408ZM148.712 137.904V142.752H148.072V132.544H148.712V133.68C149.341 132.827 150.195 132.4 151.272 132.4C152.232 132.4 153 132.72 153.576 133.36C154.152 133.989 154.44 134.789 154.44 135.76C154.44 136.752 154.147 137.584 153.56 138.256C152.984 138.917 152.211 139.248 151.24 139.248C150.749 139.248 150.307 139.152 149.912 138.96C149.517 138.757 149.245 138.576 149.096 138.416C148.947 138.245 148.819 138.075 148.712 137.904ZM149.352 137.824C149.8 138.368 150.424 138.64 151.224 138.64C152.024 138.64 152.648 138.368 153.096 137.824C153.544 137.28 153.768 136.592 153.768 135.76C153.768 134.896 153.523 134.224 153.032 133.744C152.541 133.253 151.944 133.008 151.24 133.008C150.547 133.008 149.944 133.248 149.432 133.728C148.931 134.208 148.68 134.875 148.68 135.728C148.68 136.571 148.904 137.269 149.352 137.824ZM24.7043 150.544H25.4083L27.6643 155.936L29.9203 150.144L32.1763 155.936L34.4963 150.544H35.2003L32.1763 157.472L29.9203 151.68L27.6643 157.472L24.7043 150.544ZM36.4783 150.544H37.1183V157.072H36.4783V150.544ZM37.1983 148.8C37.0916 148.907 36.9583 148.96 36.7983 148.96C36.6383 148.96 36.4996 148.907 36.3823 148.8C36.2756 148.683 36.2223 148.539 36.2223 148.368C36.2223 148.197 36.2756 148.059 36.3823 147.952C36.4996 147.835 36.6383 147.776 36.7983 147.776C36.9583 147.776 37.0916 147.835 37.1983 147.952C37.3156 148.059 37.3743 148.197 37.3743 148.368C37.3743 148.539 37.3156 148.683 37.1983 148.8ZM41.2398 151.152H40.1038V157.072H39.4638V151.152H38.7438V150.544H39.4638V148.208H40.1038V150.544H41.2398V151.152ZM42.5252 157.072V145.408H43.1652V151.568C43.6025 150.789 44.2692 150.4 45.1652 150.4C45.9758 150.4 46.5785 150.704 46.9732 151.312C47.1865 151.653 47.2932 152.203 47.2932 152.96V157.072H46.6532V152.96C46.6532 152.352 46.5678 151.915 46.3972 151.648C46.1412 151.221 45.7145 151.008 45.1172 151.008C44.3918 151.008 43.8585 151.312 43.5172 151.92C43.2825 152.336 43.1652 152.923 43.1652 153.68V157.072H42.5252ZM58.6497 151.68V150.544H59.2897V157.072H58.6497V155.904C58.063 156.8 57.215 157.248 56.1057 157.248C55.2203 157.248 54.4683 156.933 53.8497 156.304C53.231 155.675 52.9217 154.843 52.9217 153.808C52.9217 152.795 53.215 151.973 53.8017 151.344C54.3883 150.715 55.1563 150.4 56.1057 150.4C57.1937 150.4 58.0417 150.827 58.6497 151.68ZM56.1377 151.008C55.4443 151.008 54.847 151.259 54.3457 151.76C53.8443 152.251 53.5937 152.917 53.5937 153.76C53.5937 154.539 53.823 155.216 54.2817 155.792C54.7403 156.357 55.3643 156.64 56.1537 156.64C56.9323 156.64 57.5457 156.363 57.9937 155.808C58.4523 155.243 58.6817 154.56 58.6817 153.76C58.6817 152.875 58.4203 152.197 57.8977 151.728C57.375 151.248 56.7883 151.008 56.1377 151.008ZM67.146 151.152H66.01V157.072H65.37V151.152H64.65V150.544H65.37V148.208H66.01V150.544H67.146V151.152ZM74.2714 153.888H68.6874C68.6874 154.699 68.9381 155.36 69.4394 155.872C69.9514 156.384 70.5647 156.64 71.2794 156.64C71.7914 156.64 72.2447 156.507 72.6394 156.24C73.0341 155.963 73.3381 155.6 73.5514 155.152L74.0954 155.472C73.8501 155.941 73.4927 156.357 73.0234 156.72C72.5541 157.072 71.9567 157.248 71.2314 157.248C70.2394 157.248 69.4554 156.928 68.8794 156.288C68.3034 155.637 68.0154 154.821 68.0154 153.84C68.0154 152.763 68.3247 151.92 68.9434 151.312C69.5727 150.704 70.3194 150.4 71.1834 150.4C72.0687 150.4 72.8047 150.725 73.3914 151.376C73.9781 152.027 74.2714 152.864 74.2714 153.888ZM68.7354 153.28H73.5994C73.5141 152.619 73.2474 152.075 72.7994 151.648C72.3621 151.221 71.8234 151.008 71.1834 151.008C70.5327 151.008 69.9834 151.227 69.5354 151.664C69.0874 152.091 68.8207 152.629 68.7354 153.28ZM81.3978 151.232V152.08C80.7791 151.365 80.0271 151.008 79.1418 151.008C78.3524 151.008 77.7018 151.28 77.1898 151.824C76.6778 152.357 76.4218 153.029 76.4218 153.84C76.4218 154.715 76.6938 155.403 77.2378 155.904C77.7818 156.395 78.4058 156.64 79.1098 156.64C79.9738 156.64 80.7631 156.251 81.4778 155.472V156.336C80.7951 156.944 80.0004 157.248 79.0938 157.248C78.1124 157.248 77.3071 156.928 76.6778 156.288C76.0591 155.637 75.7498 154.827 75.7498 153.856C75.7498 152.864 76.0591 152.043 76.6778 151.392C77.2964 150.731 78.1178 150.4 79.1418 150.4C79.9844 150.4 80.7364 150.677 81.3978 151.232ZM83.2439 157.072V145.408H83.8839V151.568C84.3212 150.789 84.9879 150.4 85.8839 150.4C86.6946 150.4 87.2972 150.704 87.6919 151.312C87.9052 151.653 88.0119 152.203 88.0119 152.96V157.072H87.3719V152.96C87.3719 152.352 87.2866 151.915 87.1159 151.648C86.8599 151.221 86.4332 151.008 85.8359 151.008C85.1106 151.008 84.5772 151.312 84.2359 151.92C84.0012 152.336 83.8839 152.923 83.8839 153.68V157.072H83.2439ZM90.0095 157.072V150.544H90.6495V151.568C91.0869 150.789 91.7535 150.4 92.6495 150.4C93.4602 150.4 94.0629 150.704 94.4575 151.312C94.6709 151.653 94.7775 152.203 94.7775 152.96V157.072H94.1375V152.96C94.1375 152.352 94.0522 151.915 93.8815 151.648C93.6255 151.221 93.1989 151.008 92.6015 151.008C91.8762 151.008 91.3429 151.312 91.0015 151.92C90.7669 152.336 90.6495 152.923 90.6495 153.68V157.072H90.0095ZM97.0877 150.544H97.7277V157.072H97.0877V150.544ZM97.8077 148.8C97.701 148.907 97.5677 148.96 97.4077 148.96C97.2477 148.96 97.109 148.907 96.9917 148.8C96.885 148.683 96.8317 148.539 96.8317 148.368C96.8317 148.197 96.885 148.059 96.9917 147.952C97.109 147.835 97.2477 147.776 97.4077 147.776C97.5677 147.776 97.701 147.835 97.8077 147.952C97.925 148.059 97.9837 148.197 97.9837 148.368C97.9837 148.539 97.925 148.683 97.8077 148.8ZM105.257 151.232V152.08C104.638 151.365 103.886 151.008 103.001 151.008C102.212 151.008 101.561 151.28 101.049 151.824C100.537 152.357 100.281 153.029 100.281 153.84C100.281 154.715 100.553 155.403 101.097 155.904C101.641 156.395 102.265 156.64 102.969 156.64C103.833 156.64 104.622 156.251 105.337 155.472V156.336C104.654 156.944 103.86 157.248 102.953 157.248C101.972 157.248 101.166 156.928 100.537 156.288C99.9185 155.637 99.6092 154.827 99.6092 153.856C99.6092 152.864 99.9185 152.043 100.537 151.392C101.156 150.731 101.977 150.4 103.001 150.4C103.844 150.4 104.596 150.677 105.257 151.232ZM112.415 151.68V150.544H113.055V157.072H112.415V155.904C111.829 156.8 110.981 157.248 109.871 157.248C108.986 157.248 108.234 156.933 107.615 156.304C106.997 155.675 106.687 154.843 106.687 153.808C106.687 152.795 106.981 151.973 107.567 151.344C108.154 150.715 108.922 150.4 109.871 150.4C110.959 150.4 111.807 150.827 112.415 151.68ZM109.903 151.008C109.21 151.008 108.613 151.259 108.111 151.76C107.61 152.251 107.359 152.917 107.359 153.76C107.359 154.539 107.589 155.216 108.047 155.792C108.506 156.357 109.13 156.64 109.919 156.64C110.698 156.64 111.311 156.363 111.759 155.808C112.218 155.243 112.447 154.56 112.447 153.76C112.447 152.875 112.186 152.197 111.663 151.728C111.141 151.248 110.554 151.008 109.903 151.008ZM115.353 145.408H115.993V157.072H115.353V145.408ZM121.001 150.544H121.705L124.009 155.968L126.281 150.544H126.985L124.009 157.472L121.001 150.544ZM128.26 150.544H128.9V157.072H128.26V150.544ZM128.98 148.8C128.873 148.907 128.74 148.96 128.58 148.96C128.42 148.96 128.281 148.907 128.164 148.8C128.057 148.683 128.004 148.539 128.004 148.368C128.004 148.197 128.057 148.059 128.164 147.952C128.281 147.835 128.42 147.776 128.58 147.776C128.74 147.776 128.873 147.835 128.98 147.952C129.097 148.059 129.156 148.197 129.156 148.368C129.156 148.539 129.097 148.683 128.98 148.8ZM134.525 151.456L133.981 151.744C133.768 151.253 133.389 151.008 132.845 151.008C132.504 151.008 132.232 151.115 132.029 151.328C131.837 151.541 131.741 151.781 131.741 152.048C131.741 152.251 131.8 152.427 131.917 152.576C132.034 152.715 132.157 152.821 132.285 152.896C132.413 152.96 132.616 153.045 132.893 153.152C132.936 153.163 133.037 153.205 133.197 153.28C133.368 153.344 133.48 153.387 133.533 153.408C133.586 153.429 133.677 153.472 133.805 153.536C133.944 153.589 134.045 153.643 134.109 153.696C134.173 153.739 134.248 153.797 134.333 153.872C134.429 153.947 134.509 154.027 134.573 154.112C134.797 154.389 134.909 154.741 134.909 155.168C134.909 155.861 134.696 156.384 134.269 156.736C133.853 157.077 133.357 157.248 132.781 157.248C132.226 157.248 131.746 157.093 131.341 156.784C130.936 156.475 130.664 156.053 130.525 155.52L131.149 155.328C131.256 155.744 131.458 156.069 131.757 156.304C132.066 156.528 132.408 156.64 132.781 156.64C133.197 156.64 133.544 156.507 133.821 156.24C134.098 155.963 134.237 155.616 134.237 155.2C134.237 154.859 134.13 154.597 133.917 154.416C133.704 154.224 133.325 154.016 132.781 153.792C132.034 153.483 131.56 153.195 131.357 152.928C131.165 152.672 131.069 152.389 131.069 152.08C131.069 151.589 131.234 151.189 131.565 150.88C131.896 150.56 132.312 150.4 132.813 150.4C133.656 150.4 134.226 150.752 134.525 151.456ZM136.541 150.544H137.181V157.072H136.541V150.544ZM137.261 148.8C137.154 148.907 137.021 148.96 136.861 148.96C136.701 148.96 136.562 148.907 136.445 148.8C136.338 148.683 136.285 148.539 136.285 148.368C136.285 148.197 136.338 148.059 136.445 147.952C136.562 147.835 136.701 147.776 136.861 147.776C137.021 147.776 137.154 147.835 137.261 147.952C137.378 148.059 137.437 148.197 137.437 148.368C137.437 148.539 137.378 148.683 137.261 148.8ZM140.038 151.392C140.7 150.731 141.516 150.4 142.486 150.4C143.457 150.4 144.268 150.731 144.918 151.392C145.58 152.043 145.91 152.853 145.91 153.824C145.91 154.795 145.58 155.611 144.918 156.272C144.268 156.923 143.457 157.248 142.486 157.248C141.516 157.248 140.7 156.923 140.038 156.272C139.388 155.611 139.062 154.795 139.062 153.824C139.062 152.853 139.388 152.043 140.038 151.392ZM140.518 155.824C141.052 156.368 141.708 156.64 142.486 156.64C143.265 156.64 143.916 156.368 144.438 155.824C144.972 155.28 145.238 154.613 145.238 153.824C145.238 153.035 144.972 152.368 144.438 151.824C143.916 151.28 143.265 151.008 142.486 151.008C141.708 151.008 141.052 151.28 140.518 151.824C139.996 152.368 139.734 153.035 139.734 153.824C139.734 154.613 139.996 155.28 140.518 155.824ZM147.791 157.072V150.544H148.431V151.568C148.868 150.789 149.535 150.4 150.431 150.4C151.241 150.4 151.844 150.704 152.239 151.312C152.452 151.653 152.559 152.203 152.559 152.96V157.072H151.919V152.96C151.919 152.352 151.833 151.915 151.663 151.648C151.407 151.221 150.98 151.008 150.383 151.008C149.657 151.008 149.124 151.312 148.783 151.92C148.548 152.336 148.431 152.923 148.431 153.68V157.072H147.791ZM154.901 157.024C154.794 156.907 154.741 156.763 154.741 156.592C154.741 156.421 154.794 156.283 154.901 156.176C155.018 156.059 155.162 156 155.333 156C155.504 156 155.642 156.059 155.749 156.176C155.866 156.283 155.925 156.421 155.925 156.592C155.925 156.763 155.866 156.907 155.749 157.024C155.642 157.131 155.504 157.184 155.333 157.184C155.162 157.184 155.018 157.131 154.901 157.024Z" fill="black"/>
<path d="M45.952 93H44.08L46.6 80.094L50.776 89.418L54.988 80.094L57.256 93H55.384L54.16 85.764L50.668 93.558L47.212 85.746L45.952 93ZM64.9881 86.304V85.422H66.7521V93H64.9881V92.208C64.4001 92.892 63.6441 93.234 62.7201 93.234C61.6041 93.234 60.7101 92.838 60.0381 92.046C59.3781 91.254 59.0481 90.306 59.0481 89.202C59.0481 88.002 59.4021 87.042 60.1101 86.322C60.8301 85.59 61.7061 85.224 62.7381 85.224C63.6861 85.224 64.4361 85.584 64.9881 86.304ZM62.9541 86.808C62.3301 86.808 61.8201 87.042 61.4241 87.51C61.0401 87.978 60.8481 88.554 60.8481 89.238C60.8481 89.91 61.0401 90.48 61.4241 90.948C61.8201 91.416 62.3301 91.65 62.9541 91.65C63.5541 91.65 64.0581 91.44 64.4661 91.02C64.8861 90.6 65.0961 90.012 65.0961 89.256C65.0961 88.476 64.8861 87.876 64.4661 87.456C64.0581 87.024 63.5541 86.808 62.9541 86.808ZM68.989 85.422H70.753V93H68.989V85.422ZM69.061 83.1C68.845 82.884 68.737 82.614 68.737 82.29C68.737 81.966 68.845 81.696 69.061 81.48C69.277 81.264 69.547 81.156 69.871 81.156C70.195 81.156 70.465 81.264 70.681 81.48C70.897 81.696 71.005 81.966 71.005 82.29C71.005 82.614 70.897 82.884 70.681 83.1C70.465 83.316 70.195 83.424 69.871 83.424C69.547 83.424 69.277 83.316 69.061 83.1ZM72.9613 93V85.422H74.7253V86.124C75.2653 85.524 75.9493 85.224 76.7773 85.224C77.7733 85.224 78.5173 85.566 79.0093 86.25C79.3213 86.694 79.4773 87.396 79.4773 88.356V93H77.7133V88.788C77.7133 88.332 77.6773 87.96 77.6053 87.672C77.5333 87.384 77.4193 87.186 77.2633 87.078C77.1073 86.958 76.9633 86.886 76.8313 86.862C76.7113 86.826 76.5433 86.808 76.3273 86.808C76.0753 86.808 75.8713 86.832 75.7153 86.88C75.5713 86.916 75.4093 87.012 75.2293 87.168C75.0613 87.312 74.9353 87.57 74.8513 87.942C74.7673 88.302 74.7253 88.776 74.7253 89.364V93H72.9613ZM84.8836 87.042H83.5336V93H81.7696V87.042H81.0316V85.422H81.7696V82.65H83.5336V85.422H84.8836V87.042ZM91.385 90.444L92.861 91.272C92.525 91.872 92.099 92.334 91.583 92.658C90.995 93.042 90.251 93.234 89.351 93.234C88.295 93.234 87.443 92.91 86.795 92.262C86.051 91.518 85.679 90.552 85.679 89.364C85.679 88.116 86.081 87.078 86.885 86.25C87.569 85.566 88.415 85.224 89.423 85.224C90.407 85.224 91.217 85.554 91.853 86.214C92.561 86.946 92.915 88.014 92.915 89.418V89.634H87.479C87.527 90.27 87.743 90.78 88.127 91.164C88.451 91.488 88.901 91.65 89.477 91.65C89.945 91.65 90.347 91.524 90.683 91.272C90.959 91.056 91.193 90.78 91.385 90.444ZM87.605 88.194H91.115C91.043 87.774 90.863 87.432 90.575 87.168C90.263 86.88 89.867 86.736 89.387 86.736C88.883 86.736 88.469 86.898 88.145 87.222C87.881 87.462 87.701 87.786 87.605 88.194ZM94.7406 93V85.422H96.5046V86.124C97.0446 85.524 97.7286 85.224 98.5566 85.224C99.5526 85.224 100.297 85.566 100.789 86.25C101.101 86.694 101.257 87.396 101.257 88.356V93H99.4926V88.788C99.4926 88.332 99.4566 87.96 99.3846 87.672C99.3126 87.384 99.1986 87.186 99.0426 87.078C98.8866 86.958 98.7426 86.886 98.6106 86.862C98.4906 86.826 98.3226 86.808 98.1066 86.808C97.8546 86.808 97.6506 86.832 97.4946 86.88C97.3506 86.916 97.1886 87.012 97.0086 87.168C96.8406 87.312 96.7146 87.57 96.6306 87.942C96.5466 88.302 96.5046 88.776 96.5046 89.364V93H94.7406ZM109.039 86.304V85.422H110.803V93H109.039V92.208C108.451 92.892 107.695 93.234 106.771 93.234C105.655 93.234 104.761 92.838 104.089 92.046C103.429 91.254 103.099 90.306 103.099 89.202C103.099 88.002 103.453 87.042 104.161 86.322C104.881 85.59 105.757 85.224 106.789 85.224C107.737 85.224 108.487 85.584 109.039 86.304ZM107.005 86.808C106.381 86.808 105.871 87.042 105.475 87.51C105.091 87.978 104.899 88.554 104.899 89.238C104.899 89.91 105.091 90.48 105.475 90.948C105.871 91.416 106.381 91.65 107.005 91.65C107.605 91.65 108.109 91.44 108.517 91.02C108.937 90.6 109.147 90.012 109.147 89.256C109.147 88.476 108.937 87.876 108.517 87.456C108.109 87.024 107.605 86.808 107.005 86.808ZM113.022 93V85.422H114.786V86.124C115.326 85.524 116.01 85.224 116.838 85.224C117.834 85.224 118.578 85.566 119.07 86.25C119.382 86.694 119.538 87.396 119.538 88.356V93H117.774V88.788C117.774 88.332 117.738 87.96 117.666 87.672C117.594 87.384 117.48 87.186 117.324 87.078C117.168 86.958 117.024 86.886 116.892 86.862C116.772 86.826 116.604 86.808 116.388 86.808C116.136 86.808 115.932 86.832 115.776 86.88C115.632 86.916 115.47 87.012 115.29 87.168C115.122 87.312 114.996 87.57 114.912 87.942C114.828 88.302 114.786 88.776 114.786 89.364V93H113.022ZM127.644 85.764V87.744C127.008 87.12 126.294 86.808 125.502 86.808C124.83 86.808 124.272 87.03 123.828 87.474C123.396 87.906 123.18 88.488 123.18 89.22C123.18 89.976 123.408 90.582 123.864 91.038C124.296 91.446 124.83 91.65 125.466 91.65C126.342 91.65 127.068 91.326 127.644 90.678V92.64C127.008 93.036 126.24 93.234 125.34 93.234C124.128 93.234 123.168 92.862 122.46 92.118C121.74 91.374 121.38 90.426 121.38 89.274C121.38 88.086 121.764 87.108 122.532 86.34C123.276 85.596 124.29 85.224 125.574 85.224C126.306 85.224 126.996 85.404 127.644 85.764ZM134.645 90.444L136.121 91.272C135.785 91.872 135.359 92.334 134.843 92.658C134.255 93.042 133.511 93.234 132.611 93.234C131.555 93.234 130.703 92.91 130.055 92.262C129.311 91.518 128.939 90.552 128.939 89.364C128.939 88.116 129.341 87.078 130.145 86.25C130.829 85.566 131.675 85.224 132.683 85.224C133.667 85.224 134.477 85.554 135.113 86.214C135.821 86.946 136.175 88.014 136.175 89.418V89.634H130.739C130.787 90.27 131.003 90.78 131.387 91.164C131.711 91.488 132.161 91.65 132.737 91.65C133.205 91.65 133.607 91.524 133.943 91.272C134.219 91.056 134.453 90.78 134.645 90.444ZM130.865 88.194H134.375C134.303 87.774 134.123 87.432 133.835 87.168C133.523 86.88 133.127 86.736 132.647 86.736C132.143 86.736 131.729 86.898 131.405 87.222C131.141 87.462 130.961 87.786 130.865 88.194Z" fill="black"/>
<defs>
<filter id="filter0_b_202_2" x="-40" y="-40" width="258.256" height="273.5" filterUnits="userSpaceOnUse" color-interpolation-filters="sRGB">
<feFlood flood-opacity="0" result="BackgroundImageFix"/>
<feGaussianBlur in="BackgroundImageFix" stdDeviation="20"/>
<feComposite in2="SourceAlpha" operator="in" result="effect1_backgroundBlur_202_2"/>
<feBlend mode="normal" in="SourceGraphic" in2="effect1_backgroundBlur_202_2" result="shape"/>
</filter>
<clipPath id="clip0_202_2">
<rect width="43" height="41" fill="white" transform="translate(67 26)"/>
</clipPath>
</defs>
</svg>
