<svg width="179" height="194" viewBox="0 0 179 194" fill="none" xmlns="http://www.w3.org/2000/svg">
<g filter="url(#filter0_b_202_3)">
<rect width="178.256" height="193.5" rx="20" fill="white" fill-opacity="0.1"/>
</g>
<path d="M31.0669 115.928H29.6909V121H28.9869V110.328H31.0509C31.9575 110.328 32.7042 110.573 33.2909 111.064C33.8775 111.544 34.1709 112.227 34.1709 113.112C34.1709 113.987 33.8882 114.675 33.3229 115.176C32.7575 115.677 32.0055 115.928 31.0669 115.928ZM29.6909 110.968V115.288H31.0989C31.8029 115.288 32.3682 115.096 32.7949 114.712C33.2215 114.317 33.4349 113.789 33.4349 113.128C33.4349 112.456 33.2162 111.928 32.7789 111.544C32.3522 111.16 31.7549 110.968 30.9869 110.968H29.6909ZM35.1676 121V114.472H35.8076V115.32C36.0956 114.659 36.5756 114.328 37.2476 114.328C37.5036 114.328 37.733 114.381 37.9356 114.488L37.6156 115.064C37.4983 114.979 37.3383 114.936 37.1356 114.936C36.8263 114.936 36.5703 115.027 36.3676 115.208C36.1756 115.379 36.0423 115.624 35.9676 115.944C35.9036 116.253 35.861 116.515 35.8396 116.728C35.8183 116.941 35.8076 117.197 35.8076 117.496V121H35.1676ZM39.5401 115.32C40.2015 114.659 41.0175 114.328 41.9881 114.328C42.9588 114.328 43.7695 114.659 44.4201 115.32C45.0815 115.971 45.4121 116.781 45.4121 117.752C45.4121 118.723 45.0815 119.539 44.4201 120.2C43.7695 120.851 42.9588 121.176 41.9881 121.176C41.0175 121.176 40.2015 120.851 39.5401 120.2C38.8895 119.539 38.5641 118.723 38.5641 117.752C38.5641 116.781 38.8895 115.971 39.5401 115.32ZM40.0201 119.752C40.5535 120.296 41.2095 120.568 41.9881 120.568C42.7668 120.568 43.4175 120.296 43.9401 119.752C44.4735 119.208 44.7401 118.541 44.7401 117.752C44.7401 116.963 44.4735 116.296 43.9401 115.752C43.4175 115.208 42.7668 114.936 41.9881 114.936C41.2095 114.936 40.5535 115.208 40.0201 115.752C39.4975 116.296 39.2361 116.963 39.2361 117.752C39.2361 118.541 39.4975 119.208 40.0201 119.752ZM46.2686 114.472H46.9726L49.2766 119.896L51.5486 114.472H52.2526L49.2766 121.4L46.2686 114.472ZM53.527 114.472H54.167V121H53.527V114.472ZM54.247 112.728C54.1403 112.835 54.007 112.888 53.847 112.888C53.687 112.888 53.5483 112.835 53.431 112.728C53.3243 112.611 53.271 112.467 53.271 112.296C53.271 112.125 53.3243 111.987 53.431 111.88C53.5483 111.763 53.687 111.704 53.847 111.704C54.007 111.704 54.1403 111.763 54.247 111.88C54.3643 111.987 54.423 112.125 54.423 112.296C54.423 112.467 54.3643 112.611 54.247 112.728ZM61.7765 115.608V109.336H62.4165V121H61.7765V119.832C61.1898 120.728 60.3472 121.176 59.2485 121.176C58.3632 121.176 57.6058 120.872 56.9765 120.264C56.3578 119.645 56.0485 118.792 56.0485 117.704C56.0485 116.595 56.3632 115.757 56.9925 115.192C57.6218 114.616 58.3738 114.328 59.2485 114.328C60.3365 114.328 61.1792 114.755 61.7765 115.608ZM59.2485 114.936C58.5338 114.936 57.9312 115.176 57.4405 115.656C56.9605 116.136 56.7205 116.813 56.7205 117.688C56.7205 118.595 56.9712 119.304 57.4725 119.816C57.9738 120.317 58.5765 120.568 59.2805 120.568C59.9738 120.568 60.5658 120.317 61.0565 119.816C61.5578 119.304 61.8085 118.595 61.8085 117.688C61.8085 116.899 61.5792 116.243 61.1205 115.72C60.6618 115.197 60.0378 114.936 59.2485 114.936ZM64.7145 114.472H65.3545V121H64.7145V114.472ZM65.4345 112.728C65.3278 112.835 65.1945 112.888 65.0345 112.888C64.8745 112.888 64.7358 112.835 64.6185 112.728C64.5118 112.611 64.4585 112.467 64.4585 112.296C64.4585 112.125 64.5118 111.987 64.6185 111.88C64.7358 111.763 64.8745 111.704 65.0345 111.704C65.1945 111.704 65.3278 111.763 65.4345 111.88C65.5518 111.987 65.6105 112.125 65.6105 112.296C65.6105 112.467 65.5518 112.611 65.4345 112.728ZM67.652 121V114.472H68.292V115.496C68.7293 114.717 69.396 114.328 70.292 114.328C71.1027 114.328 71.7053 114.632 72.1 115.24C72.3133 115.581 72.42 116.131 72.42 116.888V121H71.78V116.888C71.78 116.28 71.6947 115.843 71.524 115.576C71.268 115.149 70.8413 114.936 70.244 114.936C69.5187 114.936 68.9853 115.24 68.644 115.848C68.4093 116.264 68.292 116.851 68.292 117.608V121H67.652ZM80.1061 114.472H80.7461V120.808C80.7461 122.035 80.4528 122.984 79.8661 123.656C79.2901 124.339 78.4901 124.68 77.4661 124.68C76.5808 124.68 75.8341 124.429 75.2261 123.928C74.6288 123.437 74.3088 122.755 74.2661 121.88H74.9381C74.9915 122.552 75.2475 123.085 75.7061 123.48C76.1755 123.875 76.7621 124.072 77.4661 124.072C77.9461 124.072 78.3621 123.976 78.7141 123.784C79.0768 123.592 79.3435 123.373 79.5141 123.128C79.6848 122.883 79.8181 122.584 79.9141 122.232C80.0101 121.88 80.0635 121.608 80.0741 121.416C80.0955 121.224 80.1061 121.021 80.1061 120.808V119.88C79.4875 120.744 78.6288 121.176 77.5301 121.176C76.6661 121.176 75.9141 120.872 75.2741 120.264C74.6341 119.656 74.3141 118.813 74.3141 117.736C74.3141 116.765 74.6128 115.955 75.2101 115.304C75.8075 114.653 76.6075 114.328 77.6101 114.328C78.6768 114.328 79.5088 114.755 80.1061 115.608V114.472ZM79.4181 115.736C78.9488 115.203 78.3248 114.936 77.5461 114.936C76.7675 114.936 76.1435 115.213 75.6741 115.768C75.2155 116.312 74.9861 116.979 74.9861 117.768C74.9861 118.568 75.2155 119.235 75.6741 119.768C76.1435 120.301 76.7568 120.568 77.5141 120.568C78.3035 120.568 78.9381 120.296 79.4181 119.752C79.8981 119.208 80.1381 118.525 80.1381 117.704C80.1381 116.925 79.8981 116.269 79.4181 115.736ZM86.777 109.336H87.417V115.608C88.0463 114.755 88.8997 114.328 89.977 114.328C90.937 114.328 91.705 114.648 92.281 115.288C92.857 115.917 93.145 116.717 93.145 117.688C93.145 118.68 92.8517 119.512 92.265 120.184C91.689 120.845 90.9157 121.176 89.945 121.176C89.4543 121.176 89.0117 121.08 88.617 120.888C88.2223 120.685 87.9503 120.504 87.801 120.344C87.6517 120.173 87.5237 120.003 87.417 119.832V121H86.777V109.336ZM88.057 119.752C88.505 120.296 89.129 120.568 89.929 120.568C90.729 120.568 91.353 120.296 91.801 119.752C92.249 119.208 92.473 118.52 92.473 117.688C92.473 116.824 92.2277 116.152 91.737 115.672C91.2463 115.181 90.649 114.936 89.945 114.936C89.2517 114.936 88.649 115.176 88.137 115.656C87.6357 116.136 87.385 116.803 87.385 117.656C87.385 118.499 87.609 119.197 88.057 119.752ZM100.867 117.816H95.283C95.283 118.627 95.5337 119.288 96.035 119.8C96.547 120.312 97.1603 120.568 97.875 120.568C98.387 120.568 98.8403 120.435 99.235 120.168C99.6297 119.891 99.9337 119.528 100.147 119.08L100.691 119.4C100.446 119.869 100.088 120.285 99.619 120.648C99.1497 121 98.5523 121.176 97.827 121.176C96.835 121.176 96.051 120.856 95.475 120.216C94.899 119.565 94.611 118.749 94.611 117.768C94.611 116.691 94.9203 115.848 95.539 115.24C96.1683 114.632 96.915 114.328 97.779 114.328C98.6643 114.328 99.4003 114.653 99.987 115.304C100.574 115.955 100.867 116.792 100.867 117.816ZM95.331 117.208H100.195C100.11 116.547 99.843 116.003 99.395 115.576C98.9577 115.149 98.419 114.936 97.779 114.936C97.1283 114.936 96.579 115.155 96.131 115.592C95.683 116.019 95.4163 116.557 95.331 117.208ZM106.089 115.384L105.545 115.672C105.332 115.181 104.953 114.936 104.409 114.936C104.068 114.936 103.796 115.043 103.593 115.256C103.401 115.469 103.305 115.709 103.305 115.976C103.305 116.179 103.364 116.355 103.481 116.504C103.599 116.643 103.721 116.749 103.849 116.824C103.977 116.888 104.18 116.973 104.457 117.08C104.5 117.091 104.601 117.133 104.761 117.208C104.932 117.272 105.044 117.315 105.097 117.336C105.151 117.357 105.241 117.4 105.369 117.464C105.508 117.517 105.609 117.571 105.673 117.624C105.737 117.667 105.812 117.725 105.897 117.8C105.993 117.875 106.073 117.955 106.137 118.04C106.361 118.317 106.473 118.669 106.473 119.096C106.473 119.789 106.26 120.312 105.833 120.664C105.417 121.005 104.921 121.176 104.345 121.176C103.791 121.176 103.311 121.021 102.905 120.712C102.5 120.403 102.228 119.981 102.089 119.448L102.713 119.256C102.82 119.672 103.023 119.997 103.321 120.232C103.631 120.456 103.972 120.568 104.345 120.568C104.761 120.568 105.108 120.435 105.385 120.168C105.663 119.891 105.801 119.544 105.801 119.128C105.801 118.787 105.695 118.525 105.481 118.344C105.268 118.152 104.889 117.944 104.345 117.72C103.599 117.411 103.124 117.123 102.921 116.856C102.729 116.6 102.633 116.317 102.633 116.008C102.633 115.517 102.799 115.117 103.129 114.808C103.46 114.488 103.876 114.328 104.377 114.328C105.22 114.328 105.791 114.68 106.089 115.384ZM109.929 115.08H108.793V121H108.153V115.08H107.433V114.472H108.153V112.136H108.793V114.472H109.929V115.08ZM120.901 124.68H120.261V119.832C119.674 120.728 118.832 121.176 117.733 121.176C116.848 121.176 116.09 120.872 115.461 120.264C114.842 119.645 114.533 118.792 114.533 117.704C114.533 116.595 114.848 115.757 115.477 115.192C116.106 114.616 116.858 114.328 117.733 114.328C118.821 114.328 119.664 114.755 120.261 115.608V114.472H120.901V124.68ZM117.733 114.936C117.018 114.936 116.416 115.176 115.925 115.656C115.445 116.136 115.205 116.813 115.205 117.688C115.205 118.595 115.456 119.304 115.957 119.816C116.458 120.317 117.061 120.568 117.765 120.568C118.458 120.568 119.05 120.317 119.541 119.816C120.042 119.304 120.293 118.595 120.293 117.688C120.293 116.899 120.064 116.243 119.605 115.72C119.146 115.197 118.522 114.936 117.733 114.936ZM123.199 114.472H123.839V118.408C123.839 119.165 123.978 119.709 124.255 120.04C124.554 120.392 124.986 120.568 125.551 120.568C126.116 120.568 126.548 120.392 126.847 120.04C127.124 119.709 127.263 119.165 127.263 118.408V114.472H127.903V118.584C127.903 119.352 127.738 119.949 127.407 120.376C126.991 120.909 126.372 121.176 125.551 121.176C124.73 121.176 124.111 120.909 123.695 120.376C123.364 119.949 123.199 119.352 123.199 118.584V114.472ZM135.527 115.608V114.472H136.167V121H135.527V119.832C134.94 120.728 134.092 121.176 132.983 121.176C132.097 121.176 131.345 120.861 130.727 120.232C130.108 119.603 129.799 118.771 129.799 117.736C129.799 116.723 130.092 115.901 130.679 115.272C131.265 114.643 132.033 114.328 132.983 114.328C134.071 114.328 134.919 114.755 135.527 115.608ZM133.015 114.936C132.321 114.936 131.724 115.187 131.223 115.688C130.721 116.179 130.471 116.845 130.471 117.688C130.471 118.467 130.7 119.144 131.159 119.72C131.617 120.285 132.241 120.568 133.031 120.568C133.809 120.568 134.423 120.291 134.871 119.736C135.329 119.171 135.559 118.488 135.559 117.688C135.559 116.803 135.297 116.125 134.775 115.656C134.252 115.176 133.665 114.936 133.015 114.936ZM138.465 109.336H139.105V121H138.465V109.336ZM141.402 114.472H142.042V121H141.402V114.472ZM142.122 112.728C142.015 112.835 141.882 112.888 141.722 112.888C141.562 112.888 141.423 112.835 141.306 112.728C141.199 112.611 141.146 112.467 141.146 112.296C141.146 112.125 141.199 111.987 141.306 111.88C141.423 111.763 141.562 111.704 141.722 111.704C141.882 111.704 142.015 111.763 142.122 111.88C142.239 111.987 142.298 112.125 142.298 112.296C142.298 112.467 142.239 112.611 142.122 112.728ZM146.164 115.08H145.028V121H144.388V115.08H143.668V114.472H144.388V112.136H145.028V114.472H146.164V115.08ZM148.305 124.68L149.841 121.112L146.737 114.472H147.473L150.209 120.28L152.593 114.472H153.329L149.041 124.68H148.305ZM23.8761 133.32C24.5374 132.659 25.3534 132.328 26.3241 132.328C27.2947 132.328 28.1054 132.659 28.7561 133.32C29.4174 133.971 29.7481 134.781 29.7481 135.752C29.7481 136.723 29.4174 137.539 28.7561 138.2C28.1054 138.851 27.2947 139.176 26.3241 139.176C25.3534 139.176 24.5374 138.851 23.8761 138.2C23.2254 137.539 22.9001 136.723 22.9001 135.752C22.9001 134.781 23.2254 133.971 23.8761 133.32ZM24.3561 137.752C24.8894 138.296 25.5454 138.568 26.3241 138.568C27.1027 138.568 27.7534 138.296 28.2761 137.752C28.8094 137.208 29.0761 136.541 29.0761 135.752C29.0761 134.963 28.8094 134.296 28.2761 133.752C27.7534 133.208 27.1027 132.936 26.3241 132.936C25.5454 132.936 24.8894 133.208 24.3561 133.752C23.8334 134.296 23.5721 134.963 23.5721 135.752C23.5721 136.541 23.8334 137.208 24.3561 137.752ZM33.9006 133.08H32.2686V139H31.6286V133.08H30.8926V132.472H31.6286V129.368C31.6286 128.536 31.7939 127.96 32.1246 127.64C32.4552 127.309 32.8606 127.144 33.3406 127.144C33.4899 127.144 33.6766 127.176 33.9006 127.24V127.832C33.7726 127.779 33.6072 127.752 33.4046 127.752C33.0632 127.752 32.7859 127.875 32.5726 128.12C32.3699 128.355 32.2686 128.813 32.2686 129.496V132.472H33.9006V133.08ZM40.6088 133.08H39.4728V139H38.8328V133.08H38.1128V132.472H38.8328V130.136H39.4728V132.472H40.6088V133.08ZM41.8942 139V127.336H42.5342V133.496C42.9715 132.717 43.6382 132.328 44.5342 132.328C45.3449 132.328 45.9475 132.632 46.3422 133.24C46.5555 133.581 46.6622 134.131 46.6622 134.888V139H46.0222V134.888C46.0222 134.28 45.9369 133.843 45.7662 133.576C45.5102 133.149 45.0835 132.936 44.4862 132.936C43.7609 132.936 43.2275 133.24 42.8862 133.848C42.6515 134.264 42.5342 134.851 42.5342 135.608V139H41.8942ZM48.8161 132.472H49.4561V139H48.8161V132.472ZM49.5361 130.728C49.4294 130.835 49.2961 130.888 49.1361 130.888C48.9761 130.888 48.8374 130.835 48.7201 130.728C48.6134 130.611 48.5601 130.467 48.5601 130.296C48.5601 130.125 48.6134 129.987 48.7201 129.88C48.8374 129.763 48.9761 129.704 49.1361 129.704C49.2961 129.704 49.4294 129.763 49.5361 129.88C49.6534 129.987 49.7121 130.125 49.7121 130.296C49.7121 130.467 49.6534 130.611 49.5361 130.728ZM51.7536 139V132.472H52.3936V133.496C52.8309 132.717 53.4976 132.328 54.3936 132.328C55.2042 132.328 55.8069 132.632 56.2016 133.24C56.4149 133.581 56.5216 134.131 56.5216 134.888V139H55.8816V134.888C55.8816 134.28 55.7962 133.843 55.6256 133.576C55.3696 133.149 54.9429 132.936 54.3456 132.936C53.6202 132.936 53.0869 133.24 52.7456 133.848C52.5109 134.264 52.3936 134.851 52.3936 135.608V139H51.7536ZM64.2077 132.472H64.8477V138.808C64.8477 140.035 64.5544 140.984 63.9677 141.656C63.3917 142.339 62.5917 142.68 61.5677 142.68C60.6824 142.68 59.9357 142.429 59.3277 141.928C58.7304 141.437 58.4104 140.755 58.3677 139.88H59.0397C59.093 140.552 59.349 141.085 59.8077 141.48C60.277 141.875 60.8637 142.072 61.5677 142.072C62.0477 142.072 62.4637 141.976 62.8157 141.784C63.1784 141.592 63.445 141.373 63.6157 141.128C63.7864 140.883 63.9197 140.584 64.0157 140.232C64.1117 139.88 64.165 139.608 64.1757 139.416C64.197 139.224 64.2077 139.021 64.2077 138.808V137.88C63.589 138.744 62.7304 139.176 61.6317 139.176C60.7677 139.176 60.0157 138.872 59.3757 138.264C58.7357 137.656 58.4157 136.813 58.4157 135.736C58.4157 134.765 58.7144 133.955 59.3117 133.304C59.909 132.653 60.709 132.328 61.7117 132.328C62.7784 132.328 63.6104 132.755 64.2077 133.608V132.472ZM63.5197 133.736C63.0504 133.203 62.4264 132.936 61.6477 132.936C60.869 132.936 60.245 133.213 59.7757 133.768C59.317 134.312 59.0877 134.979 59.0877 135.768C59.0877 136.568 59.317 137.235 59.7757 137.768C60.245 138.301 60.8584 138.568 61.6157 138.568C62.405 138.568 63.0397 138.296 63.5197 137.752C63.9997 137.208 64.2397 136.525 64.2397 135.704C64.2397 134.925 63.9997 134.269 63.5197 133.736ZM70.4722 133.384L69.9282 133.672C69.7149 133.181 69.3362 132.936 68.7922 132.936C68.4509 132.936 68.1789 133.043 67.9762 133.256C67.7842 133.469 67.6882 133.709 67.6882 133.976C67.6882 134.179 67.7469 134.355 67.8642 134.504C67.9815 134.643 68.1042 134.749 68.2322 134.824C68.3602 134.888 68.5629 134.973 68.8402 135.08C68.8829 135.091 68.9842 135.133 69.1442 135.208C69.3149 135.272 69.4269 135.315 69.4802 135.336C69.5335 135.357 69.6242 135.4 69.7522 135.464C69.8909 135.517 69.9922 135.571 70.0562 135.624C70.1202 135.667 70.1949 135.725 70.2802 135.8C70.3762 135.875 70.4562 135.955 70.5202 136.04C70.7442 136.317 70.8562 136.669 70.8562 137.096C70.8562 137.789 70.6429 138.312 70.2162 138.664C69.8002 139.005 69.3042 139.176 68.7282 139.176C68.1735 139.176 67.6935 139.021 67.2882 138.712C66.8829 138.403 66.6109 137.981 66.4722 137.448L67.0962 137.256C67.2029 137.672 67.4055 137.997 67.7042 138.232C68.0135 138.456 68.3549 138.568 68.7282 138.568C69.1442 138.568 69.4909 138.435 69.7682 138.168C70.0455 137.891 70.1842 137.544 70.1842 137.128C70.1842 136.787 70.0775 136.525 69.8642 136.344C69.6509 136.152 69.2722 135.944 68.7282 135.72C67.9815 135.411 67.5069 135.123 67.3042 134.856C67.1122 134.6 67.0162 134.317 67.0162 134.008C67.0162 133.517 67.1815 133.117 67.5122 132.808C67.8429 132.488 68.2589 132.328 68.7602 132.328C69.6029 132.328 70.1735 132.68 70.4722 133.384ZM81.5343 133.608V127.336H82.1743V139H81.5343V137.832C80.9476 138.728 80.105 139.176 79.0063 139.176C78.121 139.176 77.3636 138.872 76.7343 138.264C76.1156 137.645 75.8063 136.792 75.8063 135.704C75.8063 134.595 76.121 133.757 76.7503 133.192C77.3796 132.616 78.1316 132.328 79.0063 132.328C80.0943 132.328 80.937 132.755 81.5343 133.608ZM79.0063 132.936C78.2916 132.936 77.689 133.176 77.1983 133.656C76.7183 134.136 76.4783 134.813 76.4783 135.688C76.4783 136.595 76.729 137.304 77.2303 137.816C77.7316 138.317 78.3343 138.568 79.0383 138.568C79.7316 138.568 80.3236 138.317 80.8143 137.816C81.3156 137.304 81.5663 136.595 81.5663 135.688C81.5663 134.899 81.337 134.243 80.8783 133.72C80.4196 133.197 79.7956 132.936 79.0063 132.936ZM90.3123 135.816H84.7283C84.7283 136.627 84.979 137.288 85.4803 137.8C85.9923 138.312 86.6056 138.568 87.3203 138.568C87.8323 138.568 88.2856 138.435 88.6803 138.168C89.075 137.891 89.379 137.528 89.5923 137.08L90.1363 137.4C89.891 137.869 89.5336 138.285 89.0643 138.648C88.595 139 87.9976 139.176 87.2723 139.176C86.2803 139.176 85.4963 138.856 84.9203 138.216C84.3443 137.565 84.0563 136.749 84.0563 135.768C84.0563 134.691 84.3656 133.848 84.9843 133.24C85.6136 132.632 86.3603 132.328 87.2243 132.328C88.1096 132.328 88.8456 132.653 89.4323 133.304C90.019 133.955 90.3123 134.792 90.3123 135.816ZM84.7763 135.208H89.6403C89.555 134.547 89.2883 134.003 88.8403 133.576C88.403 133.149 87.8643 132.936 87.2243 132.936C86.5736 132.936 86.0243 133.155 85.5763 133.592C85.1283 134.019 84.8616 134.557 84.7763 135.208ZM90.8389 132.472H91.5429L93.8469 137.896L96.1189 132.472H96.8229L93.8469 139.4L90.8389 132.472ZM103.937 135.816H98.3533C98.3533 136.627 98.604 137.288 99.1053 137.8C99.6173 138.312 100.231 138.568 100.945 138.568C101.457 138.568 101.911 138.435 102.305 138.168C102.7 137.891 103.004 137.528 103.217 137.08L103.761 137.4C103.516 137.869 103.159 138.285 102.689 138.648C102.22 139 101.623 139.176 100.897 139.176C99.9053 139.176 99.1213 138.856 98.5453 138.216C97.9693 137.565 97.6813 136.749 97.6813 135.768C97.6813 134.691 97.9906 133.848 98.6093 133.24C99.2386 132.632 99.9853 132.328 100.849 132.328C101.735 132.328 102.471 132.653 103.057 133.304C103.644 133.955 103.937 134.792 103.937 135.816ZM98.4013 135.208H103.265C103.18 134.547 102.913 134.003 102.465 133.576C102.028 133.149 101.489 132.936 100.849 132.936C100.199 132.936 99.6493 133.155 99.2013 133.592C98.7533 134.019 98.4866 134.557 98.4013 135.208ZM105.832 127.336H106.472V139H105.832V127.336ZM109.329 133.32C109.991 132.659 110.807 132.328 111.777 132.328C112.748 132.328 113.559 132.659 114.209 133.32C114.871 133.971 115.201 134.781 115.201 135.752C115.201 136.723 114.871 137.539 114.209 138.2C113.559 138.851 112.748 139.176 111.777 139.176C110.807 139.176 109.991 138.851 109.329 138.2C108.679 137.539 108.353 136.723 108.353 135.752C108.353 134.781 108.679 133.971 109.329 133.32ZM109.809 137.752C110.343 138.296 110.999 138.568 111.777 138.568C112.556 138.568 113.207 138.296 113.729 137.752C114.263 137.208 114.529 136.541 114.529 135.752C114.529 134.963 114.263 134.296 113.729 133.752C113.207 133.208 112.556 132.936 111.777 132.936C110.999 132.936 110.343 133.208 109.809 133.752C109.287 134.296 109.025 134.963 109.025 135.752C109.025 136.541 109.287 137.208 109.809 137.752ZM117.722 137.832V142.68H117.082V132.472H117.722V133.608C118.351 132.755 119.204 132.328 120.282 132.328C121.242 132.328 122.01 132.648 122.586 133.288C123.162 133.917 123.45 134.717 123.45 135.688C123.45 136.68 123.156 137.512 122.57 138.184C121.994 138.845 121.22 139.176 120.25 139.176C119.759 139.176 119.316 139.08 118.922 138.888C118.527 138.685 118.255 138.504 118.106 138.344C117.956 138.173 117.828 138.003 117.722 137.832ZM118.362 137.752C118.81 138.296 119.434 138.568 120.234 138.568C121.034 138.568 121.658 138.296 122.106 137.752C122.554 137.208 122.778 136.52 122.778 135.688C122.778 134.824 122.532 134.152 122.042 133.672C121.551 133.181 120.954 132.936 120.25 132.936C119.556 132.936 118.954 133.176 118.442 133.656C117.94 134.136 117.69 134.803 117.69 135.656C117.69 136.499 117.914 137.197 118.362 137.752ZM131.172 135.816H125.588C125.588 136.627 125.838 137.288 126.34 137.8C126.852 138.312 127.465 138.568 128.18 138.568C128.692 138.568 129.145 138.435 129.54 138.168C129.934 137.891 130.238 137.528 130.452 137.08L130.996 137.4C130.75 137.869 130.393 138.285 129.924 138.648C129.454 139 128.857 139.176 128.132 139.176C127.14 139.176 126.356 138.856 125.78 138.216C125.204 137.565 124.916 136.749 124.916 135.768C124.916 134.691 125.225 133.848 125.844 133.24C126.473 132.632 127.22 132.328 128.084 132.328C128.969 132.328 129.705 132.653 130.292 133.304C130.878 133.955 131.172 134.792 131.172 135.816ZM125.636 135.208H130.5C130.414 134.547 130.148 134.003 129.7 133.576C129.262 133.149 128.724 132.936 128.084 132.936C127.433 132.936 126.884 133.155 126.436 133.592C125.988 134.019 125.721 134.557 125.636 135.208ZM138.378 133.608V127.336H139.018V139H138.378V137.832C137.791 138.728 136.949 139.176 135.85 139.176C134.965 139.176 134.207 138.872 133.578 138.264C132.959 137.645 132.65 136.792 132.65 135.704C132.65 134.595 132.965 133.757 133.594 133.192C134.223 132.616 134.975 132.328 135.85 132.328C136.938 132.328 137.781 132.755 138.378 133.608ZM135.85 132.936C135.135 132.936 134.533 133.176 134.042 133.656C133.562 134.136 133.322 134.813 133.322 135.688C133.322 136.595 133.573 137.304 134.074 137.816C134.575 138.317 135.178 138.568 135.882 138.568C136.575 138.568 137.167 138.317 137.658 137.816C138.159 137.304 138.41 136.595 138.41 135.688C138.41 134.899 138.181 134.243 137.722 133.72C137.263 133.197 136.639 132.936 135.85 132.936ZM145.05 127.336H145.69V133.608C146.32 132.755 147.173 132.328 148.25 132.328C149.21 132.328 149.978 132.648 150.554 133.288C151.13 133.917 151.418 134.717 151.418 135.688C151.418 136.68 151.125 137.512 150.538 138.184C149.962 138.845 149.189 139.176 148.218 139.176C147.728 139.176 147.285 139.08 146.89 138.888C146.496 138.685 146.224 138.504 146.074 138.344C145.925 138.173 145.797 138.003 145.69 137.832V139H145.05V127.336ZM146.33 137.752C146.778 138.296 147.402 138.568 148.202 138.568C149.002 138.568 149.626 138.296 150.074 137.752C150.522 137.208 150.746 136.52 150.746 135.688C150.746 134.824 150.501 134.152 150.01 133.672C149.52 133.181 148.922 132.936 148.218 132.936C147.525 132.936 146.922 133.176 146.41 133.656C145.909 134.136 145.658 134.803 145.658 135.656C145.658 136.499 145.882 137.197 146.33 137.752ZM153.688 142.68L155.224 139.112L152.12 132.472H152.856L155.592 138.28L157.976 132.472H158.712L154.424 142.68H153.688ZM44.6989 150.472H45.3389V154.408C45.3389 155.165 45.4775 155.709 45.7549 156.04C46.0535 156.392 46.4855 156.568 47.0509 156.568C47.6162 156.568 48.0482 156.392 48.3469 156.04C48.6242 155.709 48.7629 155.165 48.7629 154.408V150.472H49.4029V154.584C49.4029 155.352 49.2375 155.949 48.9069 156.376C48.4909 156.909 47.8722 157.176 47.0509 157.176C46.2295 157.176 45.6109 156.909 45.1949 156.376C44.8642 155.949 44.6989 155.352 44.6989 154.584V150.472ZM55.0425 151.384L54.4985 151.672C54.2852 151.181 53.9065 150.936 53.3625 150.936C53.0212 150.936 52.7492 151.043 52.5465 151.256C52.3545 151.469 52.2585 151.709 52.2585 151.976C52.2585 152.179 52.3172 152.355 52.4345 152.504C52.5518 152.643 52.6745 152.749 52.8025 152.824C52.9305 152.888 53.1332 152.973 53.4105 153.08C53.4532 153.091 53.5545 153.133 53.7145 153.208C53.8852 153.272 53.9972 153.315 54.0505 153.336C54.1038 153.357 54.1945 153.4 54.3225 153.464C54.4612 153.517 54.5625 153.571 54.6265 153.624C54.6905 153.667 54.7652 153.725 54.8505 153.8C54.9465 153.875 55.0265 153.955 55.0905 154.04C55.3145 154.317 55.4265 154.669 55.4265 155.096C55.4265 155.789 55.2132 156.312 54.7865 156.664C54.3705 157.005 53.8745 157.176 53.2985 157.176C52.7438 157.176 52.2638 157.021 51.8585 156.712C51.4532 156.403 51.1812 155.981 51.0425 155.448L51.6665 155.256C51.7732 155.672 51.9758 155.997 52.2745 156.232C52.5838 156.456 52.9252 156.568 53.2985 156.568C53.7145 156.568 54.0612 156.435 54.3385 156.168C54.6158 155.891 54.7545 155.544 54.7545 155.128C54.7545 154.787 54.6478 154.525 54.4345 154.344C54.2212 154.152 53.8425 153.944 53.2985 153.72C52.5518 153.411 52.0772 153.123 51.8745 152.856C51.6825 152.6 51.5865 152.317 51.5865 152.008C51.5865 151.517 51.7518 151.117 52.0825 150.808C52.4132 150.488 52.8292 150.328 53.3305 150.328C54.1732 150.328 54.7438 150.68 55.0425 151.384ZM63.0646 151.08H61.4326V157H60.7926V151.08H60.0566V150.472H60.7926V147.368C60.7926 146.536 60.958 145.96 61.2886 145.64C61.6193 145.309 62.0246 145.144 62.5046 145.144C62.654 145.144 62.8406 145.176 63.0646 145.24V145.832C62.9366 145.779 62.7713 145.752 62.5686 145.752C62.2273 145.752 61.95 145.875 61.7366 146.12C61.534 146.355 61.4326 146.813 61.4326 147.496V150.472H63.0646V151.08ZM64.7745 151.32C65.4358 150.659 66.2518 150.328 67.2225 150.328C68.1932 150.328 69.0038 150.659 69.6545 151.32C70.3158 151.971 70.6465 152.781 70.6465 153.752C70.6465 154.723 70.3158 155.539 69.6545 156.2C69.0038 156.851 68.1932 157.176 67.2225 157.176C66.2518 157.176 65.4358 156.851 64.7745 156.2C64.1238 155.539 63.7985 154.723 63.7985 153.752C63.7985 152.781 64.1238 151.971 64.7745 151.32ZM65.2545 155.752C65.7878 156.296 66.4438 156.568 67.2225 156.568C68.0012 156.568 68.6518 156.296 69.1745 155.752C69.7078 155.208 69.9745 154.541 69.9745 153.752C69.9745 152.963 69.7078 152.296 69.1745 151.752C68.6518 151.208 68.0012 150.936 67.2225 150.936C66.4438 150.936 65.7878 151.208 65.2545 151.752C64.7318 152.296 64.4705 152.963 64.4705 153.752C64.4705 154.541 64.7318 155.208 65.2545 155.752ZM72.527 157V150.472H73.167V151.32C73.455 150.659 73.935 150.328 74.607 150.328C74.863 150.328 75.0923 150.381 75.295 150.488L74.975 151.064C74.8577 150.979 74.6977 150.936 74.495 150.936C74.1857 150.936 73.9297 151.027 73.727 151.208C73.535 151.379 73.4017 151.624 73.327 151.944C73.263 152.253 73.2203 152.515 73.199 152.728C73.1777 152.941 73.167 153.197 73.167 153.496V157H72.527ZM85.6496 151.16V152.008C85.031 151.293 84.279 150.936 83.3936 150.936C82.6043 150.936 81.9536 151.208 81.4416 151.752C80.9296 152.285 80.6736 152.957 80.6736 153.768C80.6736 154.643 80.9456 155.331 81.4896 155.832C82.0336 156.323 82.6576 156.568 83.3616 156.568C84.2256 156.568 85.015 156.179 85.7296 155.4V156.264C85.047 156.872 84.2523 157.176 83.3456 157.176C82.3643 157.176 81.559 156.856 80.9296 156.216C80.311 155.565 80.0016 154.755 80.0016 153.784C80.0016 152.792 80.311 151.971 80.9296 151.32C81.5483 150.659 82.3696 150.328 83.3936 150.328C84.2363 150.328 84.9883 150.605 85.6496 151.16ZM87.4958 150.472H88.1358V154.408C88.1358 155.165 88.2744 155.709 88.5518 156.04C88.8504 156.392 89.2824 156.568 89.8478 156.568C90.4131 156.568 90.8451 156.392 91.1438 156.04C91.4211 155.709 91.5598 155.165 91.5598 154.408V150.472H92.1998V154.584C92.1998 155.352 92.0344 155.949 91.7038 156.376C91.2878 156.909 90.6691 157.176 89.8478 157.176C89.0264 157.176 88.4078 156.909 87.9918 156.376C87.6611 155.949 87.4958 155.352 87.4958 154.584V150.472ZM97.8394 151.384L97.2954 151.672C97.082 151.181 96.7034 150.936 96.1594 150.936C95.818 150.936 95.546 151.043 95.3434 151.256C95.1514 151.469 95.0554 151.709 95.0554 151.976C95.0554 152.179 95.114 152.355 95.2314 152.504C95.3487 152.643 95.4714 152.749 95.5994 152.824C95.7274 152.888 95.93 152.973 96.2074 153.08C96.25 153.091 96.3514 153.133 96.5114 153.208C96.682 153.272 96.794 153.315 96.8474 153.336C96.9007 153.357 96.9914 153.4 97.1194 153.464C97.258 153.517 97.3594 153.571 97.4234 153.624C97.4874 153.667 97.562 153.725 97.6474 153.8C97.7434 153.875 97.8234 153.955 97.8874 154.04C98.1114 154.317 98.2234 154.669 98.2234 155.096C98.2234 155.789 98.01 156.312 97.5834 156.664C97.1674 157.005 96.6714 157.176 96.0954 157.176C95.5407 157.176 95.0607 157.021 94.6554 156.712C94.25 156.403 93.978 155.981 93.8394 155.448L94.4634 155.256C94.57 155.672 94.7727 155.997 95.0714 156.232C95.3807 156.456 95.722 156.568 96.0954 156.568C96.5114 156.568 96.858 156.435 97.1354 156.168C97.4127 155.891 97.5514 155.544 97.5514 155.128C97.5514 154.787 97.4447 154.525 97.2314 154.344C97.018 154.152 96.6394 153.944 96.0954 153.72C95.3487 153.411 94.874 153.123 94.6714 152.856C94.4794 152.6 94.3834 152.317 94.3834 152.008C94.3834 151.517 94.5487 151.117 94.8794 150.808C95.21 150.488 95.626 150.328 96.1274 150.328C96.97 150.328 97.5407 150.68 97.8394 151.384ZM101.679 151.08H100.543V157H99.9031V151.08H99.1831V150.472H99.9031V148.136H100.543V150.472H101.679V151.08ZM103.525 151.32C104.186 150.659 105.002 150.328 105.973 150.328C106.943 150.328 107.754 150.659 108.405 151.32C109.066 151.971 109.397 152.781 109.397 153.752C109.397 154.723 109.066 155.539 108.405 156.2C107.754 156.851 106.943 157.176 105.973 157.176C105.002 157.176 104.186 156.851 103.525 156.2C102.874 155.539 102.549 154.723 102.549 153.752C102.549 152.781 102.874 151.971 103.525 151.32ZM104.005 155.752C104.538 156.296 105.194 156.568 105.973 156.568C106.751 156.568 107.402 156.296 107.925 155.752C108.458 155.208 108.725 154.541 108.725 153.752C108.725 152.963 108.458 152.296 107.925 151.752C107.402 151.208 106.751 150.936 105.973 150.936C105.194 150.936 104.538 151.208 104.005 151.752C103.482 152.296 103.221 152.963 103.221 153.752C103.221 154.541 103.482 155.208 104.005 155.752ZM111.277 157V150.472H111.917V151.288C112.29 150.648 112.856 150.328 113.613 150.328C114.53 150.328 115.138 150.723 115.437 151.512C115.81 150.723 116.456 150.328 117.373 150.328C117.992 150.328 118.482 150.509 118.845 150.872C119.218 151.245 119.405 151.837 119.405 152.648V157H118.765V152.648C118.765 152.019 118.637 151.571 118.381 151.304C118.146 151.059 117.821 150.936 117.405 150.936C117.085 150.936 116.802 151 116.557 151.128C116.322 151.256 116.146 151.4 116.029 151.56C115.922 151.72 115.837 151.917 115.773 152.152C115.72 152.387 115.688 152.563 115.677 152.68C115.666 152.797 115.661 152.925 115.661 153.064V157H115.021V152.808C115.021 151.56 114.541 150.936 113.581 150.936C113.037 150.936 112.621 151.149 112.333 151.576C112.056 151.992 111.917 152.541 111.917 153.224V157H111.277ZM127.555 153.816H121.971C121.971 154.627 122.221 155.288 122.723 155.8C123.235 156.312 123.848 156.568 124.562 156.568C125.075 156.568 125.528 156.435 125.923 156.168C126.317 155.891 126.621 155.528 126.835 155.08L127.379 155.4C127.133 155.869 126.776 156.285 126.307 156.648C125.837 157 125.24 157.176 124.515 157.176C123.523 157.176 122.739 156.856 122.163 156.216C121.587 155.565 121.299 154.749 121.299 153.768C121.299 152.691 121.608 151.848 122.227 151.24C122.856 150.632 123.603 150.328 124.467 150.328C125.352 150.328 126.088 150.653 126.675 151.304C127.261 151.955 127.555 152.792 127.555 153.816ZM122.019 153.208H126.883C126.797 152.547 126.531 152.003 126.083 151.576C125.645 151.149 125.107 150.936 124.467 150.936C123.816 150.936 123.267 151.155 122.819 151.592C122.371 152.019 122.104 152.557 122.019 153.208ZM129.449 157V150.472H130.089V151.32C130.377 150.659 130.857 150.328 131.529 150.328C131.785 150.328 132.014 150.381 132.217 150.488L131.897 151.064C131.78 150.979 131.62 150.936 131.417 150.936C131.108 150.936 130.852 151.027 130.649 151.208C130.457 151.379 130.324 151.624 130.249 151.944C130.185 152.253 130.142 152.515 130.121 152.728C130.1 152.941 130.089 153.197 130.089 153.496V157H129.449ZM136.589 151.384L136.045 151.672C135.832 151.181 135.453 150.936 134.909 150.936C134.568 150.936 134.296 151.043 134.093 151.256C133.901 151.469 133.805 151.709 133.805 151.976C133.805 152.179 133.864 152.355 133.981 152.504C134.099 152.643 134.221 152.749 134.349 152.824C134.477 152.888 134.68 152.973 134.957 153.08C135 153.091 135.101 153.133 135.261 153.208C135.432 153.272 135.544 153.315 135.597 153.336C135.651 153.357 135.741 153.4 135.869 153.464C136.008 153.517 136.109 153.571 136.173 153.624C136.237 153.667 136.312 153.725 136.397 153.8C136.493 153.875 136.573 153.955 136.637 154.04C136.861 154.317 136.973 154.669 136.973 155.096C136.973 155.789 136.76 156.312 136.333 156.664C135.917 157.005 135.421 157.176 134.845 157.176C134.291 157.176 133.811 157.021 133.405 156.712C133 156.403 132.728 155.981 132.589 155.448L133.213 155.256C133.32 155.672 133.523 155.997 133.821 156.232C134.131 156.456 134.472 156.568 134.845 156.568C135.261 156.568 135.608 156.435 135.885 156.168C136.163 155.891 136.301 155.544 136.301 155.128C136.301 154.787 136.195 154.525 135.981 154.344C135.768 154.152 135.389 153.944 134.845 153.72C134.099 153.411 133.624 153.123 133.421 152.856C133.229 152.6 133.133 152.317 133.133 152.008C133.133 151.517 133.299 151.117 133.629 150.808C133.96 150.488 134.376 150.328 134.877 150.328C135.72 150.328 136.291 150.68 136.589 151.384Z" fill="black"/>
<path d="M74.524 82.722H71.77V93H69.934V82.722H67.18V80.994H74.524V82.722ZM80.4045 90.444L81.8805 91.272C81.5445 91.872 81.1185 92.334 80.6025 92.658C80.0145 93.042 79.2705 93.234 78.3705 93.234C77.3145 93.234 76.4625 92.91 75.8145 92.262C75.0705 91.518 74.6985 90.552 74.6985 89.364C74.6985 88.116 75.1005 87.078 75.9045 86.25C76.5885 85.566 77.4345 85.224 78.4425 85.224C79.4265 85.224 80.2365 85.554 80.8725 86.214C81.5805 86.946 81.9345 88.014 81.9345 89.418V89.634H76.4985C76.5465 90.27 76.7625 90.78 77.1465 91.164C77.4705 91.488 77.9205 91.65 78.4965 91.65C78.9645 91.65 79.3665 91.524 79.7025 91.272C79.9785 91.056 80.2125 90.78 80.4045 90.444ZM76.6245 88.194H80.1345C80.0625 87.774 79.8825 87.432 79.5945 87.168C79.2825 86.88 78.8865 86.736 78.4065 86.736C77.9025 86.736 77.4885 86.898 77.1645 87.222C76.9005 87.462 76.7205 87.786 76.6245 88.194ZM88.4041 86.556L87.0901 87.42C86.8261 86.988 86.4661 86.772 86.0101 86.772C85.7821 86.772 85.6021 86.838 85.4701 86.97C85.3621 87.078 85.3081 87.21 85.3081 87.366C85.3081 87.546 85.3921 87.69 85.5601 87.798C85.5961 87.822 85.6321 87.846 85.6681 87.87C85.7041 87.882 85.7701 87.912 85.8661 87.96C85.9621 88.008 86.0581 88.056 86.1541 88.104L87.0541 88.554C87.5581 88.806 87.9121 89.04 88.1161 89.256C88.4881 89.628 88.6741 90.096 88.6741 90.66C88.6741 91.332 88.4521 91.908 88.0081 92.388C87.4921 92.952 86.7841 93.234 85.8841 93.234C85.2121 93.234 84.6661 93.072 84.2461 92.748C83.7901 92.412 83.4661 91.95 83.2741 91.362L84.7141 90.678C84.8341 91.026 84.9721 91.266 85.1281 91.398C85.3201 91.59 85.5781 91.686 85.9021 91.686C86.2141 91.686 86.4541 91.602 86.6221 91.434C86.7901 91.266 86.8741 91.068 86.8741 90.84C86.8741 90.624 86.7961 90.432 86.6401 90.264C86.4721 90.096 86.2201 89.94 85.8841 89.796L85.2361 89.49C84.7321 89.25 84.3841 89.034 84.1921 88.842C83.8321 88.494 83.6521 88.068 83.6521 87.564C83.6521 86.928 83.8621 86.388 84.2821 85.944C84.7381 85.464 85.3561 85.224 86.1361 85.224C86.6761 85.224 87.1441 85.356 87.5401 85.62C87.9001 85.848 88.1881 86.16 88.4041 86.556ZM93.4324 87.042H92.0824V93H90.3184V87.042H89.5804V85.422H90.3184V82.65H92.0824V85.422H93.4324V87.042ZM94.6238 85.422H96.3878V93H94.6238V85.422ZM94.6958 83.1C94.4798 82.884 94.3718 82.614 94.3718 82.29C94.3718 81.966 94.4798 81.696 94.6958 81.48C94.9118 81.264 95.1818 81.156 95.5058 81.156C95.8298 81.156 96.0998 81.264 96.3158 81.48C96.5318 81.696 96.6398 81.966 96.6398 82.29C96.6398 82.614 96.5318 82.884 96.3158 83.1C96.0998 83.316 95.8298 83.424 95.5058 83.424C95.1818 83.424 94.9118 83.316 94.6958 83.1ZM98.596 93V85.422H100.36V86.124C100.9 85.524 101.584 85.224 102.412 85.224C103.408 85.224 104.152 85.566 104.644 86.25C104.956 86.694 105.112 87.396 105.112 88.356V93H103.348V88.788C103.348 88.332 103.312 87.96 103.24 87.672C103.168 87.384 103.054 87.186 102.898 87.078C102.742 86.958 102.598 86.886 102.466 86.862C102.346 86.826 102.178 86.808 101.962 86.808C101.71 86.808 101.506 86.832 101.35 86.88C101.206 86.916 101.044 87.012 100.864 87.168C100.696 87.312 100.57 87.57 100.486 87.942C100.402 88.302 100.36 88.776 100.36 89.364V93H98.596ZM112.894 86.25V85.422H114.658V92.388C114.658 93.372 114.574 94.17 114.406 94.782C114.238 95.406 113.908 95.922 113.416 96.33C112.756 96.87 111.916 97.14 110.896 97.14C109.864 97.14 109.036 96.828 108.412 96.204C107.8 95.592 107.428 94.806 107.296 93.846H109.006C109.09 94.326 109.276 94.722 109.564 95.034C109.888 95.382 110.344 95.556 110.932 95.556C111.52 95.556 111.982 95.388 112.318 95.052C112.702 94.68 112.894 94.044 112.894 93.144V92.154C112.33 92.874 111.562 93.234 110.59 93.234C109.57 93.234 108.736 92.892 108.088 92.208C107.332 91.416 106.954 90.414 106.954 89.202C106.954 87.99 107.326 87.012 108.07 86.268C108.754 85.572 109.612 85.224 110.644 85.224C111.568 85.224 112.318 85.566 112.894 86.25ZM110.86 86.808C110.32 86.808 109.876 86.976 109.528 87.312C109.012 87.792 108.754 88.434 108.754 89.238C108.754 90.066 109.006 90.702 109.51 91.146C109.894 91.482 110.344 91.65 110.86 91.65C111.448 91.65 111.94 91.446 112.336 91.038C112.78 90.558 113.002 89.964 113.002 89.256C113.002 88.44 112.762 87.804 112.282 87.348C111.922 86.988 111.448 86.808 110.86 86.808Z" fill="black"/>
<g clip-path="url(#clip0_202_3)">
<path d="M107.133 25H70.8672C68.7347 25 67 26.6559 67 28.6914V53.4648C67 55.5004 68.7347 57.1562 70.8672 57.1562H82.4688V59.6172H95.4453V57.1562H107.133C109.265 57.1562 111 55.5004 111 53.4648V28.6914C111 26.6559 109.265 25 107.133 25ZM82.0911 46.8699L76.9349 51.7918C76.4314 52.2724 75.6156 52.2724 75.1121 51.7918L72.5339 49.3309C72.0304 48.8503 72.0304 48.0716 72.5339 47.591C73.0375 47.1104 73.8533 47.1104 74.3568 47.591L76.0234 49.1819L80.2683 45.13C80.7718 44.6494 81.5876 44.6494 82.0911 45.13C82.5946 45.6106 82.5946 46.3893 82.0911 46.8699ZM82.0911 39.4871L76.9349 44.409C76.4314 44.8896 75.6156 44.8896 75.1121 44.409L72.5339 41.9481C72.0304 41.4674 72.0304 40.6888 72.5339 40.2082C73.0375 39.7276 73.8533 39.7276 74.3568 40.2082L76.0234 41.7991L80.2683 37.7472C80.7718 37.2665 81.5876 37.2665 82.0911 37.7472C82.5946 38.2278 82.5946 39.0065 82.0911 39.4871ZM82.0911 32.1043L76.9349 37.0262C76.4314 37.5068 75.6156 37.5068 75.1121 37.0262L72.5339 34.5653C72.0304 34.0846 72.0304 33.306 72.5339 32.8254C73.0375 32.3447 73.8533 32.3447 74.3568 32.8254L76.0234 34.4163L80.2683 30.3644C80.7718 29.8837 81.5876 29.8837 82.0911 30.3644C82.5946 30.845 82.5946 31.6237 82.0911 32.1043ZM104.555 49.6914H86.3359C85.6234 49.6914 85.0469 49.1411 85.0469 48.4609C85.0469 47.7808 85.6234 47.2305 86.3359 47.2305H104.555C105.267 47.2305 105.844 47.7808 105.844 48.4609C105.844 49.1411 105.267 49.6914 104.555 49.6914ZM104.555 42.3086H86.3359C85.6234 42.3086 85.0469 41.7582 85.0469 41.0781C85.0469 40.398 85.6234 39.8477 86.3359 39.8477H104.555C105.267 39.8477 105.844 40.398 105.844 41.0781C105.844 41.7582 105.267 42.3086 104.555 42.3086ZM104.555 34.9258H86.3359C85.6234 34.9258 85.0469 34.3754 85.0469 33.6953C85.0469 33.0152 85.6234 32.4648 86.3359 32.4648H104.555C105.267 32.4648 105.844 33.0152 105.844 33.6953C105.844 34.3754 105.267 34.9258 104.555 34.9258Z" fill="black"/>
<path d="M98.0234 62.0781H79.9766C77.1328 62.0781 74.8203 64.2855 74.8203 67H103.18C103.18 64.2855 100.867 62.0781 98.0234 62.0781Z" fill="black"/>
</g>
<defs>
<filter id="filter0_b_202_3" x="-40" y="-40" width="258.256" height="273.5" filterUnits="userSpaceOnUse" color-interpolation-filters="sRGB">
<feFlood flood-opacity="0" result="BackgroundImageFix"/>
<feGaussianBlur in="BackgroundImageFix" stdDeviation="20"/>
<feComposite in2="SourceAlpha" operator="in" result="effect1_backgroundBlur_202_3"/>
<feBlend mode="normal" in="SourceGraphic" in2="effect1_backgroundBlur_202_3" result="shape"/>
</filter>
<clipPath id="clip0_202_3">
<rect width="44" height="42" fill="white" transform="translate(67 25)"/>
</clipPath>
</defs>
</svg>
