<svg width="179" height="194" viewBox="0 0 179 194" fill="none" xmlns="http://www.w3.org/2000/svg">
<g filter="url(#filter0_b_202_6)">
<rect width="178.256" height="193.5" rx="20" fill="white" fill-opacity="0.1"/>
</g>
<path d="M17.5868 109.592H18.2908V120.264H17.5868V109.592ZM20.877 120.264V113.736H21.517V114.76C21.9543 113.981 22.621 113.592 23.517 113.592C24.3276 113.592 24.9303 113.896 25.325 114.504C25.5383 114.845 25.645 115.395 25.645 116.152V120.264H25.005V116.152C25.005 115.544 24.9196 115.107 24.749 114.84C24.493 114.413 24.0663 114.2 23.469 114.2C22.7436 114.2 22.2103 114.504 21.869 115.112C21.6343 115.528 21.517 116.115 21.517 116.872V120.264H20.877ZM27.6031 117.32V116.584H30.8031V117.32H27.6031ZM38.064 114.872V108.6H38.704V120.264H38.064V119.096C37.4773 119.992 36.6346 120.44 35.536 120.44C34.6506 120.44 33.8933 120.136 33.264 119.528C32.6453 118.909 32.336 118.056 32.336 116.968C32.336 115.859 32.6506 115.021 33.28 114.456C33.9093 113.88 34.6613 113.592 35.536 113.592C36.624 113.592 37.4666 114.019 38.064 114.872ZM35.536 114.2C34.8213 114.2 34.2186 114.44 33.728 114.92C33.248 115.4 33.008 116.077 33.008 116.952C33.008 117.859 33.2586 118.568 33.76 119.08C34.2613 119.581 34.864 119.832 35.568 119.832C36.2613 119.832 36.8533 119.581 37.344 119.08C37.8453 118.568 38.096 117.859 38.096 116.952C38.096 116.163 37.8666 115.507 37.408 114.984C36.9493 114.461 36.3253 114.2 35.536 114.2ZM46.842 117.08H41.258C41.258 117.891 41.5086 118.552 42.01 119.064C42.522 119.576 43.1353 119.832 43.85 119.832C44.362 119.832 44.8153 119.699 45.21 119.432C45.6046 119.155 45.9086 118.792 46.122 118.344L46.666 118.664C46.4206 119.133 46.0633 119.549 45.594 119.912C45.1246 120.264 44.5273 120.44 43.802 120.44C42.81 120.44 42.026 120.12 41.45 119.48C40.874 118.829 40.586 118.013 40.586 117.032C40.586 115.955 40.8953 115.112 41.514 114.504C42.1433 113.896 42.89 113.592 43.754 113.592C44.6393 113.592 45.3753 113.917 45.962 114.568C46.5486 115.219 46.842 116.056 46.842 117.08ZM41.306 116.472H46.17C46.0846 115.811 45.818 115.267 45.37 114.84C44.9326 114.413 44.394 114.2 43.754 114.2C43.1033 114.2 42.554 114.419 42.106 114.856C41.658 115.283 41.3913 115.821 41.306 116.472ZM49.3763 119.096V123.944H48.7363V113.736H49.3763V114.872C50.0057 114.019 50.859 113.592 51.9363 113.592C52.8963 113.592 53.6643 113.912 54.2403 114.552C54.8163 115.181 55.1043 115.981 55.1043 116.952C55.1043 117.944 54.811 118.776 54.2243 119.448C53.6483 120.109 52.875 120.44 51.9043 120.44C51.4137 120.44 50.971 120.344 50.5763 120.152C50.1817 119.949 49.9097 119.768 49.7603 119.608C49.611 119.437 49.483 119.267 49.3763 119.096ZM50.0163 119.016C50.4643 119.56 51.0883 119.832 51.8883 119.832C52.6883 119.832 53.3123 119.56 53.7603 119.016C54.2083 118.472 54.4323 117.784 54.4323 116.952C54.4323 116.088 54.187 115.416 53.6963 114.936C53.2057 114.445 52.6083 114.2 51.9043 114.2C51.211 114.2 50.6083 114.44 50.0963 114.92C49.595 115.4 49.3443 116.067 49.3443 116.92C49.3443 117.763 49.5683 118.461 50.0163 119.016ZM58.8103 114.344H57.6743V120.264H57.0343V114.344H56.3143V113.736H57.0343V111.4H57.6743V113.736H58.8103V114.344ZM60.0957 120.264V108.6H60.7357V114.76C61.1731 113.981 61.8397 113.592 62.7357 113.592C63.5464 113.592 64.1491 113.896 64.5437 114.504C64.7571 114.845 64.8637 115.395 64.8637 116.152V120.264H64.2237V116.152C64.2237 115.544 64.1384 115.107 63.9677 114.84C63.7117 114.413 63.2851 114.2 62.6877 114.2C61.9624 114.2 61.4291 114.504 61.0877 115.112C60.8531 115.528 60.7357 116.115 60.7357 116.872V120.264H60.0957ZM76.2202 114.872V113.736H76.8602V120.264H76.2202V119.096C75.6336 119.992 74.7856 120.44 73.6762 120.44C72.7909 120.44 72.0389 120.125 71.4202 119.496C70.8016 118.867 70.4922 118.035 70.4922 117C70.4922 115.987 70.7856 115.165 71.3722 114.536C71.9589 113.907 72.7269 113.592 73.6762 113.592C74.7642 113.592 75.6122 114.019 76.2202 114.872ZM73.7082 114.2C73.0149 114.2 72.4176 114.451 71.9162 114.952C71.4149 115.443 71.1642 116.109 71.1642 116.952C71.1642 117.731 71.3936 118.408 71.8522 118.984C72.3109 119.549 72.9349 119.832 73.7242 119.832C74.5029 119.832 75.1162 119.555 75.5642 119C76.0229 118.435 76.2522 117.752 76.2522 116.952C76.2522 116.067 75.9909 115.389 75.4682 114.92C74.9456 114.44 74.3589 114.2 73.7082 114.2ZM79.1582 120.264V113.736H79.7982V114.76C80.2356 113.981 80.9022 113.592 81.7982 113.592C82.6089 113.592 83.2116 113.896 83.6062 114.504C83.8196 114.845 83.9262 115.395 83.9262 116.152V120.264H83.2862V116.152C83.2862 115.544 83.2009 115.107 83.0302 114.84C82.7742 114.413 82.3476 114.2 81.7502 114.2C81.0249 114.2 80.4916 114.504 80.1502 115.112C79.9156 115.528 79.7982 116.115 79.7982 116.872V120.264H79.1582ZM91.5483 114.872V113.736H92.1883V120.264H91.5483V119.096C90.9617 119.992 90.1137 120.44 89.0043 120.44C88.119 120.44 87.367 120.125 86.7483 119.496C86.1297 118.867 85.8203 118.035 85.8203 117C85.8203 115.987 86.1137 115.165 86.7003 114.536C87.287 113.907 88.055 113.592 89.0043 113.592C90.0923 113.592 90.9403 114.019 91.5483 114.872ZM89.0363 114.2C88.343 114.2 87.7457 114.451 87.2443 114.952C86.743 115.443 86.4923 116.109 86.4923 116.952C86.4923 117.731 86.7217 118.408 87.1803 118.984C87.639 119.549 88.263 119.832 89.0523 119.832C89.831 119.832 90.4443 119.555 90.8923 119C91.351 118.435 91.5803 117.752 91.5803 116.952C91.5803 116.067 91.319 115.389 90.7963 114.92C90.2737 114.44 89.687 114.2 89.0363 114.2ZM94.4863 108.6H95.1263V120.264H94.4863V108.6ZM97.9678 123.944L99.5038 120.376L96.3998 113.736H97.1358L99.8718 119.544L102.256 113.736H102.992L98.7038 123.944H97.9678ZM107.439 114.648L106.895 114.936C106.682 114.445 106.303 114.2 105.759 114.2C105.418 114.2 105.146 114.307 104.943 114.52C104.751 114.733 104.655 114.973 104.655 115.24C104.655 115.443 104.714 115.619 104.831 115.768C104.949 115.907 105.071 116.013 105.199 116.088C105.327 116.152 105.53 116.237 105.807 116.344C105.85 116.355 105.951 116.397 106.111 116.472C106.282 116.536 106.394 116.579 106.447 116.6C106.501 116.621 106.591 116.664 106.719 116.728C106.858 116.781 106.959 116.835 107.023 116.888C107.087 116.931 107.162 116.989 107.247 117.064C107.343 117.139 107.423 117.219 107.487 117.304C107.711 117.581 107.823 117.933 107.823 118.36C107.823 119.053 107.61 119.576 107.183 119.928C106.767 120.269 106.271 120.44 105.695 120.44C105.141 120.44 104.661 120.285 104.255 119.976C103.85 119.667 103.578 119.245 103.439 118.712L104.063 118.52C104.17 118.936 104.373 119.261 104.671 119.496C104.981 119.72 105.322 119.832 105.695 119.832C106.111 119.832 106.458 119.699 106.735 119.432C107.013 119.155 107.151 118.808 107.151 118.392C107.151 118.051 107.045 117.789 106.831 117.608C106.618 117.416 106.239 117.208 105.695 116.984C104.949 116.675 104.474 116.387 104.271 116.12C104.079 115.864 103.983 115.581 103.983 115.272C103.983 114.781 104.149 114.381 104.479 114.072C104.81 113.752 105.226 113.592 105.727 113.592C106.57 113.592 107.141 113.944 107.439 114.648ZM109.455 113.736H110.095V120.264H109.455V113.736ZM110.175 111.992C110.068 112.099 109.935 112.152 109.775 112.152C109.615 112.152 109.476 112.099 109.359 111.992C109.252 111.875 109.199 111.731 109.199 111.56C109.199 111.389 109.252 111.251 109.359 111.144C109.476 111.027 109.615 110.968 109.775 110.968C109.935 110.968 110.068 111.027 110.175 111.144C110.292 111.251 110.351 111.389 110.351 111.56C110.351 111.731 110.292 111.875 110.175 111.992ZM115.721 114.648L115.177 114.936C114.963 114.445 114.585 114.2 114.041 114.2C113.699 114.2 113.427 114.307 113.225 114.52C113.033 114.733 112.937 114.973 112.937 115.24C112.937 115.443 112.995 115.619 113.113 115.768C113.23 115.907 113.353 116.013 113.481 116.088C113.609 116.152 113.811 116.237 114.089 116.344C114.131 116.355 114.233 116.397 114.393 116.472C114.563 116.536 114.675 116.579 114.729 116.6C114.782 116.621 114.873 116.664 115.001 116.728C115.139 116.781 115.241 116.835 115.305 116.888C115.369 116.931 115.443 116.989 115.529 117.064C115.625 117.139 115.705 117.219 115.769 117.304C115.993 117.581 116.105 117.933 116.105 118.36C116.105 119.053 115.891 119.576 115.465 119.928C115.049 120.269 114.553 120.44 113.977 120.44C113.422 120.44 112.942 120.285 112.537 119.976C112.131 119.667 111.859 119.245 111.721 118.712L112.345 118.52C112.451 118.936 112.654 119.261 112.953 119.496C113.262 119.72 113.603 119.832 113.977 119.832C114.393 119.832 114.739 119.699 115.017 119.432C115.294 119.155 115.433 118.808 115.433 118.392C115.433 118.051 115.326 117.789 115.113 117.608C114.899 117.416 114.521 117.208 113.977 116.984C113.23 116.675 112.755 116.387 112.553 116.12C112.361 115.864 112.265 115.581 112.265 115.272C112.265 114.781 112.43 114.381 112.761 114.072C113.091 113.752 113.507 113.592 114.009 113.592C114.851 113.592 115.422 113.944 115.721 114.648ZM121.471 120.264V113.736H122.111V114.552C122.484 113.912 123.049 113.592 123.807 113.592C124.724 113.592 125.332 113.987 125.631 114.776C126.004 113.987 126.649 113.592 127.567 113.592C128.185 113.592 128.676 113.773 129.039 114.136C129.412 114.509 129.599 115.101 129.599 115.912V120.264H128.959V115.912C128.959 115.283 128.831 114.835 128.575 114.568C128.34 114.323 128.015 114.2 127.599 114.2C127.279 114.2 126.996 114.264 126.751 114.392C126.516 114.52 126.34 114.664 126.223 114.824C126.116 114.984 126.031 115.181 125.967 115.416C125.913 115.651 125.881 115.827 125.871 115.944C125.86 116.061 125.855 116.189 125.855 116.328V120.264H125.215V116.072C125.215 114.824 124.735 114.2 123.775 114.2C123.231 114.2 122.815 114.413 122.527 114.84C122.249 115.256 122.111 115.805 122.111 116.488V120.264H121.471ZM137.22 114.872V113.736H137.86V120.264H137.22V119.096C136.634 119.992 135.786 120.44 134.676 120.44C133.791 120.44 133.039 120.125 132.42 119.496C131.802 118.867 131.492 118.035 131.492 117C131.492 115.987 131.786 115.165 132.372 114.536C132.959 113.907 133.727 113.592 134.676 113.592C135.764 113.592 136.612 114.019 137.22 114.872ZM134.708 114.2C134.015 114.2 133.418 114.451 132.916 114.952C132.415 115.443 132.164 116.109 132.164 116.952C132.164 117.731 132.394 118.408 132.852 118.984C133.311 119.549 133.935 119.832 134.724 119.832C135.503 119.832 136.116 119.555 136.564 119C137.023 118.435 137.252 117.752 137.252 116.952C137.252 116.067 136.991 115.389 136.468 114.92C135.946 114.44 135.359 114.2 134.708 114.2ZM140.158 108.6H140.798V116.536L143.486 113.736H144.318L141.566 116.568L145.214 120.264H144.35L141.134 117.032L140.798 117.368V120.264H140.158V108.6ZM151.842 117.08H146.258C146.258 117.891 146.509 118.552 147.01 119.064C147.522 119.576 148.135 119.832 148.85 119.832C149.362 119.832 149.815 119.699 150.21 119.432C150.605 119.155 150.909 118.792 151.122 118.344L151.666 118.664C151.421 119.133 151.063 119.549 150.594 119.912C150.125 120.264 149.527 120.44 148.802 120.44C147.81 120.44 147.026 120.12 146.45 119.48C145.874 118.829 145.586 118.013 145.586 117.032C145.586 115.955 145.895 115.112 146.514 114.504C147.143 113.896 147.89 113.592 148.754 113.592C149.639 113.592 150.375 113.917 150.962 114.568C151.549 115.219 151.842 116.056 151.842 117.08ZM146.306 116.472H151.17C151.085 115.811 150.818 115.267 150.37 114.84C149.933 114.413 149.394 114.2 148.754 114.2C148.103 114.2 147.554 114.419 147.106 114.856C146.658 115.283 146.391 115.821 146.306 116.472ZM157.064 114.648L156.52 114.936C156.307 114.445 155.928 114.2 155.384 114.2C155.043 114.2 154.771 114.307 154.568 114.52C154.376 114.733 154.28 114.973 154.28 115.24C154.28 115.443 154.339 115.619 154.456 115.768C154.574 115.907 154.696 116.013 154.824 116.088C154.952 116.152 155.155 116.237 155.432 116.344C155.475 116.355 155.576 116.397 155.736 116.472C155.907 116.536 156.019 116.579 156.072 116.6C156.126 116.621 156.216 116.664 156.344 116.728C156.483 116.781 156.584 116.835 156.648 116.888C156.712 116.931 156.787 116.989 156.872 117.064C156.968 117.139 157.048 117.219 157.112 117.304C157.336 117.581 157.448 117.933 157.448 118.36C157.448 119.053 157.235 119.576 156.808 119.928C156.392 120.269 155.896 120.44 155.32 120.44C154.766 120.44 154.286 120.285 153.88 119.976C153.475 119.667 153.203 119.245 153.064 118.712L153.688 118.52C153.795 118.936 153.998 119.261 154.296 119.496C154.606 119.72 154.947 119.832 155.32 119.832C155.736 119.832 156.083 119.699 156.36 119.432C156.638 119.155 156.776 118.808 156.776 118.392C156.776 118.051 156.67 117.789 156.456 117.608C156.243 117.416 155.864 117.208 155.32 116.984C154.574 116.675 154.099 116.387 153.896 116.12C153.704 115.864 153.608 115.581 153.608 115.272C153.608 114.781 153.774 114.381 154.104 114.072C154.435 113.752 154.851 113.592 155.352 113.592C156.195 113.592 156.766 113.944 157.064 114.648ZM26.8901 132.584C27.5514 131.923 28.3674 131.592 29.3381 131.592C30.3088 131.592 31.1194 131.923 31.7701 132.584C32.4314 133.235 32.7621 134.045 32.7621 135.016C32.7621 135.987 32.4314 136.803 31.7701 137.464C31.1194 138.115 30.3088 138.44 29.3381 138.44C28.3674 138.44 27.5514 138.115 26.8901 137.464C26.2394 136.803 25.9141 135.987 25.9141 135.016C25.9141 134.045 26.2394 133.235 26.8901 132.584ZM27.3701 137.016C27.9034 137.56 28.5594 137.832 29.3381 137.832C30.1168 137.832 30.7674 137.56 31.2901 137.016C31.8234 136.472 32.0901 135.805 32.0901 135.016C32.0901 134.227 31.8234 133.56 31.2901 133.016C30.7674 132.472 30.1168 132.2 29.3381 132.2C28.5594 132.2 27.9034 132.472 27.3701 133.016C26.8474 133.56 26.5861 134.227 26.5861 135.016C26.5861 135.805 26.8474 136.472 27.3701 137.016ZM34.6426 131.736H35.2826V135.672C35.2826 136.429 35.4213 136.973 35.6986 137.304C35.9973 137.656 36.4293 137.832 36.9946 137.832C37.5599 137.832 37.9919 137.656 38.2906 137.304C38.5679 136.973 38.7066 136.429 38.7066 135.672V131.736H39.3466V135.848C39.3466 136.616 39.1813 137.213 38.8506 137.64C38.4346 138.173 37.8159 138.44 36.9946 138.44C36.1733 138.44 35.5546 138.173 35.1386 137.64C34.8079 137.213 34.6426 136.616 34.6426 135.848V131.736ZM41.6582 138.264V131.736H42.2982V132.584C42.5862 131.923 43.0662 131.592 43.7382 131.592C43.9942 131.592 44.2236 131.645 44.4262 131.752L44.1062 132.328C43.9889 132.243 43.8289 132.2 43.6262 132.2C43.3169 132.2 43.0609 132.291 42.8582 132.472C42.6662 132.643 42.5329 132.888 42.4582 133.208C42.3942 133.517 42.3516 133.779 42.3302 133.992C42.3089 134.205 42.2982 134.461 42.2982 134.76V138.264H41.6582ZM52.8768 132.648L52.3328 132.936C52.1195 132.445 51.7408 132.2 51.1968 132.2C50.8555 132.2 50.5835 132.307 50.3808 132.52C50.1888 132.733 50.0928 132.973 50.0928 133.24C50.0928 133.443 50.1515 133.619 50.2688 133.768C50.3862 133.907 50.5088 134.013 50.6368 134.088C50.7648 134.152 50.9675 134.237 51.2448 134.344C51.2875 134.355 51.3888 134.397 51.5488 134.472C51.7195 134.536 51.8315 134.579 51.8848 134.6C51.9382 134.621 52.0288 134.664 52.1568 134.728C52.2955 134.781 52.3968 134.835 52.4608 134.888C52.5248 134.931 52.5995 134.989 52.6848 135.064C52.7808 135.139 52.8608 135.219 52.9248 135.304C53.1488 135.581 53.2608 135.933 53.2608 136.36C53.2608 137.053 53.0475 137.576 52.6208 137.928C52.2048 138.269 51.7088 138.44 51.1328 138.44C50.5782 138.44 50.0982 138.285 49.6928 137.976C49.2875 137.667 49.0155 137.245 48.8768 136.712L49.5008 136.52C49.6075 136.936 49.8102 137.261 50.1088 137.496C50.4182 137.72 50.7595 137.832 51.1328 137.832C51.5488 137.832 51.8955 137.699 52.1728 137.432C52.4502 137.155 52.5888 136.808 52.5888 136.392C52.5888 136.051 52.4822 135.789 52.2688 135.608C52.0555 135.416 51.6768 135.208 51.1328 134.984C50.3862 134.675 49.9115 134.387 49.7088 134.12C49.5168 133.864 49.4208 133.581 49.4208 133.272C49.4208 132.781 49.5862 132.381 49.9168 132.072C50.2475 131.752 50.6635 131.592 51.1648 131.592C52.0075 131.592 52.5782 131.944 52.8768 132.648ZM55.4526 132.584C56.1139 131.923 56.9299 131.592 57.9006 131.592C58.8713 131.592 59.6819 131.923 60.3326 132.584C60.9939 133.235 61.3246 134.045 61.3246 135.016C61.3246 135.987 60.9939 136.803 60.3326 137.464C59.6819 138.115 58.8713 138.44 57.9006 138.44C56.9299 138.44 56.1139 138.115 55.4526 137.464C54.8019 136.803 54.4766 135.987 54.4766 135.016C54.4766 134.045 54.8019 133.235 55.4526 132.584ZM55.9326 137.016C56.4659 137.56 57.1219 137.832 57.9006 137.832C58.6793 137.832 59.3299 137.56 59.8526 137.016C60.3859 136.472 60.6526 135.805 60.6526 135.016C60.6526 134.227 60.3859 133.56 59.8526 133.016C59.3299 132.472 58.6793 132.2 57.9006 132.2C57.1219 132.2 56.4659 132.472 55.9326 133.016C55.4099 133.56 55.1486 134.227 55.1486 135.016C55.1486 135.805 55.4099 136.472 55.9326 137.016ZM63.2051 126.6H63.8451V138.264H63.2051V126.6ZM66.1426 131.736H66.7826V135.672C66.7826 136.429 66.9213 136.973 67.1986 137.304C67.4973 137.656 67.9293 137.832 68.4946 137.832C69.0599 137.832 69.4919 137.656 69.7906 137.304C70.0679 136.973 70.2066 136.429 70.2066 135.672V131.736H70.8466V135.848C70.8466 136.616 70.6813 137.213 70.3506 137.64C69.9346 138.173 69.3159 138.44 68.4946 138.44C67.6733 138.44 67.0546 138.173 66.6386 137.64C66.3079 137.213 66.1426 136.616 66.1426 135.848V131.736ZM74.9822 132.344H73.8462V138.264H73.2062V132.344H72.4862V131.736H73.2062V129.4H73.8462V131.736H74.9822V132.344ZM76.2676 131.736H76.9076V138.264H76.2676V131.736ZM76.9876 129.992C76.8809 130.099 76.7476 130.152 76.5876 130.152C76.4276 130.152 76.2889 130.099 76.1716 129.992C76.0649 129.875 76.0116 129.731 76.0116 129.56C76.0116 129.389 76.0649 129.251 76.1716 129.144C76.2889 129.027 76.4276 128.968 76.5876 128.968C76.7476 128.968 76.8809 129.027 76.9876 129.144C77.1049 129.251 77.1636 129.389 77.1636 129.56C77.1636 129.731 77.1049 129.875 76.9876 129.992ZM79.7651 132.584C80.4264 131.923 81.2424 131.592 82.2131 131.592C83.1838 131.592 83.9944 131.923 84.6451 132.584C85.3064 133.235 85.6371 134.045 85.6371 135.016C85.6371 135.987 85.3064 136.803 84.6451 137.464C83.9944 138.115 83.1838 138.44 82.2131 138.44C81.2424 138.44 80.4264 138.115 79.7651 137.464C79.1144 136.803 78.7891 135.987 78.7891 135.016C78.7891 134.045 79.1144 133.235 79.7651 132.584ZM80.2451 137.016C80.7784 137.56 81.4344 137.832 82.2131 137.832C82.9918 137.832 83.6424 137.56 84.1651 137.016C84.6984 136.472 84.9651 135.805 84.9651 135.016C84.9651 134.227 84.6984 133.56 84.1651 133.016C83.6424 132.472 82.9918 132.2 82.2131 132.2C81.4344 132.2 80.7784 132.472 80.2451 133.016C79.7224 133.56 79.4611 134.227 79.4611 135.016C79.4611 135.805 79.7224 136.472 80.2451 137.016ZM87.5176 138.264V131.736H88.1576V132.76C88.5949 131.981 89.2616 131.592 90.1576 131.592C90.9683 131.592 91.5709 131.896 91.9656 132.504C92.1789 132.845 92.2856 133.395 92.2856 134.152V138.264H91.6456V134.152C91.6456 133.544 91.5603 133.107 91.3896 132.84C91.1336 132.413 90.7069 132.2 90.1096 132.2C89.3843 132.2 88.8509 132.504 88.5096 133.112C88.2749 133.528 88.1576 134.115 88.1576 134.872V138.264H87.5176ZM97.9237 132.648L97.3797 132.936C97.1664 132.445 96.7877 132.2 96.2437 132.2C95.9024 132.2 95.6304 132.307 95.4277 132.52C95.2357 132.733 95.1397 132.973 95.1397 133.24C95.1397 133.443 95.1984 133.619 95.3157 133.768C95.4331 133.907 95.5557 134.013 95.6837 134.088C95.8117 134.152 96.0144 134.237 96.2917 134.344C96.3344 134.355 96.4357 134.397 96.5957 134.472C96.7664 134.536 96.8784 134.579 96.9317 134.6C96.9851 134.621 97.0757 134.664 97.2037 134.728C97.3424 134.781 97.4437 134.835 97.5077 134.888C97.5717 134.931 97.6464 134.989 97.7317 135.064C97.8277 135.139 97.9077 135.219 97.9717 135.304C98.1957 135.581 98.3077 135.933 98.3077 136.36C98.3077 137.053 98.0944 137.576 97.6677 137.928C97.2517 138.269 96.7557 138.44 96.1797 138.44C95.6251 138.44 95.1451 138.285 94.7397 137.976C94.3344 137.667 94.0624 137.245 93.9237 136.712L94.5477 136.52C94.6544 136.936 94.8571 137.261 95.1557 137.496C95.4651 137.72 95.8064 137.832 96.1797 137.832C96.5957 137.832 96.9424 137.699 97.2197 137.432C97.4971 137.155 97.6357 136.808 97.6357 136.392C97.6357 136.051 97.5291 135.789 97.3157 135.608C97.1024 135.416 96.7237 135.208 96.1797 134.984C95.4331 134.675 94.9584 134.387 94.7557 134.12C94.5637 133.864 94.4677 133.581 94.4677 133.272C94.4677 132.781 94.6331 132.381 94.9637 132.072C95.2944 131.752 95.7104 131.592 96.2117 131.592C97.0544 131.592 97.6251 131.944 97.9237 132.648ZM105.946 132.344H104.314V138.264H103.674V132.344H102.938V131.736H103.674V129.128C103.674 128.328 103.791 127.747 104.026 127.384C104.474 126.733 105.151 126.408 106.058 126.408C106.965 126.408 107.642 126.733 108.09 127.384C108.325 127.747 108.442 128.328 108.442 129.128V138.264H107.802V129.128C107.802 128.488 107.711 128.019 107.53 127.72C107.242 127.251 106.751 127.016 106.058 127.016C105.365 127.016 104.874 127.251 104.586 127.72C104.405 128.008 104.314 128.477 104.314 129.128V131.736H105.946V132.344ZM116.592 135.08H111.008C111.008 135.891 111.259 136.552 111.76 137.064C112.272 137.576 112.885 137.832 113.6 137.832C114.112 137.832 114.565 137.699 114.96 137.432C115.355 137.155 115.659 136.792 115.872 136.344L116.416 136.664C116.171 137.133 115.813 137.549 115.344 137.912C114.875 138.264 114.277 138.44 113.552 138.44C112.56 138.44 111.776 138.12 111.2 137.48C110.624 136.829 110.336 136.013 110.336 135.032C110.336 133.955 110.645 133.112 111.264 132.504C111.893 131.896 112.64 131.592 113.504 131.592C114.389 131.592 115.125 131.917 115.712 132.568C116.299 133.219 116.592 134.056 116.592 135.08ZM111.056 134.472H115.92C115.835 133.811 115.568 133.267 115.12 132.84C114.683 132.413 114.144 132.2 113.504 132.2C112.853 132.2 112.304 132.419 111.856 132.856C111.408 133.283 111.141 133.821 111.056 134.472ZM117.119 138.264L119.759 134.84L117.343 131.736H118.127L120.191 134.424L122.223 131.736H123.007L120.639 134.84L123.263 138.264H122.479L120.191 135.256L117.903 138.264H117.119ZM124.549 131.736H125.189V138.264H124.549V131.736ZM125.269 129.992C125.162 130.099 125.029 130.152 124.869 130.152C124.709 130.152 124.57 130.099 124.453 129.992C124.346 129.875 124.293 129.731 124.293 129.56C124.293 129.389 124.346 129.251 124.453 129.144C124.57 129.027 124.709 128.968 124.869 128.968C125.029 128.968 125.162 129.027 125.269 129.144C125.386 129.251 125.445 129.389 125.445 129.56C125.445 129.731 125.386 129.875 125.269 129.992ZM127.486 126.6H128.126V132.872C128.756 132.019 129.609 131.592 130.686 131.592C131.646 131.592 132.414 131.912 132.99 132.552C133.566 133.181 133.854 133.981 133.854 134.952C133.854 135.944 133.561 136.776 132.974 137.448C132.398 138.109 131.625 138.44 130.654 138.44C130.164 138.44 129.721 138.344 129.326 138.152C128.932 137.949 128.66 137.768 128.51 137.608C128.361 137.437 128.233 137.267 128.126 137.096V138.264H127.486V126.6ZM128.766 137.016C129.214 137.56 129.838 137.832 130.638 137.832C131.438 137.832 132.062 137.56 132.51 137.016C132.958 136.472 133.182 135.784 133.182 134.952C133.182 134.088 132.937 133.416 132.446 132.936C131.956 132.445 131.358 132.2 130.654 132.2C129.961 132.2 129.358 132.44 128.846 132.92C128.345 133.4 128.094 134.067 128.094 134.92C128.094 135.763 128.318 136.461 128.766 137.016ZM135.736 126.6H136.376V138.264H135.736V126.6ZM144.514 135.08H138.93C138.93 135.891 139.181 136.552 139.682 137.064C140.194 137.576 140.807 137.832 141.522 137.832C142.034 137.832 142.487 137.699 142.882 137.432C143.277 137.155 143.581 136.792 143.794 136.344L144.338 136.664C144.093 137.133 143.735 137.549 143.266 137.912C142.797 138.264 142.199 138.44 141.474 138.44C140.482 138.44 139.698 138.12 139.122 137.48C138.546 136.829 138.258 136.013 138.258 135.032C138.258 133.955 138.567 133.112 139.186 132.504C139.815 131.896 140.562 131.592 141.426 131.592C142.311 131.592 143.047 131.917 143.634 132.568C144.221 133.219 144.514 134.056 144.514 135.08ZM138.978 134.472H143.842C143.757 133.811 143.49 133.267 143.042 132.84C142.605 132.413 142.066 132.2 141.426 132.2C140.775 132.2 140.226 132.419 139.778 132.856C139.33 133.283 139.063 133.821 138.978 134.472ZM145.864 140.456L146.824 137.224L147.464 137.416L146.28 140.616L145.864 140.456ZM31.0643 150.648L30.5203 150.936C30.307 150.445 29.9283 150.2 29.3843 150.2C29.043 150.2 28.771 150.307 28.5683 150.52C28.3763 150.733 28.2803 150.973 28.2803 151.24C28.2803 151.443 28.339 151.619 28.4563 151.768C28.5737 151.907 28.6963 152.013 28.8243 152.088C28.9523 152.152 29.155 152.237 29.4323 152.344C29.475 152.355 29.5763 152.397 29.7363 152.472C29.907 152.536 30.019 152.579 30.0723 152.6C30.1257 152.621 30.2163 152.664 30.3443 152.728C30.483 152.781 30.5843 152.835 30.6483 152.888C30.7123 152.931 30.787 152.989 30.8723 153.064C30.9683 153.139 31.0483 153.219 31.1123 153.304C31.3363 153.581 31.4483 153.933 31.4483 154.36C31.4483 155.053 31.235 155.576 30.8083 155.928C30.3923 156.269 29.8963 156.44 29.3203 156.44C28.7657 156.44 28.2857 156.285 27.8803 155.976C27.475 155.667 27.203 155.245 27.0643 154.712L27.6883 154.52C27.795 154.936 27.9977 155.261 28.2963 155.496C28.6057 155.72 28.947 155.832 29.3203 155.832C29.7363 155.832 30.083 155.699 30.3603 155.432C30.6377 155.155 30.7763 154.808 30.7763 154.392C30.7763 154.051 30.6697 153.789 30.4563 153.608C30.243 153.416 29.8643 153.208 29.3203 152.984C28.5737 152.675 28.099 152.387 27.8963 152.12C27.7043 151.864 27.6083 151.581 27.6083 151.272C27.6083 150.781 27.7737 150.381 28.1043 150.072C28.435 149.752 28.851 149.592 29.3523 149.592C30.195 149.592 30.7657 149.944 31.0643 150.648ZM38.3121 150.424V151.272C37.6934 150.557 36.9414 150.2 36.0561 150.2C35.2668 150.2 34.6161 150.472 34.1041 151.016C33.5921 151.549 33.3361 152.221 33.3361 153.032C33.3361 153.907 33.6081 154.595 34.1521 155.096C34.6961 155.587 35.3201 155.832 36.0241 155.832C36.8881 155.832 37.6774 155.443 38.3921 154.664V155.528C37.7094 156.136 36.9148 156.44 36.0081 156.44C35.0268 156.44 34.2214 156.12 33.5921 155.48C32.9734 154.829 32.6641 154.019 32.6641 153.048C32.6641 152.056 32.9734 151.235 33.5921 150.584C34.2108 149.923 35.0321 149.592 36.0561 149.592C36.8988 149.592 37.6508 149.869 38.3121 150.424ZM45.4702 150.872V149.736H46.1102V156.264H45.4702V155.096C44.8836 155.992 44.0356 156.44 42.9262 156.44C42.0409 156.44 41.2889 156.125 40.6702 155.496C40.0516 154.867 39.7422 154.035 39.7422 153C39.7422 151.987 40.0356 151.165 40.6222 150.536C41.2089 149.907 41.9769 149.592 42.9262 149.592C44.0142 149.592 44.8622 150.019 45.4702 150.872ZM42.9582 150.2C42.2649 150.2 41.6676 150.451 41.1662 150.952C40.6649 151.443 40.4142 152.109 40.4142 152.952C40.4142 153.731 40.6436 154.408 41.1022 154.984C41.5609 155.549 42.1849 155.832 42.9742 155.832C43.7529 155.832 44.3662 155.555 44.8142 155C45.2729 154.435 45.5022 153.752 45.5022 152.952C45.5022 152.067 45.2409 151.389 44.7182 150.92C44.1956 150.44 43.6089 150.2 42.9582 150.2ZM48.4082 144.6H49.0482V156.264H48.4082V144.6ZM56.6577 150.872V149.736H57.2977V156.264H56.6577V155.096C56.0711 155.992 55.2231 156.44 54.1137 156.44C53.2284 156.44 52.4764 156.125 51.8577 155.496C51.2391 154.867 50.9297 154.035 50.9297 153C50.9297 151.987 51.2231 151.165 51.8097 150.536C52.3964 149.907 53.1644 149.592 54.1137 149.592C55.2017 149.592 56.0497 150.019 56.6577 150.872ZM54.1457 150.2C53.4524 150.2 52.8551 150.451 52.3537 150.952C51.8524 151.443 51.6017 152.109 51.6017 152.952C51.6017 153.731 51.8311 154.408 52.2897 154.984C52.7484 155.549 53.3724 155.832 54.1617 155.832C54.9404 155.832 55.5537 155.555 56.0017 155C56.4604 154.435 56.6897 153.752 56.6897 152.952C56.6897 152.067 56.4284 151.389 55.9057 150.92C55.3831 150.44 54.7964 150.2 54.1457 150.2ZM59.5957 144.6H60.2357V150.872C60.8651 150.019 61.7184 149.592 62.7957 149.592C63.7557 149.592 64.5237 149.912 65.0997 150.552C65.6757 151.181 65.9637 151.981 65.9637 152.952C65.9637 153.944 65.6704 154.776 65.0837 155.448C64.5077 156.109 63.7344 156.44 62.7637 156.44C62.2731 156.44 61.8304 156.344 61.4357 156.152C61.0411 155.949 60.7691 155.768 60.6197 155.608C60.4704 155.437 60.3424 155.267 60.2357 155.096V156.264H59.5957V144.6ZM60.8757 155.016C61.3237 155.56 61.9477 155.832 62.7477 155.832C63.5477 155.832 64.1717 155.56 64.6197 155.016C65.0677 154.472 65.2917 153.784 65.2917 152.952C65.2917 152.088 65.0464 151.416 64.5557 150.936C64.0651 150.445 63.4677 150.2 62.7637 150.2C62.0704 150.2 61.4677 150.44 60.9557 150.92C60.4544 151.4 60.2037 152.067 60.2037 152.92C60.2037 153.763 60.4277 154.461 60.8757 155.016ZM67.8457 144.6H68.4857V156.264H67.8457V144.6ZM76.6232 153.08H71.0392C71.0392 153.891 71.2899 154.552 71.7912 155.064C72.3032 155.576 72.9166 155.832 73.6312 155.832C74.1432 155.832 74.5966 155.699 74.9912 155.432C75.3859 155.155 75.6899 154.792 75.9032 154.344L76.4472 154.664C76.2019 155.133 75.8446 155.549 75.3752 155.912C74.9059 156.264 74.3086 156.44 73.5832 156.44C72.5912 156.44 71.8072 156.12 71.2312 155.48C70.6552 154.829 70.3672 154.013 70.3672 153.032C70.3672 151.955 70.6766 151.112 71.2952 150.504C71.9246 149.896 72.6712 149.592 73.5352 149.592C74.4206 149.592 75.1566 149.917 75.7432 150.568C76.3299 151.219 76.6232 152.056 76.6232 153.08ZM71.0872 152.472H75.9512C75.8659 151.811 75.5992 151.267 75.1512 150.84C74.7139 150.413 74.1752 150.2 73.5352 150.2C72.8846 150.2 72.3352 150.419 71.8872 150.856C71.4392 151.283 71.1726 151.821 71.0872 152.472ZM87.564 150.872V149.736H88.204V156.264H87.564V155.096C86.9773 155.992 86.1293 156.44 85.02 156.44C84.1346 156.44 83.3826 156.125 82.764 155.496C82.1453 154.867 81.836 154.035 81.836 153C81.836 151.987 82.1293 151.165 82.716 150.536C83.3026 149.907 84.0706 149.592 85.02 149.592C86.108 149.592 86.956 150.019 87.564 150.872ZM85.052 150.2C84.3586 150.2 83.7613 150.451 83.26 150.952C82.7586 151.443 82.508 152.109 82.508 152.952C82.508 153.731 82.7373 154.408 83.196 154.984C83.6546 155.549 84.2786 155.832 85.068 155.832C85.8466 155.832 86.46 155.555 86.908 155C87.3666 154.435 87.596 153.752 87.596 152.952C87.596 152.067 87.3346 151.389 86.812 150.92C86.2893 150.44 85.7026 150.2 85.052 150.2ZM90.502 156.264V149.736H91.142V150.76C91.5793 149.981 92.246 149.592 93.142 149.592C93.9526 149.592 94.5553 149.896 94.95 150.504C95.1633 150.845 95.27 151.395 95.27 152.152V156.264H94.63V152.152C94.63 151.544 94.5446 151.107 94.374 150.84C94.118 150.413 93.6913 150.2 93.094 150.2C92.3686 150.2 91.8353 150.504 91.494 151.112C91.2593 151.528 91.142 152.115 91.142 152.872V156.264H90.502ZM102.892 150.872V144.6H103.532V156.264H102.892V155.096C102.305 155.992 101.463 156.44 100.364 156.44C99.4788 156.44 98.7214 156.136 98.0921 155.528C97.4734 154.909 97.1641 154.056 97.1641 152.968C97.1641 151.859 97.4788 151.021 98.1081 150.456C98.7374 149.88 99.4894 149.592 100.364 149.592C101.452 149.592 102.295 150.019 102.892 150.872ZM100.364 150.2C99.6494 150.2 99.0468 150.44 98.5561 150.92C98.0761 151.4 97.8361 152.077 97.8361 152.952C97.8361 153.859 98.0868 154.568 98.5881 155.08C99.0894 155.581 99.6921 155.832 100.396 155.832C101.089 155.832 101.681 155.581 102.172 155.08C102.673 154.568 102.924 153.859 102.924 152.952C102.924 152.163 102.695 151.507 102.236 150.984C101.777 150.461 101.153 150.2 100.364 150.2ZM109.564 156.264V149.736H110.204V150.584C110.492 149.923 110.972 149.592 111.644 149.592C111.9 149.592 112.13 149.645 112.332 149.752L112.012 150.328C111.895 150.243 111.735 150.2 111.532 150.2C111.223 150.2 110.967 150.291 110.764 150.472C110.572 150.643 110.439 150.888 110.364 151.208C110.3 151.517 110.258 151.779 110.236 151.992C110.215 152.205 110.204 152.461 110.204 152.76V156.264H109.564ZM113.937 150.584C114.598 149.923 115.414 149.592 116.385 149.592C117.356 149.592 118.166 149.923 118.817 150.584C119.478 151.235 119.809 152.045 119.809 153.016C119.809 153.987 119.478 154.803 118.817 155.464C118.166 156.115 117.356 156.44 116.385 156.44C115.414 156.44 114.598 156.115 113.937 155.464C113.286 154.803 112.961 153.987 112.961 153.016C112.961 152.045 113.286 151.235 113.937 150.584ZM114.417 155.016C114.95 155.56 115.606 155.832 116.385 155.832C117.164 155.832 117.814 155.56 118.337 155.016C118.87 154.472 119.137 153.805 119.137 153.016C119.137 152.227 118.87 151.56 118.337 151.016C117.814 150.472 117.164 150.2 116.385 150.2C115.606 150.2 114.95 150.472 114.417 151.016C113.894 151.56 113.633 152.227 113.633 153.016C113.633 153.805 113.894 154.472 114.417 155.016ZM121.689 144.6H122.329V150.872C122.959 150.019 123.812 149.592 124.889 149.592C125.849 149.592 126.617 149.912 127.193 150.552C127.769 151.181 128.057 151.981 128.057 152.952C128.057 153.944 127.764 154.776 127.177 155.448C126.601 156.109 125.828 156.44 124.857 156.44C124.367 156.44 123.924 156.344 123.529 156.152C123.135 155.949 122.863 155.768 122.713 155.608C122.564 155.437 122.436 155.267 122.329 155.096V156.264H121.689V144.6ZM122.969 155.016C123.417 155.56 124.041 155.832 124.841 155.832C125.641 155.832 126.265 155.56 126.713 155.016C127.161 154.472 127.385 153.784 127.385 152.952C127.385 152.088 127.14 151.416 126.649 150.936C126.159 150.445 125.561 150.2 124.857 150.2C124.164 150.2 123.561 150.44 123.049 150.92C122.548 151.4 122.297 152.067 122.297 152.92C122.297 153.763 122.521 154.461 122.969 155.016ZM129.939 149.736H130.579V153.672C130.579 154.429 130.718 154.973 130.995 155.304C131.294 155.656 131.726 155.832 132.291 155.832C132.857 155.832 133.289 155.656 133.587 155.304C133.865 154.973 134.003 154.429 134.003 153.672V149.736H134.643V153.848C134.643 154.616 134.478 155.213 134.147 155.64C133.731 156.173 133.113 156.44 132.291 156.44C131.47 156.44 130.851 156.173 130.435 155.64C130.105 155.213 129.939 154.616 129.939 153.848V149.736ZM140.283 150.648L139.739 150.936C139.526 150.445 139.147 150.2 138.603 150.2C138.262 150.2 137.99 150.307 137.787 150.52C137.595 150.733 137.499 150.973 137.499 151.24C137.499 151.443 137.558 151.619 137.675 151.768C137.792 151.907 137.915 152.013 138.043 152.088C138.171 152.152 138.374 152.237 138.651 152.344C138.694 152.355 138.795 152.397 138.955 152.472C139.126 152.536 139.238 152.579 139.291 152.6C139.344 152.621 139.435 152.664 139.563 152.728C139.702 152.781 139.803 152.835 139.867 152.888C139.931 152.931 140.006 152.989 140.091 153.064C140.187 153.139 140.267 153.219 140.331 153.304C140.555 153.581 140.667 153.933 140.667 154.36C140.667 155.053 140.454 155.576 140.027 155.928C139.611 156.269 139.115 156.44 138.539 156.44C137.984 156.44 137.504 156.285 137.099 155.976C136.694 155.667 136.422 155.245 136.283 154.712L136.907 154.52C137.014 154.936 137.216 155.261 137.515 155.496C137.824 155.72 138.166 155.832 138.539 155.832C138.955 155.832 139.302 155.699 139.579 155.432C139.856 155.155 139.995 154.808 139.995 154.392C139.995 154.051 139.888 153.789 139.675 153.608C139.462 153.416 139.083 153.208 138.539 152.984C137.792 152.675 137.318 152.387 137.115 152.12C136.923 151.864 136.827 151.581 136.827 151.272C136.827 150.781 136.992 150.381 137.323 150.072C137.654 149.752 138.07 149.592 138.571 149.592C139.414 149.592 139.984 149.944 140.283 150.648ZM144.123 150.344H142.987V156.264H142.347V150.344H141.627V149.736H142.347V147.4H142.987V149.736H144.123V150.344ZM145.44 156.216C145.334 156.099 145.28 155.955 145.28 155.784C145.28 155.613 145.334 155.475 145.44 155.368C145.558 155.251 145.702 155.192 145.872 155.192C146.043 155.192 146.182 155.251 146.288 155.368C146.406 155.475 146.464 155.613 146.464 155.784C146.464 155.955 146.406 156.099 146.288 156.216C146.182 156.323 146.043 156.376 145.872 156.376C145.702 156.376 145.558 156.323 145.44 156.216Z" fill="black"/>
<path d="M66.44 80.994H68.96C69.908 80.994 70.736 81.078 71.444 81.246C72.152 81.402 72.812 81.708 73.424 82.164C74.156 82.716 74.72 83.412 75.116 84.252C75.524 85.092 75.728 86.01 75.728 87.006C75.728 89.106 74.924 90.72 73.316 91.848C72.668 92.304 72.008 92.61 71.336 92.766C70.664 92.922 69.86 93 68.924 93H66.44V80.994ZM68.276 82.722V91.272H69.068C70.436 91.272 71.498 90.99 72.254 90.426C73.346 89.598 73.892 88.458 73.892 87.006C73.892 86.262 73.736 85.584 73.424 84.972C73.124 84.36 72.74 83.886 72.272 83.55C71.504 82.998 70.436 82.722 69.068 82.722H68.276ZM83.01 90.444L84.486 91.272C84.15 91.872 83.724 92.334 83.208 92.658C82.62 93.042 81.876 93.234 80.976 93.234C79.92 93.234 79.068 92.91 78.42 92.262C77.676 91.518 77.304 90.552 77.304 89.364C77.304 88.116 77.706 87.078 78.51 86.25C79.194 85.566 80.04 85.224 81.048 85.224C82.032 85.224 82.842 85.554 83.478 86.214C84.186 86.946 84.54 88.014 84.54 89.418V89.634H79.104C79.152 90.27 79.368 90.78 79.752 91.164C80.076 91.488 80.526 91.65 81.102 91.65C81.57 91.65 81.972 91.524 82.308 91.272C82.584 91.056 82.818 90.78 83.01 90.444ZM79.23 88.194H82.74C82.668 87.774 82.488 87.432 82.2 87.168C81.888 86.88 81.492 86.736 81.012 86.736C80.508 86.736 80.094 86.898 79.77 87.222C79.506 87.462 79.326 87.786 79.23 88.194ZM91.0096 86.556L89.6956 87.42C89.4316 86.988 89.0716 86.772 88.6156 86.772C88.3876 86.772 88.2076 86.838 88.0756 86.97C87.9676 87.078 87.9136 87.21 87.9136 87.366C87.9136 87.546 87.9976 87.69 88.1656 87.798C88.2016 87.822 88.2376 87.846 88.2736 87.87C88.3096 87.882 88.3756 87.912 88.4716 87.96C88.5676 88.008 88.6636 88.056 88.7596 88.104L89.6596 88.554C90.1636 88.806 90.5176 89.04 90.7216 89.256C91.0936 89.628 91.2796 90.096 91.2796 90.66C91.2796 91.332 91.0576 91.908 90.6136 92.388C90.0976 92.952 89.3896 93.234 88.4896 93.234C87.8176 93.234 87.2716 93.072 86.8516 92.748C86.3956 92.412 86.0716 91.95 85.8796 91.362L87.3196 90.678C87.4396 91.026 87.5776 91.266 87.7336 91.398C87.9256 91.59 88.1836 91.686 88.5076 91.686C88.8196 91.686 89.0596 91.602 89.2276 91.434C89.3956 91.266 89.4796 91.068 89.4796 90.84C89.4796 90.624 89.4016 90.432 89.2456 90.264C89.0776 90.096 88.8256 89.94 88.4896 89.796L87.8416 89.49C87.3376 89.25 86.9896 89.034 86.7976 88.842C86.4376 88.494 86.2576 88.068 86.2576 87.564C86.2576 86.928 86.4676 86.388 86.8876 85.944C87.3436 85.464 87.9616 85.224 88.7416 85.224C89.2816 85.224 89.7496 85.356 90.1456 85.62C90.5056 85.848 90.7936 86.16 91.0096 86.556ZM92.8699 85.422H94.6339V93H92.8699V85.422ZM92.9419 83.1C92.7259 82.884 92.6179 82.614 92.6179 82.29C92.6179 81.966 92.7259 81.696 92.9419 81.48C93.1579 81.264 93.4279 81.156 93.7519 81.156C94.0759 81.156 94.3459 81.264 94.5619 81.48C94.7779 81.696 94.8859 81.966 94.8859 82.29C94.8859 82.614 94.7779 82.884 94.5619 83.1C94.3459 83.316 94.0759 83.424 93.7519 83.424C93.4279 83.424 93.1579 83.316 92.9419 83.1ZM102.404 86.25V85.422H104.168V92.388C104.168 93.372 104.084 94.17 103.916 94.782C103.748 95.406 103.418 95.922 102.926 96.33C102.266 96.87 101.426 97.14 100.406 97.14C99.3741 97.14 98.5461 96.828 97.9221 96.204C97.3101 95.592 96.9381 94.806 96.8061 93.846H98.5161C98.6001 94.326 98.7861 94.722 99.0741 95.034C99.3981 95.382 99.8541 95.556 100.442 95.556C101.03 95.556 101.492 95.388 101.828 95.052C102.212 94.68 102.404 94.044 102.404 93.144V92.154C101.84 92.874 101.072 93.234 100.1 93.234C99.0801 93.234 98.2461 92.892 97.5981 92.208C96.8421 91.416 96.4641 90.414 96.4641 89.202C96.4641 87.99 96.8361 87.012 97.5801 86.268C98.2641 85.572 99.1221 85.224 100.154 85.224C101.078 85.224 101.828 85.566 102.404 86.25ZM100.37 86.808C99.8301 86.808 99.3861 86.976 99.0381 87.312C98.5221 87.792 98.2641 88.434 98.2641 89.238C98.2641 90.066 98.5161 90.702 99.0201 91.146C99.4041 91.482 99.8541 91.65 100.37 91.65C100.958 91.65 101.45 91.446 101.846 91.038C102.29 90.558 102.512 89.964 102.512 89.256C102.512 88.44 102.272 87.804 101.792 87.348C101.432 86.988 100.958 86.808 100.37 86.808ZM106.387 93V85.422H108.151V86.124C108.691 85.524 109.375 85.224 110.203 85.224C111.199 85.224 111.943 85.566 112.435 86.25C112.747 86.694 112.903 87.396 112.903 88.356V93H111.139V88.788C111.139 88.332 111.103 87.96 111.031 87.672C110.959 87.384 110.845 87.186 110.689 87.078C110.533 86.958 110.389 86.886 110.257 86.862C110.137 86.826 109.969 86.808 109.753 86.808C109.501 86.808 109.297 86.832 109.141 86.88C108.997 86.916 108.835 87.012 108.655 87.168C108.487 87.312 108.361 87.57 108.277 87.942C108.193 88.302 108.151 88.776 108.151 89.364V93H106.387Z" fill="black"/>
<g clip-path="url(#clip0_202_6)">
<path d="M85.2312 43.6683C82.7245 43.6683 81.3099 45.6671 81.0563 47.5242C80.8802 48.8134 80.4117 50.093 79.9679 51.0819H85.2312C87.5277 51.0819 89.396 49.419 89.396 47.3751C89.396 45.3312 87.5277 43.6683 85.2312 43.6683Z" fill="black"/>
<path d="M111.235 28H66.6249C65.8582 28 65.2366 28.5532 65.2366 29.2356V51.082H76.9419C77.3823 50.2447 78.0975 48.7082 78.3 47.226C78.5212 45.607 79.2803 44.1189 80.4376 43.0363C81.7052 41.8504 83.4077 41.1972 85.2313 41.1972C85.5643 41.1972 85.8917 41.2195 86.2123 41.2601L94.3378 34.0281C95.1243 33.328 96.1703 32.9424 97.2827 32.9424C98.3952 32.9424 99.4412 33.328 100.228 34.0282C101.014 34.7282 101.448 35.6591 101.448 36.6492C101.448 37.6393 101.014 38.5701 100.228 39.2703L92.1021 46.5022C92.1475 46.7875 92.1727 47.0787 92.1727 47.3752C92.1727 48.7649 91.654 50.0487 90.7806 51.082H112.623V29.2356C112.623 28.5531 112.001 28 111.235 28Z" fill="black"/>
<path d="M91.0197 43.9707L98.2643 37.5228C98.5266 37.2894 98.671 36.9791 98.671 36.6492C98.671 36.3192 98.5266 36.009 98.2643 35.7756C98.002 35.5421 97.6534 35.4136 97.2827 35.4136C96.9119 35.4136 96.5633 35.5421 96.3011 35.7754L89.0565 42.2234C89.8349 42.6828 90.5035 43.2778 91.0197 43.9707Z" fill="black"/>
<path d="M65.2366 58.0836C65.2366 58.766 65.8582 59.3192 66.6249 59.3192H111.235C112.001 59.3192 112.623 58.766 112.623 58.0836V53.5531H65.2366V58.0836Z" fill="black"/>
<path d="M95.8712 64.2616H94.483V61.7904H83.3767V64.2616H81.9885C81.2218 64.2616 80.6002 64.8148 80.6002 65.4972C80.6002 66.1796 81.2218 66.7328 81.9885 66.7328H95.8712C96.6378 66.7328 97.2595 66.1796 97.2595 65.4972C97.2595 64.8148 96.6378 64.2616 95.8712 64.2616Z" fill="black"/>
</g>
<defs>
<filter id="filter0_b_202_6" x="-40" y="-40" width="258.256" height="273.5" filterUnits="userSpaceOnUse" color-interpolation-filters="sRGB">
<feFlood flood-opacity="0" result="BackgroundImageFix"/>
<feGaussianBlur in="BackgroundImageFix" stdDeviation="20"/>
<feComposite in2="SourceAlpha" operator="in" result="effect1_backgroundBlur_202_6"/>
<feBlend mode="normal" in="SourceGraphic" in2="effect1_backgroundBlur_202_6" result="shape"/>
</filter>
<clipPath id="clip0_202_6">
<rect width="47.3865" height="40.3281" fill="white" transform="translate(65.2366 28.0504)"/>
</clipPath>
</defs>
</svg>
