<svg width="219" height="234" viewBox="0 0 219 234" fill="none" xmlns="http://www.w3.org/2000/svg">
<g filter="url(#filter0_bd_202_5)">
<rect x="20" y="16" width="178.256" height="193.5" rx="20" fill="white" fill-opacity="0.1"/>
</g>
<g clip-path="url(#clip0_202_5)">
<path d="M91.2085 42.5862H127.135C131.045 42.5862 134.227 45.2941 134.227 48.6225V67.7514C134.227 71.0798 131.045 73.7877 127.135 73.7877H91.2085C87.2986 73.7877 84.1168 71.0798 84.1168 67.7514V48.6225C84.1168 45.2941 87.2986 42.5862 91.2085 42.5862ZM116.041 52.1891L123.502 58.5384L116.867 64.1849C116.294 64.6729 116.294 65.4642 116.867 65.9515C117.44 66.4396 118.37 66.4396 118.943 65.9515L126.616 59.4213C127.19 58.9333 127.19 58.1428 126.616 57.6547L118.118 50.4224C117.545 49.9343 116.615 49.9343 116.041 50.4224C115.469 50.9097 115.469 51.701 116.041 52.1891ZM103.932 49.2497L111.695 67.9563C111.965 68.6077 112.804 68.9484 113.568 68.7185C114.332 68.4886 114.734 67.7748 114.464 67.1242L106.7 48.4176C106.43 47.767 105.593 47.4255 104.827 47.6554C104.063 47.8853 103.662 48.5991 103.932 49.2497ZM91.7272 58.7192L100.225 65.9515C100.799 66.4396 101.729 66.4396 102.302 65.9515C102.875 65.4642 102.875 64.6729 102.302 64.1849L94.8415 57.8355L101.476 52.1891C102.05 51.701 102.05 50.9097 101.476 50.4224C100.904 49.9343 99.9738 49.9343 99.4003 50.4224L91.7272 56.9526C91.1537 57.4406 91.1537 58.2311 91.7272 58.7192Z" fill="white"/>
</g>
<path d="M51.6197 126.328H52.3237V133C52.3237 133.565 52.3504 134.019 52.4037 134.36C52.4677 134.691 52.5904 135.005 52.7717 135.304C53.049 135.752 53.417 136.072 53.8757 136.264C54.345 136.445 54.8037 136.536 55.2517 136.536C55.6997 136.536 56.153 136.445 56.6117 136.264C57.081 136.072 57.4544 135.752 57.7317 135.304C57.913 135.005 58.0304 134.691 58.0837 134.36C58.1477 134.019 58.1797 133.565 58.1797 133V126.328H58.8837V133C58.8837 133.661 58.8464 134.189 58.7717 134.584C58.697 134.979 58.5317 135.363 58.2757 135.736C57.6144 136.696 56.6064 137.176 55.2517 137.176C53.897 137.176 52.889 136.696 52.2277 135.736C51.9717 135.363 51.8064 134.979 51.7317 134.584C51.657 134.189 51.6197 133.661 51.6197 133V126.328ZM64.8003 131.384L64.2563 131.672C64.043 131.181 63.6643 130.936 63.1203 130.936C62.779 130.936 62.507 131.043 62.3043 131.256C62.1123 131.469 62.0163 131.709 62.0163 131.976C62.0163 132.179 62.075 132.355 62.1923 132.504C62.3096 132.643 62.4323 132.749 62.5603 132.824C62.6883 132.888 62.891 132.973 63.1683 133.08C63.211 133.091 63.3123 133.133 63.4723 133.208C63.643 133.272 63.755 133.315 63.8083 133.336C63.8616 133.357 63.9523 133.4 64.0803 133.464C64.219 133.517 64.3203 133.571 64.3843 133.624C64.4483 133.667 64.523 133.725 64.6083 133.8C64.7043 133.875 64.7843 133.955 64.8483 134.04C65.0723 134.317 65.1843 134.669 65.1843 135.096C65.1843 135.789 64.971 136.312 64.5443 136.664C64.1283 137.005 63.6323 137.176 63.0563 137.176C62.5016 137.176 62.0216 137.021 61.6163 136.712C61.211 136.403 60.939 135.981 60.8003 135.448L61.4243 135.256C61.531 135.672 61.7336 135.997 62.0323 136.232C62.3416 136.456 62.683 136.568 63.0563 136.568C63.4723 136.568 63.819 136.435 64.0963 136.168C64.3736 135.891 64.5123 135.544 64.5123 135.128C64.5123 134.787 64.4056 134.525 64.1923 134.344C63.979 134.152 63.6003 133.944 63.0563 133.72C62.3096 133.411 61.835 133.123 61.6323 132.856C61.4403 132.6 61.3443 132.317 61.3443 132.008C61.3443 131.517 61.5096 131.117 61.8403 130.808C62.171 130.488 62.587 130.328 63.0883 130.328C63.931 130.328 64.5016 130.68 64.8003 131.384ZM66.8161 130.472H67.4561V137H66.8161V130.472ZM67.5361 128.728C67.4294 128.835 67.2961 128.888 67.1361 128.888C66.9761 128.888 66.8374 128.835 66.7201 128.728C66.6134 128.611 66.5601 128.467 66.5601 128.296C66.5601 128.125 66.6134 127.987 66.7201 127.88C66.8374 127.763 66.9761 127.704 67.1361 127.704C67.2961 127.704 67.4294 127.763 67.5361 127.88C67.6534 127.987 67.7121 128.125 67.7121 128.296C67.7121 128.467 67.6534 128.611 67.5361 128.728ZM69.7536 137V130.472H70.3936V131.496C70.8309 130.717 71.4976 130.328 72.3936 130.328C73.2042 130.328 73.8069 130.632 74.2016 131.24C74.4149 131.581 74.5216 132.131 74.5216 132.888V137H73.8816V132.888C73.8816 132.28 73.7962 131.843 73.6256 131.576C73.3696 131.149 72.9429 130.936 72.3456 130.936C71.6202 130.936 71.0869 131.24 70.7456 131.848C70.5109 132.264 70.3936 132.851 70.3936 133.608V137H69.7536ZM82.2077 130.472H82.8477V136.808C82.8477 138.035 82.5544 138.984 81.9677 139.656C81.3917 140.339 80.5917 140.68 79.5677 140.68C78.6824 140.68 77.9357 140.429 77.3277 139.928C76.7304 139.437 76.4104 138.755 76.3677 137.88H77.0397C77.093 138.552 77.349 139.085 77.8077 139.48C78.277 139.875 78.8637 140.072 79.5677 140.072C80.0477 140.072 80.4637 139.976 80.8157 139.784C81.1784 139.592 81.445 139.373 81.6157 139.128C81.7864 138.883 81.9197 138.584 82.0157 138.232C82.1117 137.88 82.165 137.608 82.1757 137.416C82.197 137.224 82.2077 137.021 82.2077 136.808V135.88C81.589 136.744 80.7304 137.176 79.6317 137.176C78.7677 137.176 78.0157 136.872 77.3757 136.264C76.7357 135.656 76.4157 134.813 76.4157 133.736C76.4157 132.765 76.7144 131.955 77.3117 131.304C77.909 130.653 78.709 130.328 79.7117 130.328C80.7784 130.328 81.6104 130.755 82.2077 131.608V130.472ZM81.5197 131.736C81.0504 131.203 80.4264 130.936 79.6477 130.936C78.869 130.936 78.245 131.213 77.7757 131.768C77.317 132.312 77.0877 132.979 77.0877 133.768C77.0877 134.568 77.317 135.235 77.7757 135.768C78.245 136.301 78.8584 136.568 79.6157 136.568C80.405 136.568 81.0397 136.296 81.5197 135.752C81.9997 135.208 82.2397 134.525 82.2397 133.704C82.2397 132.925 81.9997 132.269 81.5197 131.736ZM88.8786 125.336H89.5186V131.608C90.1479 130.755 91.0012 130.328 92.0786 130.328C93.0386 130.328 93.8066 130.648 94.3826 131.288C94.9586 131.917 95.2466 132.717 95.2466 133.688C95.2466 134.68 94.9532 135.512 94.3666 136.184C93.7906 136.845 93.0172 137.176 92.0466 137.176C91.5559 137.176 91.1132 137.08 90.7186 136.888C90.3239 136.685 90.0519 136.504 89.9026 136.344C89.7532 136.173 89.6252 136.003 89.5186 135.832V137H88.8786V125.336ZM90.1586 135.752C90.6066 136.296 91.2306 136.568 92.0306 136.568C92.8306 136.568 93.4546 136.296 93.9026 135.752C94.3506 135.208 94.5746 134.52 94.5746 133.688C94.5746 132.824 94.3292 132.152 93.8386 131.672C93.3479 131.181 92.7506 130.936 92.0466 130.936C91.3532 130.936 90.7506 131.176 90.2386 131.656C89.7372 132.136 89.4866 132.803 89.4866 133.656C89.4866 134.499 89.7106 135.197 90.1586 135.752ZM102.969 133.816H97.3846C97.3846 134.627 97.6352 135.288 98.1366 135.8C98.6486 136.312 99.2619 136.568 99.9766 136.568C100.489 136.568 100.942 136.435 101.337 136.168C101.731 135.891 102.035 135.528 102.249 135.08L102.793 135.4C102.547 135.869 102.19 136.285 101.721 136.648C101.251 137 100.654 137.176 99.9286 137.176C98.9366 137.176 98.1526 136.856 97.5766 136.216C97.0006 135.565 96.7126 134.749 96.7126 133.768C96.7126 132.691 97.0219 131.848 97.6406 131.24C98.2699 130.632 99.0166 130.328 99.8806 130.328C100.766 130.328 101.502 130.653 102.089 131.304C102.675 131.955 102.969 132.792 102.969 133.816ZM97.4326 133.208H102.297C102.211 132.547 101.945 132.003 101.497 131.576C101.059 131.149 100.521 130.936 99.8806 130.936C99.2299 130.936 98.6806 131.155 98.2326 131.592C97.7846 132.019 97.5179 132.557 97.4326 133.208ZM108.191 131.384L107.647 131.672C107.434 131.181 107.055 130.936 106.511 130.936C106.17 130.936 105.898 131.043 105.695 131.256C105.503 131.469 105.407 131.709 105.407 131.976C105.407 132.179 105.466 132.355 105.583 132.504C105.7 132.643 105.823 132.749 105.951 132.824C106.079 132.888 106.282 132.973 106.559 133.08C106.602 133.091 106.703 133.133 106.863 133.208C107.034 133.272 107.146 133.315 107.199 133.336C107.252 133.357 107.343 133.4 107.471 133.464C107.61 133.517 107.711 133.571 107.775 133.624C107.839 133.667 107.914 133.725 107.999 133.8C108.095 133.875 108.175 133.955 108.239 134.04C108.463 134.317 108.575 134.669 108.575 135.096C108.575 135.789 108.362 136.312 107.935 136.664C107.519 137.005 107.023 137.176 106.447 137.176C105.892 137.176 105.412 137.021 105.007 136.712C104.602 136.403 104.33 135.981 104.191 135.448L104.815 135.256C104.922 135.672 105.124 135.997 105.423 136.232C105.732 136.456 106.074 136.568 106.447 136.568C106.863 136.568 107.21 136.435 107.487 136.168C107.764 135.891 107.903 135.544 107.903 135.128C107.903 134.787 107.796 134.525 107.583 134.344C107.37 134.152 106.991 133.944 106.447 133.72C105.7 133.411 105.226 133.123 105.023 132.856C104.831 132.6 104.735 132.317 104.735 132.008C104.735 131.517 104.9 131.117 105.231 130.808C105.562 130.488 105.978 130.328 106.479 130.328C107.322 130.328 107.892 130.68 108.191 131.384ZM112.031 131.08H110.895V137H110.255V131.08H109.535V130.472H110.255V128.136H110.895V130.472H112.031V131.08ZM117.69 135.832V140.68H117.05V130.472H117.69V131.608C118.32 130.755 119.173 130.328 120.25 130.328C121.21 130.328 121.978 130.648 122.554 131.288C123.13 131.917 123.418 132.717 123.418 133.688C123.418 134.68 123.125 135.512 122.538 136.184C121.962 136.845 121.189 137.176 120.218 137.176C119.728 137.176 119.285 137.08 118.89 136.888C118.496 136.685 118.224 136.504 118.074 136.344C117.925 136.173 117.797 136.003 117.69 135.832ZM118.33 135.752C118.778 136.296 119.402 136.568 120.202 136.568C121.002 136.568 121.626 136.296 122.074 135.752C122.522 135.208 122.746 134.52 122.746 133.688C122.746 132.824 122.501 132.152 122.01 131.672C121.52 131.181 120.922 130.936 120.218 130.936C119.525 130.936 118.922 131.176 118.41 131.656C117.909 132.136 117.658 132.803 117.658 133.656C117.658 134.499 117.882 135.197 118.33 135.752ZM125.3 137V130.472H125.94V131.32C126.228 130.659 126.708 130.328 127.38 130.328C127.636 130.328 127.866 130.381 128.068 130.488L127.748 131.064C127.631 130.979 127.471 130.936 127.268 130.936C126.959 130.936 126.703 131.027 126.5 131.208C126.308 131.379 126.175 131.624 126.1 131.944C126.036 132.253 125.994 132.515 125.972 132.728C125.951 132.941 125.94 133.197 125.94 133.496V137H125.3ZM134.597 131.608V130.472H135.237V137H134.597V135.832C134.01 136.728 133.162 137.176 132.053 137.176C131.167 137.176 130.415 136.861 129.797 136.232C129.178 135.603 128.869 134.771 128.869 133.736C128.869 132.723 129.162 131.901 129.749 131.272C130.335 130.643 131.103 130.328 132.053 130.328C133.141 130.328 133.989 130.755 134.597 131.608ZM132.085 130.936C131.391 130.936 130.794 131.187 130.293 131.688C129.791 132.179 129.541 132.845 129.541 133.688C129.541 134.467 129.77 135.144 130.229 135.72C130.687 136.285 131.311 136.568 132.101 136.568C132.879 136.568 133.493 136.291 133.941 135.736C134.399 135.171 134.629 134.488 134.629 133.688C134.629 132.803 134.367 132.125 133.845 131.656C133.322 131.176 132.735 130.936 132.085 130.936ZM142.767 131.16V132.008C142.148 131.293 141.396 130.936 140.511 130.936C139.721 130.936 139.071 131.208 138.559 131.752C138.047 132.285 137.791 132.957 137.791 133.768C137.791 134.643 138.063 135.331 138.607 135.832C139.151 136.323 139.775 136.568 140.479 136.568C141.343 136.568 142.132 136.179 142.847 135.4V136.264C142.164 136.872 141.369 137.176 140.463 137.176C139.481 137.176 138.676 136.856 138.047 136.216C137.428 135.565 137.119 134.755 137.119 133.784C137.119 132.792 137.428 131.971 138.047 131.32C138.665 130.659 139.487 130.328 140.511 130.328C141.353 130.328 142.105 130.605 142.767 131.16ZM146.437 131.08H145.301V137H144.661V131.08H143.941V130.472H144.661V128.136H145.301V130.472H146.437V131.08ZM147.722 130.472H148.362V137H147.722V130.472ZM148.442 128.728C148.336 128.835 148.202 128.888 148.042 128.888C147.882 128.888 147.744 128.835 147.626 128.728C147.52 128.611 147.466 128.467 147.466 128.296C147.466 128.125 147.52 127.987 147.626 127.88C147.744 127.763 147.882 127.704 148.042 127.704C148.202 127.704 148.336 127.763 148.442 127.88C148.56 127.987 148.618 128.125 148.618 128.296C148.618 128.467 148.56 128.611 148.442 128.728ZM155.892 131.16V132.008C155.273 131.293 154.521 130.936 153.636 130.936C152.846 130.936 152.196 131.208 151.684 131.752C151.172 132.285 150.916 132.957 150.916 133.768C150.916 134.643 151.188 135.331 151.732 135.832C152.276 136.323 152.9 136.568 153.604 136.568C154.468 136.568 155.257 136.179 155.972 135.4V136.264C155.289 136.872 154.494 137.176 153.588 137.176C152.606 137.176 151.801 136.856 151.172 136.216C150.553 135.565 150.244 134.755 150.244 133.784C150.244 132.792 150.553 131.971 151.172 131.32C151.79 130.659 152.612 130.328 153.636 130.328C154.478 130.328 155.23 130.605 155.892 131.16ZM163.578 133.816H157.994C157.994 134.627 158.245 135.288 158.746 135.8C159.258 136.312 159.871 136.568 160.586 136.568C161.098 136.568 161.551 136.435 161.946 136.168C162.341 135.891 162.645 135.528 162.858 135.08L163.402 135.4C163.157 135.869 162.799 136.285 162.33 136.648C161.861 137 161.263 137.176 160.538 137.176C159.546 137.176 158.762 136.856 158.186 136.216C157.61 135.565 157.322 134.749 157.322 133.768C157.322 132.691 157.631 131.848 158.25 131.24C158.879 130.632 159.626 130.328 160.49 130.328C161.375 130.328 162.111 130.653 162.698 131.304C163.285 131.955 163.578 132.792 163.578 133.816ZM158.042 133.208H162.906C162.821 132.547 162.554 132.003 162.106 131.576C161.669 131.149 161.13 130.936 160.49 130.936C159.839 130.936 159.29 131.155 158.842 131.592C158.394 132.019 158.127 132.557 158.042 133.208ZM168.8 131.384L168.256 131.672C168.043 131.181 167.664 130.936 167.12 130.936C166.779 130.936 166.507 131.043 166.304 131.256C166.112 131.469 166.016 131.709 166.016 131.976C166.016 132.179 166.075 132.355 166.192 132.504C166.31 132.643 166.432 132.749 166.56 132.824C166.688 132.888 166.891 132.973 167.168 133.08C167.211 133.091 167.312 133.133 167.472 133.208C167.643 133.272 167.755 133.315 167.808 133.336C167.862 133.357 167.952 133.4 168.08 133.464C168.219 133.517 168.32 133.571 168.384 133.624C168.448 133.667 168.523 133.725 168.608 133.8C168.704 133.875 168.784 133.955 168.848 134.04C169.072 134.317 169.184 134.669 169.184 135.096C169.184 135.789 168.971 136.312 168.544 136.664C168.128 137.005 167.632 137.176 167.056 137.176C166.502 137.176 166.022 137.021 165.616 136.712C165.211 136.403 164.939 135.981 164.8 135.448L165.424 135.256C165.531 135.672 165.734 135.997 166.032 136.232C166.342 136.456 166.683 136.568 167.056 136.568C167.472 136.568 167.819 136.435 168.096 136.168C168.374 135.891 168.512 135.544 168.512 135.128C168.512 134.787 168.406 134.525 168.192 134.344C167.979 134.152 167.6 133.944 167.056 133.72C166.31 133.411 165.835 133.123 165.632 132.856C165.44 132.6 165.344 132.317 165.344 132.008C165.344 131.517 165.51 131.117 165.84 130.808C166.171 130.488 166.587 130.328 167.088 130.328C167.931 130.328 168.502 130.68 168.8 131.384ZM176.374 131.08H175.238V137H174.598V131.08H173.878V130.472H174.598V128.136H175.238V130.472H176.374V131.08ZM178.22 131.32C178.881 130.659 179.697 130.328 180.668 130.328C181.638 130.328 182.449 130.659 183.1 131.32C183.761 131.971 184.092 132.781 184.092 133.752C184.092 134.723 183.761 135.539 183.1 136.2C182.449 136.851 181.638 137.176 180.668 137.176C179.697 137.176 178.881 136.851 178.22 136.2C177.569 135.539 177.244 134.723 177.244 133.752C177.244 132.781 177.569 131.971 178.22 131.32ZM178.7 135.752C179.233 136.296 179.889 136.568 180.668 136.568C181.446 136.568 182.097 136.296 182.62 135.752C183.153 135.208 183.42 134.541 183.42 133.752C183.42 132.963 183.153 132.296 182.62 131.752C182.097 131.208 181.446 130.936 180.668 130.936C179.889 130.936 179.233 131.208 178.7 131.752C178.177 132.296 177.916 132.963 177.916 133.752C177.916 134.541 178.177 135.208 178.7 135.752ZM76.3629 155V148.472H77.0029V149.288C77.3763 148.648 77.9416 148.328 78.6989 148.328C79.6163 148.328 80.2243 148.723 80.5229 149.512C80.8963 148.723 81.5416 148.328 82.4589 148.328C83.0776 148.328 83.5683 148.509 83.9309 148.872C84.3043 149.245 84.4909 149.837 84.4909 150.648V155H83.8509V150.648C83.8509 150.019 83.7229 149.571 83.4669 149.304C83.2323 149.059 82.9069 148.936 82.4909 148.936C82.1709 148.936 81.8883 149 81.6429 149.128C81.4083 149.256 81.2323 149.4 81.1149 149.56C81.0083 149.72 80.9229 149.917 80.8589 150.152C80.8056 150.387 80.7736 150.563 80.7629 150.68C80.7523 150.797 80.7469 150.925 80.7469 151.064V155H80.1069V150.808C80.1069 149.56 79.6269 148.936 78.6669 148.936C78.1229 148.936 77.7069 149.149 77.4189 149.576C77.1416 149.992 77.0029 150.541 77.0029 151.224V155H76.3629ZM92.1124 149.608V148.472H92.7524V155H92.1124V153.832C91.5258 154.728 90.6778 155.176 89.5684 155.176C88.6831 155.176 87.9311 154.861 87.3124 154.232C86.6938 153.603 86.3844 152.771 86.3844 151.736C86.3844 150.723 86.6778 149.901 87.2644 149.272C87.8511 148.643 88.6191 148.328 89.5684 148.328C90.6564 148.328 91.5044 148.755 92.1124 149.608ZM89.6004 148.936C88.9071 148.936 88.3098 149.187 87.8084 149.688C87.3071 150.179 87.0564 150.845 87.0564 151.688C87.0564 152.467 87.2858 153.144 87.7444 153.72C88.2031 154.285 88.8271 154.568 89.6164 154.568C90.3951 154.568 91.0084 154.291 91.4564 153.736C91.9151 153.171 92.1444 152.488 92.1444 151.688C92.1444 150.803 91.8831 150.125 91.3604 149.656C90.8378 149.176 90.2511 148.936 89.6004 148.936ZM95.0504 143.336H95.6904V151.272L98.3784 148.472H99.2104L96.4584 151.304L100.106 155H99.2424L96.0264 151.768L95.6904 152.104V155H95.0504V143.336ZM106.734 151.816H101.15C101.15 152.627 101.401 153.288 101.902 153.8C102.414 154.312 103.028 154.568 103.742 154.568C104.254 154.568 104.708 154.435 105.102 154.168C105.497 153.891 105.801 153.528 106.014 153.08L106.558 153.4C106.313 153.869 105.956 154.285 105.486 154.648C105.017 155 104.42 155.176 103.694 155.176C102.702 155.176 101.918 154.856 101.342 154.216C100.766 153.565 100.478 152.749 100.478 151.768C100.478 150.691 100.788 149.848 101.406 149.24C102.036 148.632 102.782 148.328 103.646 148.328C104.532 148.328 105.268 148.653 105.854 149.304C106.441 149.955 106.734 150.792 106.734 151.816ZM101.198 151.208H106.062C105.977 150.547 105.71 150.003 105.262 149.576C104.825 149.149 104.286 148.936 103.646 148.936C102.996 148.936 102.446 149.155 101.998 149.592C101.55 150.019 101.284 150.557 101.198 151.208ZM112.363 155V148.472H113.003V149.32C113.291 148.659 113.771 148.328 114.443 148.328C114.699 148.328 114.928 148.381 115.131 148.488L114.811 149.064C114.694 148.979 114.534 148.936 114.331 148.936C114.022 148.936 113.766 149.027 113.563 149.208C113.371 149.379 113.238 149.624 113.163 149.944C113.099 150.253 113.056 150.515 113.035 150.728C113.014 150.941 113.003 151.197 113.003 151.496V155H112.363ZM122.359 151.816H116.775C116.775 152.627 117.026 153.288 117.527 153.8C118.039 154.312 118.653 154.568 119.367 154.568C119.879 154.568 120.333 154.435 120.727 154.168C121.122 153.891 121.426 153.528 121.639 153.08L122.183 153.4C121.938 153.869 121.581 154.285 121.111 154.648C120.642 155 120.045 155.176 119.319 155.176C118.327 155.176 117.543 154.856 116.967 154.216C116.391 153.565 116.103 152.749 116.103 151.768C116.103 150.691 116.413 149.848 117.031 149.24C117.661 148.632 118.407 148.328 119.271 148.328C120.157 148.328 120.893 148.653 121.479 149.304C122.066 149.955 122.359 150.792 122.359 151.816ZM116.823 151.208H121.687C121.602 150.547 121.335 150.003 120.887 149.576C120.45 149.149 119.911 148.936 119.271 148.936C118.621 148.936 118.071 149.155 117.623 149.592C117.175 150.019 116.909 150.557 116.823 151.208ZM124.254 143.336H124.894V155H124.254V143.336ZM127.191 148.472H127.831V155H127.191V148.472ZM127.911 146.728C127.804 146.835 127.671 146.888 127.511 146.888C127.351 146.888 127.212 146.835 127.095 146.728C126.988 146.611 126.935 146.467 126.935 146.296C126.935 146.125 126.988 145.987 127.095 145.88C127.212 145.763 127.351 145.704 127.511 145.704C127.671 145.704 127.804 145.763 127.911 145.88C128.028 145.987 128.087 146.125 128.087 146.296C128.087 146.467 128.028 146.611 127.911 146.728ZM135.441 149.608V148.472H136.081V155H135.441V153.832C134.854 154.728 134.006 155.176 132.897 155.176C132.011 155.176 131.259 154.861 130.641 154.232C130.022 153.603 129.713 152.771 129.713 151.736C129.713 150.723 130.006 149.901 130.593 149.272C131.179 148.643 131.947 148.328 132.897 148.328C133.985 148.328 134.833 148.755 135.441 149.608ZM132.929 148.936C132.235 148.936 131.638 149.187 131.137 149.688C130.635 150.179 130.385 150.845 130.385 151.688C130.385 152.467 130.614 153.144 131.073 153.72C131.531 154.285 132.155 154.568 132.945 154.568C133.723 154.568 134.337 154.291 134.785 153.736C135.243 153.171 135.473 152.488 135.473 151.688C135.473 150.803 135.211 150.125 134.689 149.656C134.166 149.176 133.579 148.936 132.929 148.936ZM138.379 143.336H139.019V149.608C139.648 148.755 140.501 148.328 141.579 148.328C142.539 148.328 143.307 148.648 143.883 149.288C144.459 149.917 144.747 150.717 144.747 151.688C144.747 152.68 144.453 153.512 143.867 154.184C143.291 154.845 142.517 155.176 141.547 155.176C141.056 155.176 140.613 155.08 140.219 154.888C139.824 154.685 139.552 154.504 139.403 154.344C139.253 154.173 139.125 154.003 139.019 153.832V155H138.379V143.336ZM139.659 153.752C140.107 154.296 140.731 154.568 141.531 154.568C142.331 154.568 142.955 154.296 143.403 153.752C143.851 153.208 144.075 152.52 144.075 151.688C144.075 150.824 143.829 150.152 143.339 149.672C142.848 149.181 142.251 148.936 141.547 148.936C140.853 148.936 140.251 149.176 139.739 149.656C139.237 150.136 138.987 150.803 138.987 151.656C138.987 152.499 139.211 153.197 139.659 153.752ZM146.629 143.336H147.269V155H146.629V143.336ZM155.406 151.816H149.822C149.822 152.627 150.073 153.288 150.574 153.8C151.086 154.312 151.699 154.568 152.414 154.568C152.926 154.568 153.379 154.435 153.774 154.168C154.169 153.891 154.473 153.528 154.686 153.08L155.23 153.4C154.985 153.869 154.627 154.285 154.158 154.648C153.689 155 153.091 155.176 152.366 155.176C151.374 155.176 150.59 154.856 150.014 154.216C149.438 153.565 149.15 152.749 149.15 151.768C149.15 150.691 149.459 149.848 150.078 149.24C150.707 148.632 151.454 148.328 152.318 148.328C153.203 148.328 153.939 148.653 154.526 149.304C155.113 149.955 155.406 150.792 155.406 151.816ZM149.87 151.208H154.734C154.649 150.547 154.382 150.003 153.934 149.576C153.497 149.149 152.958 148.936 152.318 148.936C151.667 148.936 151.118 149.155 150.67 149.592C150.222 150.019 149.955 150.557 149.87 151.208ZM156.756 157.192L157.716 153.96L158.356 154.152L157.172 157.352L156.756 157.192ZM51.8936 166.472H52.5976L54.8536 171.864L57.1096 166.072L59.3656 171.864L61.6856 166.472H62.3896L59.3656 173.4L57.1096 167.608L54.8536 173.4L51.8936 166.472ZM69.5076 169.816H63.9236C63.9236 170.627 64.1743 171.288 64.6756 171.8C65.1876 172.312 65.801 172.568 66.5156 172.568C67.0276 172.568 67.481 172.435 67.8756 172.168C68.2703 171.891 68.5743 171.528 68.7876 171.08L69.3316 171.4C69.0863 171.869 68.729 172.285 68.2596 172.648C67.7903 173 67.193 173.176 66.4676 173.176C65.4756 173.176 64.6916 172.856 64.1156 172.216C63.5396 171.565 63.2516 170.749 63.2516 169.768C63.2516 168.691 63.561 167.848 64.1796 167.24C64.809 166.632 65.5556 166.328 66.4196 166.328C67.305 166.328 68.041 166.653 68.6276 167.304C69.2143 167.955 69.5076 168.792 69.5076 169.816ZM63.9716 169.208H68.8356C68.7503 168.547 68.4836 168.003 68.0356 167.576C67.5983 167.149 67.0596 166.936 66.4196 166.936C65.769 166.936 65.2196 167.155 64.7716 167.592C64.3236 168.019 64.057 168.557 63.9716 169.208ZM71.402 161.336H72.042V173H71.402V161.336ZM74.3395 161.336H74.9795V173H74.3395V161.336ZM76.925 170.056V169.32H80.125V170.056H76.925ZM87.3859 167.608V161.336H88.0259V173H87.3859V171.832C86.7992 172.728 85.9565 173.176 84.8579 173.176C83.9725 173.176 83.2152 172.872 82.5859 172.264C81.9672 171.645 81.6579 170.792 81.6579 169.704C81.6579 168.595 81.9725 167.757 82.6019 167.192C83.2312 166.616 83.9832 166.328 84.8579 166.328C85.9459 166.328 86.7885 166.755 87.3859 167.608ZM84.8579 166.936C84.1432 166.936 83.5405 167.176 83.0499 167.656C82.5699 168.136 82.3299 168.813 82.3299 169.688C82.3299 170.595 82.5805 171.304 83.0819 171.816C83.5832 172.317 84.1859 172.568 84.8899 172.568C85.5832 172.568 86.1752 172.317 86.6659 171.816C87.1672 171.304 87.4179 170.595 87.4179 169.688C87.4179 168.899 87.1885 168.243 86.7299 167.72C86.2712 167.197 85.6472 166.936 84.8579 166.936ZM90.8839 167.32C91.5452 166.659 92.3612 166.328 93.3319 166.328C94.3025 166.328 95.1132 166.659 95.7639 167.32C96.4252 167.971 96.7559 168.781 96.7559 169.752C96.7559 170.723 96.4252 171.539 95.7639 172.2C95.1132 172.851 94.3025 173.176 93.3319 173.176C92.3612 173.176 91.5452 172.851 90.8839 172.2C90.2332 171.539 89.9079 170.723 89.9079 169.752C89.9079 168.781 90.2332 167.971 90.8839 167.32ZM91.3639 171.752C91.8972 172.296 92.5532 172.568 93.3319 172.568C94.1105 172.568 94.7612 172.296 95.2839 171.752C95.8172 171.208 96.0839 170.541 96.0839 169.752C96.0839 168.963 95.8172 168.296 95.2839 167.752C94.7612 167.208 94.1105 166.936 93.3319 166.936C92.5532 166.936 91.8972 167.208 91.3639 167.752C90.8412 168.296 90.5799 168.963 90.5799 169.752C90.5799 170.541 90.8412 171.208 91.3639 171.752ZM103.868 167.16V168.008C103.25 167.293 102.498 166.936 101.612 166.936C100.823 166.936 100.172 167.208 99.6604 167.752C99.1484 168.285 98.8924 168.957 98.8924 169.768C98.8924 170.643 99.1644 171.331 99.7084 171.832C100.252 172.323 100.876 172.568 101.58 172.568C102.444 172.568 103.234 172.179 103.948 171.4V172.264C103.266 172.872 102.471 173.176 101.564 173.176C100.583 173.176 99.7777 172.856 99.1484 172.216C98.5297 171.565 98.2204 170.755 98.2204 169.784C98.2204 168.792 98.5297 167.971 99.1484 167.32C99.767 166.659 100.588 166.328 101.612 166.328C102.455 166.328 103.207 166.605 103.868 167.16ZM105.715 166.472H106.355V170.408C106.355 171.165 106.493 171.709 106.771 172.04C107.069 172.392 107.501 172.568 108.067 172.568C108.632 172.568 109.064 172.392 109.363 172.04C109.64 171.709 109.779 171.165 109.779 170.408V166.472H110.419V170.584C110.419 171.352 110.253 171.949 109.923 172.376C109.507 172.909 108.888 173.176 108.067 173.176C107.245 173.176 106.627 172.909 106.211 172.376C105.88 171.949 105.715 171.352 105.715 170.584V166.472ZM112.73 173V166.472H113.37V167.288C113.743 166.648 114.309 166.328 115.066 166.328C115.983 166.328 116.591 166.723 116.89 167.512C117.263 166.723 117.909 166.328 118.826 166.328C119.445 166.328 119.935 166.509 120.298 166.872C120.671 167.245 120.858 167.837 120.858 168.648V173H120.218V168.648C120.218 168.019 120.09 167.571 119.834 167.304C119.599 167.059 119.274 166.936 118.858 166.936C118.538 166.936 118.255 167 118.01 167.128C117.775 167.256 117.599 167.4 117.482 167.56C117.375 167.72 117.29 167.917 117.226 168.152C117.173 168.387 117.141 168.563 117.13 168.68C117.119 168.797 117.114 168.925 117.114 169.064V173H116.474V168.808C116.474 167.56 115.994 166.936 115.034 166.936C114.49 166.936 114.074 167.149 113.786 167.576C113.509 167.992 113.37 168.541 113.37 169.224V173H112.73ZM129.008 169.816H123.424C123.424 170.627 123.674 171.288 124.176 171.8C124.688 172.312 125.301 172.568 126.016 172.568C126.528 172.568 126.981 172.435 127.376 172.168C127.77 171.891 128.074 171.528 128.288 171.08L128.832 171.4C128.586 171.869 128.229 172.285 127.76 172.648C127.29 173 126.693 173.176 125.968 173.176C124.976 173.176 124.192 172.856 123.616 172.216C123.04 171.565 122.752 170.749 122.752 169.768C122.752 168.691 123.061 167.848 123.68 167.24C124.309 166.632 125.056 166.328 125.92 166.328C126.805 166.328 127.541 166.653 128.128 167.304C128.714 167.955 129.008 168.792 129.008 169.816ZM123.472 169.208H128.336C128.25 168.547 127.984 168.003 127.536 167.576C127.098 167.149 126.56 166.936 125.92 166.936C125.269 166.936 124.72 167.155 124.272 167.592C123.824 168.019 123.557 168.557 123.472 169.208ZM130.902 173V166.472H131.542V167.496C131.979 166.717 132.646 166.328 133.542 166.328C134.353 166.328 134.955 166.632 135.35 167.24C135.563 167.581 135.67 168.131 135.67 168.888V173H135.03V168.888C135.03 168.28 134.945 167.843 134.774 167.576C134.518 167.149 134.091 166.936 133.494 166.936C132.769 166.936 132.235 167.24 131.894 167.848C131.659 168.264 131.542 168.851 131.542 169.608V173H130.902ZM139.804 167.08H138.668V173H138.028V167.08H137.308V166.472H138.028V164.136H138.668V166.472H139.804V167.08ZM146.93 169.816H141.346C141.346 170.627 141.596 171.288 142.098 171.8C142.61 172.312 143.223 172.568 143.938 172.568C144.45 172.568 144.903 172.435 145.298 172.168C145.692 171.891 145.996 171.528 146.21 171.08L146.754 171.4C146.508 171.869 146.151 172.285 145.682 172.648C145.212 173 144.615 173.176 143.89 173.176C142.898 173.176 142.114 172.856 141.538 172.216C140.962 171.565 140.674 170.749 140.674 169.768C140.674 168.691 140.983 167.848 141.602 167.24C142.231 166.632 142.978 166.328 143.842 166.328C144.727 166.328 145.463 166.653 146.05 167.304C146.636 167.955 146.93 168.792 146.93 169.816ZM141.394 169.208H146.258C146.172 168.547 145.906 168.003 145.458 167.576C145.02 167.149 144.482 166.936 143.842 166.936C143.191 166.936 142.642 167.155 142.194 167.592C141.746 168.019 141.479 168.557 141.394 169.208ZM154.136 167.608V161.336H154.776V173H154.136V171.832C153.549 172.728 152.707 173.176 151.608 173.176C150.723 173.176 149.965 172.872 149.336 172.264C148.717 171.645 148.408 170.792 148.408 169.704C148.408 168.595 148.723 167.757 149.352 167.192C149.981 166.616 150.733 166.328 151.608 166.328C152.696 166.328 153.539 166.755 154.136 167.608ZM151.608 166.936C150.893 166.936 150.291 167.176 149.8 167.656C149.32 168.136 149.08 168.813 149.08 169.688C149.08 170.595 149.331 171.304 149.832 171.816C150.333 172.317 150.936 172.568 151.64 172.568C152.333 172.568 152.925 172.317 153.416 171.816C153.917 171.304 154.168 170.595 154.168 169.688C154.168 168.899 153.939 168.243 153.48 167.72C153.021 167.197 152.397 166.936 151.608 166.936ZM166.12 167.608V166.472H166.76V173H166.12V171.832C165.534 172.728 164.686 173.176 163.576 173.176C162.691 173.176 161.939 172.861 161.32 172.232C160.702 171.603 160.392 170.771 160.392 169.736C160.392 168.723 160.686 167.901 161.272 167.272C161.859 166.643 162.627 166.328 163.576 166.328C164.664 166.328 165.512 166.755 166.12 167.608ZM163.608 166.936C162.915 166.936 162.318 167.187 161.816 167.688C161.315 168.179 161.064 168.845 161.064 169.688C161.064 170.467 161.294 171.144 161.752 171.72C162.211 172.285 162.835 172.568 163.624 172.568C164.403 172.568 165.016 172.291 165.464 171.736C165.923 171.171 166.152 170.488 166.152 169.688C166.152 168.803 165.891 168.125 165.368 167.656C164.846 167.176 164.259 166.936 163.608 166.936ZM169.058 173V166.472H169.698V167.496C170.136 166.717 170.802 166.328 171.698 166.328C172.509 166.328 173.112 166.632 173.506 167.24C173.72 167.581 173.826 168.131 173.826 168.888V173H173.186V168.888C173.186 168.28 173.101 167.843 172.93 167.576C172.674 167.149 172.248 166.936 171.65 166.936C170.925 166.936 170.392 167.24 170.05 167.848C169.816 168.264 169.698 168.851 169.698 169.608V173H169.058ZM181.448 167.608V161.336H182.088V173H181.448V171.832C180.862 172.728 180.019 173.176 178.92 173.176C178.035 173.176 177.278 172.872 176.648 172.264C176.03 171.645 175.72 170.792 175.72 169.704C175.72 168.595 176.035 167.757 176.664 167.192C177.294 166.616 178.046 166.328 178.92 166.328C180.008 166.328 180.851 166.755 181.448 167.608ZM178.92 166.936C178.206 166.936 177.603 167.176 177.112 167.656C176.632 168.136 176.392 168.813 176.392 169.688C176.392 170.595 176.643 171.304 177.144 171.816C177.646 172.317 178.248 172.568 178.952 172.568C179.646 172.568 180.238 172.317 180.728 171.816C181.23 171.304 181.48 170.595 181.48 169.688C181.48 168.899 181.251 168.243 180.792 167.72C180.334 167.197 179.71 166.936 178.92 166.936ZM53.1092 187.816H47.5252C47.5252 188.627 47.7759 189.288 48.2772 189.8C48.7892 190.312 49.4025 190.568 50.1172 190.568C50.6292 190.568 51.0825 190.435 51.4772 190.168C51.8719 189.891 52.1759 189.528 52.3892 189.08L52.9332 189.4C52.6879 189.869 52.3305 190.285 51.8612 190.648C51.3919 191 50.7945 191.176 50.0692 191.176C49.0772 191.176 48.2932 190.856 47.7172 190.216C47.1412 189.565 46.8532 188.749 46.8532 187.768C46.8532 186.691 47.1625 185.848 47.7812 185.24C48.4105 184.632 49.1572 184.328 50.0212 184.328C50.9065 184.328 51.6425 184.653 52.2292 185.304C52.8159 185.955 53.1092 186.792 53.1092 187.816ZM47.5732 187.208H52.4372C52.3519 186.547 52.0852 186.003 51.6372 185.576C51.1999 185.149 50.6612 184.936 50.0212 184.936C49.3705 184.936 48.8212 185.155 48.3732 185.592C47.9252 186.019 47.6585 186.557 47.5732 187.208ZM60.3156 185.608V184.472H60.9556V191H60.3156V189.832C59.7289 190.728 58.8809 191.176 57.7716 191.176C56.8862 191.176 56.1342 190.861 55.5156 190.232C54.8969 189.603 54.5876 188.771 54.5876 187.736C54.5876 186.723 54.8809 185.901 55.4676 185.272C56.0542 184.643 56.8222 184.328 57.7716 184.328C58.8596 184.328 59.7076 184.755 60.3156 185.608ZM57.8036 184.936C57.1102 184.936 56.5129 185.187 56.0116 185.688C55.5102 186.179 55.2596 186.845 55.2596 187.688C55.2596 188.467 55.4889 189.144 55.9476 189.72C56.4062 190.285 57.0302 190.568 57.8196 190.568C58.5982 190.568 59.2116 190.291 59.6596 189.736C60.1182 189.171 60.3476 188.488 60.3476 187.688C60.3476 186.803 60.0862 186.125 59.5636 185.656C59.0409 185.176 58.4542 184.936 57.8036 184.936ZM66.5816 185.384L66.0376 185.672C65.8242 185.181 65.4456 184.936 64.9016 184.936C64.5602 184.936 64.2882 185.043 64.0856 185.256C63.8936 185.469 63.7976 185.709 63.7976 185.976C63.7976 186.179 63.8562 186.355 63.9736 186.504C64.0909 186.643 64.2136 186.749 64.3416 186.824C64.4696 186.888 64.6722 186.973 64.9496 187.08C64.9922 187.091 65.0936 187.133 65.2536 187.208C65.4242 187.272 65.5362 187.315 65.5896 187.336C65.6429 187.357 65.7336 187.4 65.8616 187.464C66.0002 187.517 66.1016 187.571 66.1656 187.624C66.2296 187.667 66.3042 187.725 66.3896 187.8C66.4856 187.875 66.5656 187.955 66.6296 188.04C66.8536 188.317 66.9656 188.669 66.9656 189.096C66.9656 189.789 66.7522 190.312 66.3256 190.664C65.9096 191.005 65.4136 191.176 64.8376 191.176C64.2829 191.176 63.8029 191.021 63.3976 190.712C62.9922 190.403 62.7202 189.981 62.5816 189.448L63.2056 189.256C63.3122 189.672 63.5149 189.997 63.8136 190.232C64.1229 190.456 64.4642 190.568 64.8376 190.568C65.2536 190.568 65.6002 190.435 65.8776 190.168C66.1549 189.891 66.2936 189.544 66.2936 189.128C66.2936 188.787 66.1869 188.525 65.9736 188.344C65.7602 188.152 65.3816 187.944 64.8376 187.72C64.0909 187.411 63.6162 187.123 63.4136 186.856C63.2216 186.6 63.1256 186.317 63.1256 186.008C63.1256 185.517 63.2909 185.117 63.6216 184.808C63.9522 184.488 64.3682 184.328 64.8696 184.328C65.7122 184.328 66.2829 184.68 66.5816 185.384ZM69.1413 194.68L70.6773 191.112L67.5733 184.472H68.3093L71.0453 190.28L73.4293 184.472H74.1653L69.8773 194.68H69.1413ZM80.9994 185.08H79.8634V191H79.2234V185.08H78.5034V184.472H79.2234V182.136H79.8634V184.472H80.9994V185.08ZM82.8448 185.32C83.5061 184.659 84.3221 184.328 85.2928 184.328C86.2635 184.328 87.0741 184.659 87.7248 185.32C88.3861 185.971 88.7168 186.781 88.7168 187.752C88.7168 188.723 88.3861 189.539 87.7248 190.2C87.0741 190.851 86.2635 191.176 85.2928 191.176C84.3221 191.176 83.5061 190.851 82.8448 190.2C82.1941 189.539 81.8688 188.723 81.8688 187.752C81.8688 186.781 82.1941 185.971 82.8448 185.32ZM83.3248 189.752C83.8581 190.296 84.5141 190.568 85.2928 190.568C86.0715 190.568 86.7221 190.296 87.2448 189.752C87.7781 189.208 88.0448 188.541 88.0448 187.752C88.0448 186.963 87.7781 186.296 87.2448 185.752C86.7221 185.208 86.0715 184.936 85.2928 184.936C84.5141 184.936 83.8581 185.208 83.3248 185.752C82.8021 186.296 82.5408 186.963 82.5408 187.752C82.5408 188.541 82.8021 189.208 83.3248 189.752ZM94.3317 191V184.472H94.9717V185.288C95.345 184.648 95.9104 184.328 96.6677 184.328C97.585 184.328 98.193 184.723 98.4917 185.512C98.865 184.723 99.5104 184.328 100.428 184.328C101.046 184.328 101.537 184.509 101.9 184.872C102.273 185.245 102.46 185.837 102.46 186.648V191H101.82V186.648C101.82 186.019 101.692 185.571 101.436 185.304C101.201 185.059 100.876 184.936 100.46 184.936C100.14 184.936 99.857 185 99.6117 185.128C99.377 185.256 99.201 185.4 99.0837 185.56C98.977 185.72 98.8917 185.917 98.8277 186.152C98.7744 186.387 98.7424 186.563 98.7317 186.68C98.721 186.797 98.7157 186.925 98.7157 187.064V191H98.0757V186.808C98.0757 185.56 97.5957 184.936 96.6357 184.936C96.0917 184.936 95.6757 185.149 95.3877 185.576C95.1104 185.992 94.9717 186.541 94.9717 187.224V191H94.3317ZM110.081 185.608V184.472H110.721V191H110.081V189.832C109.495 190.728 108.647 191.176 107.537 191.176C106.652 191.176 105.9 190.861 105.281 190.232C104.663 189.603 104.353 188.771 104.353 187.736C104.353 186.723 104.647 185.901 105.233 185.272C105.82 184.643 106.588 184.328 107.537 184.328C108.625 184.328 109.473 184.755 110.081 185.608ZM107.569 184.936C106.876 184.936 106.279 185.187 105.777 185.688C105.276 186.179 105.025 186.845 105.025 187.688C105.025 188.467 105.255 189.144 105.713 189.72C106.172 190.285 106.796 190.568 107.585 190.568C108.364 190.568 108.977 190.291 109.425 189.736C109.884 189.171 110.113 188.488 110.113 187.688C110.113 186.803 109.852 186.125 109.329 185.656C108.807 185.176 108.22 184.936 107.569 184.936ZM113.019 184.472H113.659V191H113.019V184.472ZM113.739 182.728C113.633 182.835 113.499 182.888 113.339 182.888C113.179 182.888 113.041 182.835 112.923 182.728C112.817 182.611 112.763 182.467 112.763 182.296C112.763 182.125 112.817 181.987 112.923 181.88C113.041 181.763 113.179 181.704 113.339 181.704C113.499 181.704 113.633 181.763 113.739 181.88C113.857 181.987 113.915 182.125 113.915 182.296C113.915 182.467 113.857 182.611 113.739 182.728ZM115.957 191V184.472H116.597V185.496C117.034 184.717 117.701 184.328 118.597 184.328C119.407 184.328 120.01 184.632 120.405 185.24C120.618 185.581 120.725 186.131 120.725 186.888V191H120.085V186.888C120.085 186.28 119.999 185.843 119.829 185.576C119.573 185.149 119.146 184.936 118.549 184.936C117.823 184.936 117.29 185.24 116.949 185.848C116.714 186.264 116.597 186.851 116.597 187.608V191H115.957ZM124.859 185.08H123.723V191H123.083V185.08H122.363V184.472H123.083V182.136H123.723V184.472H124.859V185.08ZM131.456 185.608V184.472H132.096V191H131.456V189.832C130.87 190.728 130.022 191.176 128.912 191.176C128.027 191.176 127.275 190.861 126.656 190.232C126.038 189.603 125.728 188.771 125.728 187.736C125.728 186.723 126.022 185.901 126.608 185.272C127.195 184.643 127.963 184.328 128.912 184.328C130 184.328 130.848 184.755 131.456 185.608ZM128.944 184.936C128.251 184.936 127.654 185.187 127.152 185.688C126.651 186.179 126.4 186.845 126.4 187.688C126.4 188.467 126.63 189.144 127.088 189.72C127.547 190.285 128.171 190.568 128.96 190.568C129.739 190.568 130.352 190.291 130.8 189.736C131.259 189.171 131.488 188.488 131.488 187.688C131.488 186.803 131.227 186.125 130.704 185.656C130.182 185.176 129.595 184.936 128.944 184.936ZM134.394 184.472H135.034V191H134.394V184.472ZM135.114 182.728C135.008 182.835 134.874 182.888 134.714 182.888C134.554 182.888 134.416 182.835 134.298 182.728C134.192 182.611 134.138 182.467 134.138 182.296C134.138 182.125 134.192 181.987 134.298 181.88C134.416 181.763 134.554 181.704 134.714 181.704C134.874 181.704 135.008 181.763 135.114 181.88C135.232 181.987 135.29 182.125 135.29 182.296C135.29 182.467 135.232 182.611 135.114 182.728ZM137.332 191V184.472H137.972V185.496C138.409 184.717 139.076 184.328 139.972 184.328C140.782 184.328 141.385 184.632 141.78 185.24C141.993 185.581 142.1 186.131 142.1 186.888V191H141.46V186.888C141.46 186.28 141.374 185.843 141.204 185.576C140.948 185.149 140.521 184.936 139.924 184.936C139.198 184.936 138.665 185.24 138.324 185.848C138.089 186.264 137.972 186.851 137.972 187.608V191H137.332ZM151.472 185.384L150.928 185.672C150.715 185.181 150.336 184.936 149.792 184.936C149.451 184.936 149.179 185.043 148.976 185.256C148.784 185.469 148.688 185.709 148.688 185.976C148.688 186.179 148.747 186.355 148.864 186.504C148.982 186.643 149.104 186.749 149.232 186.824C149.36 186.888 149.563 186.973 149.84 187.08C149.883 187.091 149.984 187.133 150.144 187.208C150.315 187.272 150.427 187.315 150.48 187.336C150.534 187.357 150.624 187.4 150.752 187.464C150.891 187.517 150.992 187.571 151.056 187.624C151.12 187.667 151.195 187.725 151.28 187.8C151.376 187.875 151.456 187.955 151.52 188.04C151.744 188.317 151.856 188.669 151.856 189.096C151.856 189.789 151.643 190.312 151.216 190.664C150.8 191.005 150.304 191.176 149.728 191.176C149.174 191.176 148.694 191.021 148.288 190.712C147.883 190.403 147.611 189.981 147.472 189.448L148.096 189.256C148.203 189.672 148.406 189.997 148.704 190.232C149.014 190.456 149.355 190.568 149.728 190.568C150.144 190.568 150.491 190.435 150.768 190.168C151.046 189.891 151.184 189.544 151.184 189.128C151.184 188.787 151.078 188.525 150.864 188.344C150.651 188.152 150.272 187.944 149.728 187.72C148.982 187.411 148.507 187.123 148.304 186.856C148.112 186.6 148.016 186.317 148.016 186.008C148.016 185.517 148.182 185.117 148.512 184.808C148.843 184.488 149.259 184.328 149.76 184.328C150.603 184.328 151.174 184.68 151.472 185.384ZM154.032 194.68L155.568 191.112L152.464 184.472H153.2L155.936 190.28L158.32 184.472H159.056L154.768 194.68H154.032ZM163.503 185.384L162.959 185.672C162.746 185.181 162.367 184.936 161.823 184.936C161.482 184.936 161.21 185.043 161.007 185.256C160.815 185.469 160.719 185.709 160.719 185.976C160.719 186.179 160.778 186.355 160.895 186.504C161.013 186.643 161.135 186.749 161.263 186.824C161.391 186.888 161.594 186.973 161.871 187.08C161.914 187.091 162.015 187.133 162.175 187.208C162.346 187.272 162.458 187.315 162.511 187.336C162.565 187.357 162.655 187.4 162.783 187.464C162.922 187.517 163.023 187.571 163.087 187.624C163.151 187.667 163.226 187.725 163.311 187.8C163.407 187.875 163.487 187.955 163.551 188.04C163.775 188.317 163.887 188.669 163.887 189.096C163.887 189.789 163.674 190.312 163.247 190.664C162.831 191.005 162.335 191.176 161.759 191.176C161.205 191.176 160.725 191.021 160.319 190.712C159.914 190.403 159.642 189.981 159.503 189.448L160.127 189.256C160.234 189.672 160.437 189.997 160.735 190.232C161.045 190.456 161.386 190.568 161.759 190.568C162.175 190.568 162.522 190.435 162.799 190.168C163.077 189.891 163.215 189.544 163.215 189.128C163.215 188.787 163.109 188.525 162.895 188.344C162.682 188.152 162.303 187.944 161.759 187.72C161.013 187.411 160.538 187.123 160.335 186.856C160.143 186.6 160.047 186.317 160.047 186.008C160.047 185.517 160.213 185.117 160.543 184.808C160.874 184.488 161.29 184.328 161.791 184.328C162.634 184.328 163.205 184.68 163.503 185.384ZM167.343 185.08H166.207V191H165.567V185.08H164.847V184.472H165.567V182.136H166.207V184.472H167.343V185.08ZM174.469 187.816H168.885C168.885 188.627 169.135 189.288 169.637 189.8C170.149 190.312 170.762 190.568 171.477 190.568C171.989 190.568 172.442 190.435 172.837 190.168C173.231 189.891 173.535 189.528 173.749 189.08L174.293 189.4C174.047 189.869 173.69 190.285 173.221 190.648C172.751 191 172.154 191.176 171.429 191.176C170.437 191.176 169.653 190.856 169.077 190.216C168.501 189.565 168.213 188.749 168.213 187.768C168.213 186.691 168.522 185.848 169.141 185.24C169.77 184.632 170.517 184.328 171.381 184.328C172.266 184.328 173.002 184.653 173.589 185.304C174.175 185.955 174.469 186.792 174.469 187.816ZM168.933 187.208H173.797C173.711 186.547 173.445 186.003 172.997 185.576C172.559 185.149 172.021 184.936 171.381 184.936C170.73 184.936 170.181 185.155 169.733 185.592C169.285 186.019 169.018 186.557 168.933 187.208ZM176.363 191V184.472H177.003V185.288C177.376 184.648 177.942 184.328 178.699 184.328C179.616 184.328 180.224 184.723 180.523 185.512C180.896 184.723 181.542 184.328 182.459 184.328C183.078 184.328 183.568 184.509 183.931 184.872C184.304 185.245 184.491 185.837 184.491 186.648V191H183.851V186.648C183.851 186.019 183.723 185.571 183.467 185.304C183.232 185.059 182.907 184.936 182.491 184.936C182.171 184.936 181.888 185 181.643 185.128C181.408 185.256 181.232 185.4 181.115 185.56C181.008 185.72 180.923 185.917 180.859 186.152C180.806 186.387 180.774 186.563 180.763 186.68C180.752 186.797 180.747 186.925 180.747 187.064V191H180.107V186.808C180.107 185.56 179.627 184.936 178.667 184.936C178.123 184.936 177.707 185.149 177.419 185.576C177.142 185.992 177.003 186.541 177.003 187.224V191H176.363ZM186.832 190.952C186.726 190.835 186.672 190.691 186.672 190.52C186.672 190.349 186.726 190.211 186.832 190.104C186.95 189.987 187.094 189.928 187.264 189.928C187.435 189.928 187.574 189.987 187.68 190.104C187.798 190.211 187.856 190.349 187.856 190.52C187.856 190.691 187.798 190.835 187.68 190.952C187.574 191.059 187.435 191.112 187.264 191.112C187.094 191.112 186.95 191.059 186.832 190.952Z" fill="white"/>
<path d="M64.44 96.994H66.96C67.908 96.994 68.736 97.078 69.444 97.246C70.152 97.402 70.812 97.708 71.424 98.164C72.156 98.716 72.72 99.412 73.116 100.252C73.524 101.092 73.728 102.01 73.728 103.006C73.728 105.106 72.924 106.72 71.316 107.848C70.668 108.304 70.008 108.61 69.336 108.766C68.664 108.922 67.86 109 66.924 109H64.44V96.994ZM66.276 98.722V107.272H67.068C68.436 107.272 69.498 106.99 70.254 106.426C71.346 105.598 71.892 104.458 71.892 103.006C71.892 102.262 71.736 101.584 71.424 100.972C71.124 100.36 70.74 99.886 70.272 99.55C69.504 98.998 68.436 98.722 67.068 98.722H66.276ZM81.01 106.444L82.486 107.272C82.15 107.872 81.724 108.334 81.208 108.658C80.62 109.042 79.876 109.234 78.976 109.234C77.92 109.234 77.068 108.91 76.42 108.262C75.676 107.518 75.304 106.552 75.304 105.364C75.304 104.116 75.706 103.078 76.51 102.25C77.194 101.566 78.04 101.224 79.048 101.224C80.032 101.224 80.842 101.554 81.478 102.214C82.186 102.946 82.54 104.014 82.54 105.418V105.634H77.104C77.152 106.27 77.368 106.78 77.752 107.164C78.076 107.488 78.526 107.65 79.102 107.65C79.57 107.65 79.972 107.524 80.308 107.272C80.584 107.056 80.818 106.78 81.01 106.444ZM77.23 104.194H80.74C80.668 103.774 80.488 103.432 80.2 103.168C79.888 102.88 79.492 102.736 79.012 102.736C78.508 102.736 78.094 102.898 77.77 103.222C77.506 103.462 77.326 103.786 77.23 104.194ZM83.1822 101.422H85.1622L87.1062 105.742L89.0502 101.422H91.0302L87.1062 109.54L83.1822 101.422ZM97.3576 106.444L98.8336 107.272C98.4976 107.872 98.0716 108.334 97.5556 108.658C96.9676 109.042 96.2236 109.234 95.3236 109.234C94.2676 109.234 93.4156 108.91 92.7676 108.262C92.0236 107.518 91.6516 106.552 91.6516 105.364C91.6516 104.116 92.0536 103.078 92.8576 102.25C93.5416 101.566 94.3876 101.224 95.3956 101.224C96.3796 101.224 97.1896 101.554 97.8256 102.214C98.5336 102.946 98.8876 104.014 98.8876 105.418V105.634H93.4516C93.4996 106.27 93.7156 106.78 94.0996 107.164C94.4236 107.488 94.8736 107.65 95.4496 107.65C95.9176 107.65 96.3196 107.524 96.6556 107.272C96.9316 107.056 97.1656 106.78 97.3576 106.444ZM93.5776 104.194H97.0876C97.0156 103.774 96.8356 103.432 96.5476 103.168C96.2356 102.88 95.8396 102.736 95.3596 102.736C94.8556 102.736 94.4416 102.898 94.1176 103.222C93.8536 103.462 93.6736 103.786 93.5776 104.194ZM100.731 95.878H102.495V109H100.731V95.878ZM105.477 102.358C106.257 101.602 107.223 101.224 108.375 101.224C109.527 101.224 110.487 101.602 111.255 102.358C112.035 103.102 112.425 104.056 112.425 105.22C112.425 106.372 112.035 107.332 111.255 108.1C110.487 108.856 109.527 109.234 108.375 109.234C107.223 109.234 106.257 108.856 105.477 108.1C104.709 107.332 104.325 106.372 104.325 105.22C104.325 104.056 104.709 103.102 105.477 102.358ZM106.737 107.002C107.145 107.434 107.691 107.65 108.375 107.65C109.059 107.65 109.605 107.434 110.013 107.002C110.421 106.558 110.625 105.97 110.625 105.238C110.625 104.434 110.403 103.828 109.959 103.42C109.527 103.012 108.999 102.808 108.375 102.808C107.751 102.808 107.217 103.012 106.773 103.42C106.341 103.828 106.125 104.434 106.125 105.238C106.125 105.97 106.329 106.558 106.737 107.002ZM116.03 108.118V113.122H114.266V101.422H116.03V102.25C116.606 101.566 117.356 101.224 118.28 101.224C119.312 101.224 120.182 101.59 120.89 102.322C121.61 103.042 121.97 103.99 121.97 105.166C121.97 106.378 121.598 107.362 120.854 108.118C120.11 108.862 119.258 109.234 118.298 109.234C117.398 109.234 116.642 108.862 116.03 108.118ZM118.064 102.808C117.464 102.808 116.954 103.024 116.534 103.456C116.126 103.876 115.922 104.476 115.922 105.256C115.922 106.012 116.126 106.6 116.534 107.02C116.954 107.44 117.464 107.65 118.064 107.65C118.688 107.65 119.192 107.416 119.576 106.948C119.972 106.48 120.17 105.91 120.17 105.238C120.17 104.554 119.972 103.978 119.576 103.51C119.192 103.042 118.688 102.808 118.064 102.808ZM123.811 109V101.422H125.575V102.124C126.067 101.524 126.691 101.224 127.447 101.224C128.323 101.224 128.977 101.596 129.409 102.34C129.925 101.596 130.675 101.224 131.659 101.224C132.643 101.224 133.363 101.62 133.819 102.412C134.083 102.88 134.215 103.516 134.215 104.32V109H132.451V104.824C132.451 104.164 132.397 103.714 132.289 103.474C132.121 103.03 131.785 102.808 131.281 102.808C130.849 102.808 130.501 102.994 130.237 103.366C130.009 103.69 129.895 104.266 129.895 105.094V109H128.131V104.824C128.131 104.164 128.077 103.714 127.969 103.474C127.801 103.03 127.465 102.808 126.961 102.808C126.529 102.808 126.181 102.994 125.917 103.366C125.689 103.69 125.575 104.266 125.575 105.094V109H123.811ZM141.76 106.444L143.236 107.272C142.9 107.872 142.474 108.334 141.958 108.658C141.37 109.042 140.626 109.234 139.726 109.234C138.67 109.234 137.818 108.91 137.17 108.262C136.426 107.518 136.054 106.552 136.054 105.364C136.054 104.116 136.456 103.078 137.26 102.25C137.944 101.566 138.79 101.224 139.798 101.224C140.782 101.224 141.592 101.554 142.228 102.214C142.936 102.946 143.29 104.014 143.29 105.418V105.634H137.854C137.902 106.27 138.118 106.78 138.502 107.164C138.826 107.488 139.276 107.65 139.852 107.65C140.32 107.65 140.722 107.524 141.058 107.272C141.334 107.056 141.568 106.78 141.76 106.444ZM137.98 104.194H141.49C141.418 103.774 141.238 103.432 140.95 103.168C140.638 102.88 140.242 102.736 139.762 102.736C139.258 102.736 138.844 102.898 138.52 103.222C138.256 103.462 138.076 103.786 137.98 104.194ZM145.116 109V101.422H146.88V102.124C147.42 101.524 148.104 101.224 148.932 101.224C149.928 101.224 150.672 101.566 151.164 102.25C151.476 102.694 151.632 103.396 151.632 104.356V109H149.868V104.788C149.868 104.332 149.832 103.96 149.76 103.672C149.688 103.384 149.574 103.186 149.418 103.078C149.262 102.958 149.118 102.886 148.986 102.862C148.866 102.826 148.698 102.808 148.482 102.808C148.23 102.808 148.026 102.832 147.87 102.88C147.726 102.916 147.564 103.012 147.384 103.168C147.216 103.312 147.09 103.57 147.006 103.942C146.922 104.302 146.88 104.776 146.88 105.364V109H145.116ZM157.038 103.042H155.688V109H153.924V103.042H153.186V101.422H153.924V98.65H155.688V101.422H157.038V103.042Z" fill="white"/>
<defs>
<filter id="filter0_bd_202_5" x="-20" y="-24" width="258.256" height="273.5" filterUnits="userSpaceOnUse" color-interpolation-filters="sRGB">
<feFlood flood-opacity="0" result="BackgroundImageFix"/>
<feGaussianBlur in="BackgroundImageFix" stdDeviation="20"/>
<feComposite in2="SourceAlpha" operator="in" result="effect1_backgroundBlur_202_5"/>
<feColorMatrix in="SourceAlpha" type="matrix" values="0 0 0 0 0 0 0 0 0 0 0 0 0 0 0 0 0 0 127 0" result="hardAlpha"/>
<feOffset dy="4"/>
<feGaussianBlur stdDeviation="10"/>
<feColorMatrix type="matrix" values="0 0 0 0 0 0 0 0 0 0 0 0 0 0 0 0 0 0 0.1 0"/>
<feBlend mode="normal" in2="effect1_backgroundBlur_202_5" result="effect2_dropShadow_202_5"/>
<feBlend mode="normal" in="SourceGraphic" in2="effect2_dropShadow_202_5" result="shape"/>
</filter>
<clipPath id="clip0_202_5">
<rect width="50.1099" height="42.6458" fill="white" transform="matrix(-1 0 0 1 134.227 36.864)"/>
</clipPath>
</defs>
</svg>
