<svg width="179" height="198" viewBox="0 0 179 198" fill="none" xmlns="http://www.w3.org/2000/svg">
<g filter="url(#filter0_b_202_4)">
<rect width="178.256" height="193.5" rx="20" fill="white" fill-opacity="0.1"/>
</g>
<path d="M34.2301 108.704L33.7181 109.136C33.2701 108.261 32.5714 107.824 31.6221 107.824C31.0141 107.824 30.5287 108.016 30.1661 108.4C29.8141 108.784 29.6381 109.253 29.6381 109.808C29.6381 110.085 29.6754 110.325 29.7501 110.528C29.8354 110.731 29.9794 110.917 30.1821 111.088C30.3954 111.259 30.5821 111.392 30.7421 111.488C30.9021 111.573 31.1581 111.701 31.5101 111.872C32.6621 112.427 33.3714 112.8 33.6381 112.992C34.3954 113.515 34.7741 114.203 34.7741 115.056C34.7741 115.941 34.4487 116.683 33.7981 117.28C33.1474 117.877 32.3634 118.176 31.4461 118.176C30.4327 118.176 29.6061 117.803 28.9661 117.056C28.6567 116.693 28.4274 116.304 28.2781 115.888L28.8861 115.6C29.0141 115.984 29.2061 116.325 29.4621 116.624C29.9421 117.232 30.6087 117.536 31.4621 117.536C32.1874 117.536 32.7954 117.301 33.2861 116.832C33.7874 116.363 34.0381 115.776 34.0381 115.072C34.0381 114.379 33.6914 113.819 32.9981 113.392C32.6887 113.211 32.0861 112.901 31.1901 112.464C30.6034 112.176 30.1714 111.941 29.8941 111.76C29.6274 111.579 29.4087 111.344 29.2381 111.056C29.0141 110.683 28.9021 110.277 28.9021 109.84C28.9021 109.147 29.1367 108.533 29.6061 108C30.0754 107.456 30.7527 107.184 31.6381 107.184C32.1821 107.184 32.6834 107.317 33.1421 107.584C33.6007 107.84 33.9634 108.213 34.2301 108.704ZM37.3448 112.32C38.0061 111.659 38.8221 111.328 39.7928 111.328C40.7635 111.328 41.5741 111.659 42.2248 112.32C42.8861 112.971 43.2168 113.781 43.2168 114.752C43.2168 115.723 42.8861 116.539 42.2248 117.2C41.5741 117.851 40.7635 118.176 39.7928 118.176C38.8221 118.176 38.0061 117.851 37.3448 117.2C36.6941 116.539 36.3688 115.723 36.3688 114.752C36.3688 113.781 36.6941 112.971 37.3448 112.32ZM37.8248 116.752C38.3581 117.296 39.0141 117.568 39.7928 117.568C40.5715 117.568 41.2221 117.296 41.7448 116.752C42.2781 116.208 42.5448 115.541 42.5448 114.752C42.5448 113.963 42.2781 113.296 41.7448 112.752C41.2221 112.208 40.5715 111.936 39.7928 111.936C39.0141 111.936 38.3581 112.208 37.8248 112.752C37.3021 113.296 37.0408 113.963 37.0408 114.752C37.0408 115.541 37.3021 116.208 37.8248 116.752ZM45.0973 106.336H45.7373V118H45.0973V106.336ZM48.0348 111.472H48.6748V115.408C48.6748 116.165 48.8135 116.709 49.0908 117.04C49.3895 117.392 49.8215 117.568 50.3868 117.568C50.9521 117.568 51.3841 117.392 51.6828 117.04C51.9601 116.709 52.0988 116.165 52.0988 115.408V111.472H52.7388V115.584C52.7388 116.352 52.5735 116.949 52.2428 117.376C51.8268 117.909 51.2081 118.176 50.3868 118.176C49.5655 118.176 48.9468 117.909 48.5308 117.376C48.2001 116.949 48.0348 116.352 48.0348 115.584V111.472ZM56.8744 112.08H55.7384V118H55.0984V112.08H54.3784V111.472H55.0984V109.136H55.7384V111.472H56.8744V112.08ZM58.1598 111.472H58.7998V118H58.1598V111.472ZM58.8798 109.728C58.7731 109.835 58.6398 109.888 58.4798 109.888C58.3198 109.888 58.1811 109.835 58.0638 109.728C57.9571 109.611 57.9038 109.467 57.9038 109.296C57.9038 109.125 57.9571 108.987 58.0638 108.88C58.1811 108.763 58.3198 108.704 58.4798 108.704C58.6398 108.704 58.7731 108.763 58.8798 108.88C58.9971 108.987 59.0558 109.125 59.0558 109.296C59.0558 109.467 58.9971 109.611 58.8798 109.728ZM61.6573 112.32C62.3186 111.659 63.1346 111.328 64.1053 111.328C65.076 111.328 65.8866 111.659 66.5373 112.32C67.1986 112.971 67.5293 113.781 67.5293 114.752C67.5293 115.723 67.1986 116.539 66.5373 117.2C65.8866 117.851 65.076 118.176 64.1053 118.176C63.1346 118.176 62.3186 117.851 61.6573 117.2C61.0066 116.539 60.6813 115.723 60.6813 114.752C60.6813 113.781 61.0066 112.971 61.6573 112.32ZM62.1373 116.752C62.6706 117.296 63.3266 117.568 64.1053 117.568C64.884 117.568 65.5346 117.296 66.0573 116.752C66.5906 116.208 66.8573 115.541 66.8573 114.752C66.8573 113.963 66.5906 113.296 66.0573 112.752C65.5346 112.208 64.884 111.936 64.1053 111.936C63.3266 111.936 62.6706 112.208 62.1373 112.752C61.6146 113.296 61.3533 113.963 61.3533 114.752C61.3533 115.541 61.6146 116.208 62.1373 116.752ZM69.4098 118V111.472H70.0498V112.496C70.4871 111.717 71.1538 111.328 72.0498 111.328C72.8605 111.328 73.4631 111.632 73.8578 112.24C74.0711 112.581 74.1778 113.131 74.1778 113.888V118H73.5378V113.888C73.5378 113.28 73.4525 112.843 73.2818 112.576C73.0258 112.149 72.5991 111.936 72.0018 111.936C71.2765 111.936 70.7431 112.24 70.4018 112.848C70.1671 113.264 70.0498 113.851 70.0498 114.608V118H69.4098ZM79.8159 112.384L79.2719 112.672C79.0586 112.181 78.6799 111.936 78.1359 111.936C77.7946 111.936 77.5226 112.043 77.3199 112.256C77.1279 112.469 77.0319 112.709 77.0319 112.976C77.0319 113.179 77.0906 113.355 77.2079 113.504C77.3253 113.643 77.4479 113.749 77.5759 113.824C77.7039 113.888 77.9066 113.973 78.1839 114.08C78.2266 114.091 78.3279 114.133 78.4879 114.208C78.6586 114.272 78.7706 114.315 78.8239 114.336C78.8773 114.357 78.9679 114.4 79.0959 114.464C79.2346 114.517 79.3359 114.571 79.3999 114.624C79.4639 114.667 79.5386 114.725 79.6239 114.8C79.7199 114.875 79.7999 114.955 79.8639 115.04C80.0879 115.317 80.1999 115.669 80.1999 116.096C80.1999 116.789 79.9866 117.312 79.5599 117.664C79.1439 118.005 78.6479 118.176 78.0719 118.176C77.5173 118.176 77.0373 118.021 76.6319 117.712C76.2266 117.403 75.9546 116.981 75.8159 116.448L76.4399 116.256C76.5466 116.672 76.7493 116.997 77.0479 117.232C77.3573 117.456 77.6986 117.568 78.0719 117.568C78.4879 117.568 78.8346 117.435 79.1119 117.168C79.3893 116.891 79.5279 116.544 79.5279 116.128C79.5279 115.787 79.4213 115.525 79.2079 115.344C78.9946 115.152 78.6159 114.944 78.0719 114.72C77.3253 114.411 76.8506 114.123 76.6479 113.856C76.4559 113.6 76.3599 113.317 76.3599 113.008C76.3599 112.517 76.5253 112.117 76.8559 111.808C77.1866 111.488 77.6026 111.328 78.1039 111.328C78.9466 111.328 79.5173 111.68 79.8159 112.384ZM87.3901 112.08H86.2541V118H85.6141V112.08H84.8941V111.472H85.6141V109.136H86.2541V111.472H87.3901V112.08ZM88.6754 118V106.336H89.3154V112.496C89.7528 111.717 90.4194 111.328 91.3154 111.328C92.1261 111.328 92.7288 111.632 93.1234 112.24C93.3368 112.581 93.4434 113.131 93.4434 113.888V118H92.8034V113.888C92.8034 113.28 92.7181 112.843 92.5474 112.576C92.2914 112.149 91.8648 111.936 91.2674 111.936C90.5421 111.936 90.0088 112.24 89.6674 112.848C89.4328 113.264 89.3154 113.851 89.3154 114.608V118H88.6754ZM100.722 112.608V111.472H101.362V118H100.722V116.832C100.135 117.728 99.2871 118.176 98.1778 118.176C97.2925 118.176 96.5405 117.861 95.9218 117.232C95.3031 116.603 94.9938 115.771 94.9938 114.736C94.9938 113.723 95.2871 112.901 95.8738 112.272C96.4605 111.643 97.2285 111.328 98.1778 111.328C99.2658 111.328 100.114 111.755 100.722 112.608ZM98.2098 111.936C97.5165 111.936 96.9191 112.187 96.4178 112.688C95.9165 113.179 95.6658 113.845 95.6658 114.688C95.6658 115.467 95.8951 116.144 96.3538 116.72C96.8125 117.285 97.4365 117.568 98.2258 117.568C99.0045 117.568 99.6178 117.291 100.066 116.736C100.524 116.171 100.754 115.488 100.754 114.688C100.754 113.803 100.492 113.125 99.9698 112.656C99.4471 112.176 98.8605 111.936 98.2098 111.936ZM105.484 112.08H104.348V118H103.708V112.08H102.988V111.472H103.708V109.136H104.348V111.472H105.484V112.08ZM115.88 111.472H116.52V117.808C116.52 119.035 116.226 119.984 115.64 120.656C115.064 121.339 114.264 121.68 113.24 121.68C112.354 121.68 111.608 121.429 111 120.928C110.402 120.437 110.082 119.755 110.04 118.88H110.712C110.765 119.552 111.021 120.085 111.48 120.48C111.949 120.875 112.536 121.072 113.24 121.072C113.72 121.072 114.136 120.976 114.488 120.784C114.85 120.592 115.117 120.373 115.288 120.128C115.458 119.883 115.592 119.584 115.688 119.232C115.784 118.88 115.837 118.608 115.848 118.416C115.869 118.224 115.88 118.021 115.88 117.808V116.88C115.261 117.744 114.402 118.176 113.304 118.176C112.44 118.176 111.688 117.872 111.048 117.264C110.408 116.656 110.088 115.813 110.088 114.736C110.088 113.765 110.386 112.955 110.984 112.304C111.581 111.653 112.381 111.328 113.384 111.328C114.45 111.328 115.282 111.755 115.88 112.608V111.472ZM115.192 112.736C114.722 112.203 114.098 111.936 113.32 111.936C112.541 111.936 111.917 112.213 111.448 112.768C110.989 113.312 110.76 113.979 110.76 114.768C110.76 115.568 110.989 116.235 111.448 116.768C111.917 117.301 112.53 117.568 113.288 117.568C114.077 117.568 114.712 117.296 115.192 116.752C115.672 116.208 115.912 115.525 115.912 114.704C115.912 113.925 115.672 113.269 115.192 112.736ZM119.376 112.32C120.037 111.659 120.853 111.328 121.824 111.328C122.795 111.328 123.605 111.659 124.256 112.32C124.917 112.971 125.248 113.781 125.248 114.752C125.248 115.723 124.917 116.539 124.256 117.2C123.605 117.851 122.795 118.176 121.824 118.176C120.853 118.176 120.037 117.851 119.376 117.2C118.725 116.539 118.4 115.723 118.4 114.752C118.4 113.781 118.725 112.971 119.376 112.32ZM119.856 116.752C120.389 117.296 121.045 117.568 121.824 117.568C122.603 117.568 123.253 117.296 123.776 116.752C124.309 116.208 124.576 115.541 124.576 114.752C124.576 113.963 124.309 113.296 123.776 112.752C123.253 112.208 122.603 111.936 121.824 111.936C121.045 111.936 120.389 112.208 119.856 112.752C119.333 113.296 119.072 113.963 119.072 114.752C119.072 115.541 119.333 116.208 119.856 116.752ZM129.839 111.472H130.543L132.799 116.864L135.055 111.072L137.311 116.864L139.631 111.472H140.335L137.311 118.4L135.055 112.608L132.799 118.4L129.839 111.472ZM141.613 111.472H142.253V118H141.613V111.472ZM142.333 109.728C142.226 109.835 142.093 109.888 141.933 109.888C141.773 109.888 141.634 109.835 141.517 109.728C141.41 109.611 141.357 109.467 141.357 109.296C141.357 109.125 141.41 108.987 141.517 108.88C141.634 108.763 141.773 108.704 141.933 108.704C142.093 108.704 142.226 108.763 142.333 108.88C142.45 108.987 142.509 109.125 142.509 109.296C142.509 109.467 142.45 109.611 142.333 109.728ZM146.374 112.08H145.238V118H144.598V112.08H143.878V111.472H144.598V109.136H145.238V111.472H146.374V112.08ZM147.66 118V106.336H148.3V112.496C148.737 111.717 149.404 111.328 150.3 111.328C151.11 111.328 151.713 111.632 152.108 112.24C152.321 112.581 152.428 113.131 152.428 113.888V118H151.788V113.888C151.788 113.28 151.702 112.843 151.532 112.576C151.276 112.149 150.849 111.936 150.252 111.936C149.526 111.936 148.993 112.24 148.652 112.848C148.417 113.264 148.3 113.851 148.3 114.608V118H147.66ZM34.8119 130.08H33.6759V136H33.0359V130.08H32.3159V129.472H33.0359V127.136H33.6759V129.472H34.8119V130.08ZM36.0973 136V124.336H36.7373V130.496C37.1746 129.717 37.8413 129.328 38.7373 129.328C39.548 129.328 40.1506 129.632 40.5453 130.24C40.7586 130.581 40.8653 131.131 40.8653 131.888V136H40.2253V131.888C40.2253 131.28 40.14 130.843 39.9693 130.576C39.7133 130.149 39.2866 129.936 38.6893 129.936C37.964 129.936 37.4306 130.24 37.0893 130.848C36.8546 131.264 36.7373 131.851 36.7373 132.608V136H36.0973ZM48.5154 132.816H42.9314C42.9314 133.627 43.1821 134.288 43.6834 134.8C44.1954 135.312 44.8088 135.568 45.5234 135.568C46.0354 135.568 46.4888 135.435 46.8834 135.168C47.2781 134.891 47.5821 134.528 47.7954 134.08L48.3394 134.4C48.0941 134.869 47.7368 135.285 47.2674 135.648C46.7981 136 46.2008 136.176 45.4754 136.176C44.4834 136.176 43.6994 135.856 43.1234 135.216C42.5474 134.565 42.2594 133.749 42.2594 132.768C42.2594 131.691 42.5688 130.848 43.1874 130.24C43.8168 129.632 44.5634 129.328 45.4274 129.328C46.3128 129.328 47.0488 129.653 47.6354 130.304C48.2221 130.955 48.5154 131.792 48.5154 132.816ZM42.9794 132.208H47.8434C47.7581 131.547 47.4914 131.003 47.0434 130.576C46.6061 130.149 46.0674 129.936 45.4274 129.936C44.7768 129.936 44.2274 130.155 43.7794 130.592C43.3314 131.019 43.0648 131.557 42.9794 132.208ZM55.9682 130.08H54.8322V136H54.1922V130.08H53.4722V129.472H54.1922V127.136H54.8322V129.472H55.9682V130.08ZM57.2536 129.472H57.8936V136H57.2536V129.472ZM57.9736 127.728C57.8669 127.835 57.7336 127.888 57.5736 127.888C57.4136 127.888 57.2749 127.835 57.1576 127.728C57.0509 127.611 56.9976 127.467 56.9976 127.296C56.9976 127.125 57.0509 126.987 57.1576 126.88C57.2749 126.763 57.4136 126.704 57.5736 126.704C57.7336 126.704 57.8669 126.763 57.9736 126.88C58.0909 126.987 58.1496 127.125 58.1496 127.296C58.1496 127.467 58.0909 127.611 57.9736 127.728ZM60.1911 136V129.472H60.8311V130.288C61.2044 129.648 61.7697 129.328 62.5271 129.328C63.4444 129.328 64.0524 129.723 64.3511 130.512C64.7244 129.723 65.3697 129.328 66.2871 129.328C66.9057 129.328 67.3964 129.509 67.7591 129.872C68.1324 130.245 68.3191 130.837 68.3191 131.648V136H67.6791V131.648C67.6791 131.019 67.5511 130.571 67.2951 130.304C67.0604 130.059 66.7351 129.936 66.3191 129.936C65.9991 129.936 65.7164 130 65.4711 130.128C65.2364 130.256 65.0604 130.4 64.9431 130.56C64.8364 130.72 64.7511 130.917 64.6871 131.152C64.6337 131.387 64.6017 131.563 64.5911 131.68C64.5804 131.797 64.5751 131.925 64.5751 132.064V136H63.9351V131.808C63.9351 130.56 63.4551 129.936 62.4951 129.936C61.9511 129.936 61.5351 130.149 61.2471 130.576C60.9697 130.992 60.8311 131.541 60.8311 132.224V136H60.1911ZM76.4686 132.816H70.8846C70.8846 133.627 71.1352 134.288 71.6366 134.8C72.1486 135.312 72.7619 135.568 73.4766 135.568C73.9886 135.568 74.4419 135.435 74.8366 135.168C75.2312 134.891 75.5352 134.528 75.7486 134.08L76.2926 134.4C76.0472 134.869 75.6899 135.285 75.2206 135.648C74.7512 136 74.1539 136.176 73.4286 136.176C72.4366 136.176 71.6526 135.856 71.0766 135.216C70.5006 134.565 70.2126 133.749 70.2126 132.768C70.2126 131.691 70.5219 130.848 71.1406 130.24C71.7699 129.632 72.5166 129.328 73.3806 129.328C74.2659 129.328 75.0019 129.653 75.5886 130.304C76.1752 130.955 76.4686 131.792 76.4686 132.816ZM70.9326 132.208H75.7966C75.7112 131.547 75.4446 131.003 74.9966 130.576C74.5592 130.149 74.0206 129.936 73.3806 129.936C72.7299 129.936 72.1806 130.155 71.7326 130.592C71.2846 131.019 71.0179 131.557 70.9326 132.208ZM81.6909 130.384L81.1469 130.672C80.9336 130.181 80.5549 129.936 80.0109 129.936C79.6696 129.936 79.3976 130.043 79.1949 130.256C79.0029 130.469 78.9069 130.709 78.9069 130.976C78.9069 131.179 78.9656 131.355 79.0829 131.504C79.2003 131.643 79.3229 131.749 79.4509 131.824C79.5789 131.888 79.7816 131.973 80.0589 132.08C80.1016 132.091 80.2029 132.133 80.3629 132.208C80.5336 132.272 80.6456 132.315 80.6989 132.336C80.7523 132.357 80.8429 132.4 80.9709 132.464C81.1096 132.517 81.2109 132.571 81.2749 132.624C81.3389 132.667 81.4136 132.725 81.4989 132.8C81.5949 132.875 81.6749 132.955 81.7389 133.04C81.9629 133.317 82.0749 133.669 82.0749 134.096C82.0749 134.789 81.8616 135.312 81.4349 135.664C81.0189 136.005 80.5229 136.176 79.9469 136.176C79.3923 136.176 78.9123 136.021 78.5069 135.712C78.1016 135.403 77.8296 134.981 77.6909 134.448L78.3149 134.256C78.4216 134.672 78.6243 134.997 78.9229 135.232C79.2323 135.456 79.5736 135.568 79.9469 135.568C80.3629 135.568 80.7096 135.435 80.9869 135.168C81.2643 134.891 81.4029 134.544 81.4029 134.128C81.4029 133.787 81.2963 133.525 81.0829 133.344C80.8696 133.152 80.4909 132.944 79.9469 132.72C79.2003 132.411 78.7256 132.123 78.5229 131.856C78.3309 131.6 78.2349 131.317 78.2349 131.008C78.2349 130.517 78.4003 130.117 78.7309 129.808C79.0616 129.488 79.4776 129.328 79.9789 129.328C80.8216 129.328 81.3923 129.68 81.6909 130.384ZM89.2651 130.08H88.1291V136H87.4891V130.08H86.7691V129.472H87.4891V127.136H88.1291V129.472H89.2651V130.08ZM91.1104 130.32C91.7718 129.659 92.5878 129.328 93.5584 129.328C94.5291 129.328 95.3398 129.659 95.9904 130.32C96.6518 130.971 96.9824 131.781 96.9824 132.752C96.9824 133.723 96.6518 134.539 95.9904 135.2C95.3398 135.851 94.5291 136.176 93.5584 136.176C92.5878 136.176 91.7718 135.851 91.1104 135.2C90.4598 134.539 90.1344 133.723 90.1344 132.752C90.1344 131.781 90.4598 130.971 91.1104 130.32ZM91.5904 134.752C92.1238 135.296 92.7798 135.568 93.5584 135.568C94.3371 135.568 94.9878 135.296 95.5104 134.752C96.0438 134.208 96.3104 133.541 96.3104 132.752C96.3104 131.963 96.0438 131.296 95.5104 130.752C94.9878 130.208 94.3371 129.936 93.5584 129.936C92.7798 129.936 92.1238 130.208 91.5904 130.752C91.0678 131.296 90.8064 131.963 90.8064 132.752C90.8064 133.541 91.0678 134.208 91.5904 134.752ZM102.597 129.472H103.237V136H102.597V129.472ZM103.317 127.728C103.211 127.835 103.077 127.888 102.917 127.888C102.757 127.888 102.619 127.835 102.501 127.728C102.395 127.611 102.341 127.467 102.341 127.296C102.341 127.125 102.395 126.987 102.501 126.88C102.619 126.763 102.757 126.704 102.917 126.704C103.077 126.704 103.211 126.763 103.317 126.88C103.435 126.987 103.493 127.125 103.493 127.296C103.493 127.467 103.435 127.611 103.317 127.728ZM105.535 136V129.472H106.175V130.288C106.548 129.648 107.113 129.328 107.871 129.328C108.788 129.328 109.396 129.723 109.695 130.512C110.068 129.723 110.713 129.328 111.631 129.328C112.249 129.328 112.74 129.509 113.103 129.872C113.476 130.245 113.663 130.837 113.663 131.648V136H113.023V131.648C113.023 131.019 112.895 130.571 112.639 130.304C112.404 130.059 112.079 129.936 111.663 129.936C111.343 129.936 111.06 130 110.815 130.128C110.58 130.256 110.404 130.4 110.287 130.56C110.18 130.72 110.095 130.917 110.031 131.152C109.977 131.387 109.945 131.563 109.935 131.68C109.924 131.797 109.919 131.925 109.919 132.064V136H109.279V131.808C109.279 130.56 108.799 129.936 107.839 129.936C107.295 129.936 106.879 130.149 106.591 130.576C106.313 130.992 106.175 131.541 106.175 132.224V136H105.535ZM116.612 134.832V139.68H115.972V129.472H116.612V130.608C117.242 129.755 118.095 129.328 119.172 129.328C120.132 129.328 120.9 129.648 121.476 130.288C122.052 130.917 122.34 131.717 122.34 132.688C122.34 133.68 122.047 134.512 121.46 135.184C120.884 135.845 120.111 136.176 119.14 136.176C118.65 136.176 118.207 136.08 117.812 135.888C117.418 135.685 117.146 135.504 116.996 135.344C116.847 135.173 116.719 135.003 116.612 134.832ZM117.252 134.752C117.7 135.296 118.324 135.568 119.124 135.568C119.924 135.568 120.548 135.296 120.996 134.752C121.444 134.208 121.668 133.52 121.668 132.688C121.668 131.824 121.423 131.152 120.932 130.672C120.442 130.181 119.844 129.936 119.14 129.936C118.447 129.936 117.844 130.176 117.332 130.656C116.831 131.136 116.58 131.803 116.58 132.656C116.58 133.499 116.804 134.197 117.252 134.752ZM124.222 136V129.472H124.862V130.32C125.15 129.659 125.63 129.328 126.302 129.328C126.558 129.328 126.788 129.381 126.99 129.488L126.67 130.064C126.553 129.979 126.393 129.936 126.19 129.936C125.881 129.936 125.625 130.027 125.422 130.208C125.23 130.379 125.097 130.624 125.022 130.944C124.958 131.253 124.916 131.515 124.894 131.728C124.873 131.941 124.862 132.197 124.862 132.496V136H124.222ZM128.595 130.32C129.256 129.659 130.072 129.328 131.043 129.328C132.013 129.328 132.824 129.659 133.475 130.32C134.136 130.971 134.467 131.781 134.467 132.752C134.467 133.723 134.136 134.539 133.475 135.2C132.824 135.851 132.013 136.176 131.043 136.176C130.072 136.176 129.256 135.851 128.595 135.2C127.944 134.539 127.619 133.723 127.619 132.752C127.619 131.781 127.944 130.971 128.595 130.32ZM129.075 134.752C129.608 135.296 130.264 135.568 131.043 135.568C131.821 135.568 132.472 135.296 132.995 134.752C133.528 134.208 133.795 133.541 133.795 132.752C133.795 131.963 133.528 131.296 132.995 130.752C132.472 130.208 131.821 129.936 131.043 129.936C130.264 129.936 129.608 130.208 129.075 130.752C128.552 131.296 128.291 131.963 128.291 132.752C128.291 133.541 128.552 134.208 129.075 134.752ZM135.323 129.472H136.027L138.331 134.896L140.603 129.472H141.307L138.331 136.4L135.323 129.472ZM148.422 132.816H142.838C142.838 133.627 143.088 134.288 143.59 134.8C144.102 135.312 144.715 135.568 145.43 135.568C145.942 135.568 146.395 135.435 146.79 135.168C147.184 134.891 147.488 134.528 147.702 134.08L148.246 134.4C148 134.869 147.643 135.285 147.174 135.648C146.704 136 146.107 136.176 145.382 136.176C144.39 136.176 143.606 135.856 143.03 135.216C142.454 134.565 142.166 133.749 142.166 132.768C142.166 131.691 142.475 130.848 143.094 130.24C143.723 129.632 144.47 129.328 145.334 129.328C146.219 129.328 146.955 129.653 147.542 130.304C148.128 130.955 148.422 131.792 148.422 132.816ZM142.886 132.208H147.75C147.664 131.547 147.398 131.003 146.95 130.576C146.512 130.149 145.974 129.936 145.334 129.936C144.683 129.936 144.134 130.155 143.686 130.592C143.238 131.019 142.971 131.557 142.886 132.208ZM32.4567 142.336H33.0967V148.608C33.726 147.755 34.5794 147.328 35.6567 147.328C36.6167 147.328 37.3847 147.648 37.9607 148.288C38.5367 148.917 38.8247 149.717 38.8247 150.688C38.8247 151.68 38.5314 152.512 37.9447 153.184C37.3687 153.845 36.5954 154.176 35.6247 154.176C35.134 154.176 34.6914 154.08 34.2967 153.888C33.902 153.685 33.63 153.504 33.4807 153.344C33.3314 153.173 33.2034 153.003 33.0967 152.832V154H32.4567V142.336ZM33.7367 152.752C34.1847 153.296 34.8087 153.568 35.6087 153.568C36.4087 153.568 37.0327 153.296 37.4807 152.752C37.9287 152.208 38.1527 151.52 38.1527 150.688C38.1527 149.824 37.9074 149.152 37.4167 148.672C36.926 148.181 36.3287 147.936 35.6247 147.936C34.9314 147.936 34.3287 148.176 33.8167 148.656C33.3154 149.136 33.0647 149.803 33.0647 150.656C33.0647 151.499 33.2887 152.197 33.7367 152.752ZM40.7067 147.472H41.3467V151.408C41.3467 152.165 41.4854 152.709 41.7627 153.04C42.0614 153.392 42.4934 153.568 43.0587 153.568C43.624 153.568 44.056 153.392 44.3547 153.04C44.632 152.709 44.7707 152.165 44.7707 151.408V147.472H45.4107V151.584C45.4107 152.352 45.2454 152.949 44.9147 153.376C44.4987 153.909 43.88 154.176 43.0587 154.176C42.2374 154.176 41.6187 153.909 41.2027 153.376C40.872 152.949 40.7067 152.352 40.7067 151.584V147.472ZM51.0503 148.384L50.5063 148.672C50.293 148.181 49.9143 147.936 49.3703 147.936C49.029 147.936 48.757 148.043 48.5543 148.256C48.3623 148.469 48.2663 148.709 48.2663 148.976C48.2663 149.179 48.325 149.355 48.4423 149.504C48.5596 149.643 48.6823 149.749 48.8103 149.824C48.9383 149.888 49.141 149.973 49.4183 150.08C49.461 150.091 49.5623 150.133 49.7223 150.208C49.893 150.272 50.005 150.315 50.0583 150.336C50.1116 150.357 50.2023 150.4 50.3303 150.464C50.469 150.517 50.5703 150.571 50.6343 150.624C50.6983 150.667 50.773 150.725 50.8583 150.8C50.9543 150.875 51.0343 150.955 51.0983 151.04C51.3223 151.317 51.4343 151.669 51.4343 152.096C51.4343 152.789 51.221 153.312 50.7943 153.664C50.3783 154.005 49.8823 154.176 49.3063 154.176C48.7516 154.176 48.2716 154.021 47.8663 153.712C47.461 153.403 47.189 152.981 47.0503 152.448L47.6743 152.256C47.781 152.672 47.9836 152.997 48.2823 153.232C48.5916 153.456 48.933 153.568 49.3063 153.568C49.7223 153.568 50.069 153.435 50.3463 153.168C50.6236 152.891 50.7623 152.544 50.7623 152.128C50.7623 151.787 50.6556 151.525 50.4423 151.344C50.229 151.152 49.8503 150.944 49.3063 150.72C48.5596 150.411 48.085 150.123 47.8823 149.856C47.6903 149.6 47.5943 149.317 47.5943 149.008C47.5943 148.517 47.7596 148.117 48.0903 147.808C48.421 147.488 48.837 147.328 49.3383 147.328C50.181 147.328 50.7516 147.68 51.0503 148.384ZM53.0661 147.472H53.7061V154H53.0661V147.472ZM53.7861 145.728C53.6794 145.835 53.5461 145.888 53.3861 145.888C53.2261 145.888 53.0874 145.835 52.9701 145.728C52.8634 145.611 52.8101 145.467 52.8101 145.296C52.8101 145.125 52.8634 144.987 52.9701 144.88C53.0874 144.763 53.2261 144.704 53.3861 144.704C53.5461 144.704 53.6794 144.763 53.7861 144.88C53.9034 144.987 53.9621 145.125 53.9621 145.296C53.9621 145.467 53.9034 145.611 53.7861 145.728ZM56.0036 154V147.472H56.6436V148.496C57.0809 147.717 57.7476 147.328 58.6436 147.328C59.4542 147.328 60.0569 147.632 60.4516 148.24C60.6649 148.581 60.7716 149.131 60.7716 149.888V154H60.1316V149.888C60.1316 149.28 60.0462 148.843 59.8756 148.576C59.6196 148.149 59.1929 147.936 58.5956 147.936C57.8702 147.936 57.3369 148.24 56.9956 148.848C56.7609 149.264 56.6436 149.851 56.6436 150.608V154H56.0036ZM68.9217 150.816H63.3377C63.3377 151.627 63.5884 152.288 64.0897 152.8C64.6017 153.312 65.215 153.568 65.9297 153.568C66.4417 153.568 66.895 153.435 67.2897 153.168C67.6844 152.891 67.9884 152.528 68.2017 152.08L68.7457 152.4C68.5004 152.869 68.143 153.285 67.6737 153.648C67.2044 154 66.607 154.176 65.8817 154.176C64.8897 154.176 64.1057 153.856 63.5297 153.216C62.9537 152.565 62.6657 151.749 62.6657 150.768C62.6657 149.691 62.975 148.848 63.5937 148.24C64.223 147.632 64.9697 147.328 65.8337 147.328C66.719 147.328 67.455 147.653 68.0417 148.304C68.6284 148.955 68.9217 149.792 68.9217 150.816ZM63.3857 150.208H68.2497C68.1644 149.547 67.8977 149.003 67.4497 148.576C67.0124 148.149 66.4737 147.936 65.8337 147.936C65.183 147.936 64.6337 148.155 64.1857 148.592C63.7377 149.019 63.471 149.557 63.3857 150.208ZM74.1441 148.384L73.6001 148.672C73.3867 148.181 73.0081 147.936 72.4641 147.936C72.1227 147.936 71.8507 148.043 71.6481 148.256C71.4561 148.469 71.3601 148.709 71.3601 148.976C71.3601 149.179 71.4187 149.355 71.5361 149.504C71.6534 149.643 71.7761 149.749 71.9041 149.824C72.0321 149.888 72.2347 149.973 72.5121 150.08C72.5547 150.091 72.6561 150.133 72.8161 150.208C72.9867 150.272 73.0987 150.315 73.1521 150.336C73.2054 150.357 73.2961 150.4 73.4241 150.464C73.5627 150.517 73.6641 150.571 73.7281 150.624C73.7921 150.667 73.8667 150.725 73.9521 150.8C74.0481 150.875 74.1281 150.955 74.1921 151.04C74.4161 151.317 74.5281 151.669 74.5281 152.096C74.5281 152.789 74.3147 153.312 73.8881 153.664C73.4721 154.005 72.9761 154.176 72.4001 154.176C71.8454 154.176 71.3654 154.021 70.9601 153.712C70.5547 153.403 70.2827 152.981 70.1441 152.448L70.7681 152.256C70.8747 152.672 71.0774 152.997 71.3761 153.232C71.6854 153.456 72.0267 153.568 72.4001 153.568C72.8161 153.568 73.1627 153.435 73.4401 153.168C73.7174 152.891 73.8561 152.544 73.8561 152.128C73.8561 151.787 73.7494 151.525 73.5361 151.344C73.3227 151.152 72.9441 150.944 72.4001 150.72C71.6534 150.411 71.1787 150.123 70.9761 149.856C70.7841 149.6 70.6881 149.317 70.6881 149.008C70.6881 148.517 70.8534 148.117 71.1841 147.808C71.5147 147.488 71.9307 147.328 72.4321 147.328C73.2747 147.328 73.8454 147.68 74.1441 148.384ZM79.4878 148.384L78.9438 148.672C78.7305 148.181 78.3518 147.936 77.8078 147.936C77.4665 147.936 77.1945 148.043 76.9918 148.256C76.7998 148.469 76.7038 148.709 76.7038 148.976C76.7038 149.179 76.7625 149.355 76.8798 149.504C76.9971 149.643 77.1198 149.749 77.2478 149.824C77.3758 149.888 77.5785 149.973 77.8558 150.08C77.8985 150.091 77.9998 150.133 78.1598 150.208C78.3305 150.272 78.4425 150.315 78.4958 150.336C78.5491 150.357 78.6398 150.4 78.7678 150.464C78.9065 150.517 79.0078 150.571 79.0718 150.624C79.1358 150.667 79.2105 150.725 79.2958 150.8C79.3918 150.875 79.4718 150.955 79.5358 151.04C79.7598 151.317 79.8718 151.669 79.8718 152.096C79.8718 152.789 79.6585 153.312 79.2318 153.664C78.8158 154.005 78.3198 154.176 77.7438 154.176C77.1891 154.176 76.7091 154.021 76.3038 153.712C75.8985 153.403 75.6265 152.981 75.4878 152.448L76.1118 152.256C76.2185 152.672 76.4211 152.997 76.7198 153.232C77.0291 153.456 77.3705 153.568 77.7438 153.568C78.1598 153.568 78.5065 153.435 78.7838 153.168C79.0611 152.891 79.1998 152.544 79.1998 152.128C79.1998 151.787 79.0931 151.525 78.8798 151.344C78.6665 151.152 78.2878 150.944 77.7438 150.72C76.9971 150.411 76.5225 150.123 76.3198 149.856C76.1278 149.6 76.0318 149.317 76.0318 149.008C76.0318 148.517 76.1971 148.117 76.5278 147.808C76.8585 147.488 77.2745 147.328 77.7758 147.328C78.6185 147.328 79.1891 147.68 79.4878 148.384ZM87.3436 150.816H81.7596C81.7596 151.627 82.0102 152.288 82.5116 152.8C83.0236 153.312 83.6369 153.568 84.3516 153.568C84.8636 153.568 85.3169 153.435 85.7116 153.168C86.1062 152.891 86.4102 152.528 86.6236 152.08L87.1676 152.4C86.9222 152.869 86.5649 153.285 86.0956 153.648C85.6262 154 85.0289 154.176 84.3036 154.176C83.3116 154.176 82.5276 153.856 81.9516 153.216C81.3756 152.565 81.0876 151.749 81.0876 150.768C81.0876 149.691 81.3969 148.848 82.0156 148.24C82.6449 147.632 83.3916 147.328 84.2556 147.328C85.1409 147.328 85.8769 147.653 86.4636 148.304C87.0502 148.955 87.3436 149.792 87.3436 150.816ZM81.8076 150.208H86.6716C86.5862 149.547 86.3196 149.003 85.8716 148.576C85.4342 148.149 84.8956 147.936 84.2556 147.936C83.6049 147.936 83.0556 148.155 82.6076 148.592C82.1596 149.019 81.8929 149.557 81.8076 150.208ZM92.5659 148.384L92.0219 148.672C91.8086 148.181 91.4299 147.936 90.8859 147.936C90.5446 147.936 90.2726 148.043 90.0699 148.256C89.8779 148.469 89.7819 148.709 89.7819 148.976C89.7819 149.179 89.8406 149.355 89.9579 149.504C90.0753 149.643 90.1979 149.749 90.3259 149.824C90.4539 149.888 90.6566 149.973 90.9339 150.08C90.9766 150.091 91.0779 150.133 91.2379 150.208C91.4086 150.272 91.5206 150.315 91.5739 150.336C91.6273 150.357 91.7179 150.4 91.8459 150.464C91.9846 150.517 92.0859 150.571 92.1499 150.624C92.2139 150.667 92.2886 150.725 92.3739 150.8C92.4699 150.875 92.5499 150.955 92.6139 151.04C92.8379 151.317 92.9499 151.669 92.9499 152.096C92.9499 152.789 92.7366 153.312 92.3099 153.664C91.8939 154.005 91.3979 154.176 90.8219 154.176C90.2673 154.176 89.7873 154.021 89.3819 153.712C88.9766 153.403 88.7046 152.981 88.5659 152.448L89.1899 152.256C89.2966 152.672 89.4993 152.997 89.7979 153.232C90.1073 153.456 90.4486 153.568 90.8219 153.568C91.2379 153.568 91.5846 153.435 91.8619 153.168C92.1393 152.891 92.2779 152.544 92.2779 152.128C92.2779 151.787 92.1713 151.525 91.9579 151.344C91.7446 151.152 91.3659 150.944 90.8219 150.72C90.0753 150.411 89.6006 150.123 89.3979 149.856C89.2059 149.6 89.1099 149.317 89.1099 149.008C89.1099 148.517 89.2753 148.117 89.6059 147.808C89.9366 147.488 90.3526 147.328 90.8539 147.328C91.6966 147.328 92.2673 147.68 92.5659 148.384ZM103.628 148.608V147.472H104.268V154H103.628V152.832C103.041 153.728 102.193 154.176 101.084 154.176C100.199 154.176 99.4467 153.861 98.8281 153.232C98.2094 152.603 97.9001 151.771 97.9001 150.736C97.9001 149.723 98.1934 148.901 98.7801 148.272C99.3667 147.643 100.135 147.328 101.084 147.328C102.172 147.328 103.02 147.755 103.628 148.608ZM101.116 147.936C100.423 147.936 99.8254 148.187 99.3241 148.688C98.8227 149.179 98.5721 149.845 98.5721 150.688C98.5721 151.467 98.8014 152.144 99.2601 152.72C99.7187 153.285 100.343 153.568 101.132 153.568C101.911 153.568 102.524 153.291 102.972 152.736C103.431 152.171 103.66 151.488 103.66 150.688C103.66 149.803 103.399 149.125 102.876 148.656C102.353 148.176 101.767 147.936 101.116 147.936ZM106.566 154V147.472H107.206V148.496C107.643 147.717 108.31 147.328 109.206 147.328C110.017 147.328 110.619 147.632 111.014 148.24C111.227 148.581 111.334 149.131 111.334 149.888V154H110.694V149.888C110.694 149.28 110.609 148.843 110.438 148.576C110.182 148.149 109.755 147.936 109.158 147.936C108.433 147.936 107.899 148.24 107.558 148.848C107.323 149.264 107.206 149.851 107.206 150.608V154H106.566ZM118.956 148.608V142.336H119.596V154H118.956V152.832C118.37 153.728 117.527 154.176 116.428 154.176C115.543 154.176 114.786 153.872 114.156 153.264C113.538 152.645 113.228 151.792 113.228 150.704C113.228 149.595 113.543 148.757 114.172 148.192C114.802 147.616 115.554 147.328 116.428 147.328C117.516 147.328 118.359 147.755 118.956 148.608ZM116.428 147.936C115.714 147.936 115.111 148.176 114.62 148.656C114.14 149.136 113.9 149.813 113.9 150.688C113.9 151.595 114.151 152.304 114.652 152.816C115.154 153.317 115.756 153.568 116.46 153.568C117.154 153.568 117.746 153.317 118.236 152.816C118.738 152.304 118.988 151.595 118.988 150.688C118.988 149.899 118.759 149.243 118.3 148.72C117.842 148.197 117.218 147.936 116.428 147.936ZM131.005 147.472H131.645V153.808C131.645 155.035 131.351 155.984 130.765 156.656C130.189 157.339 129.389 157.68 128.365 157.68C127.479 157.68 126.733 157.429 126.125 156.928C125.527 156.437 125.207 155.755 125.165 154.88H125.837C125.89 155.552 126.146 156.085 126.605 156.48C127.074 156.875 127.661 157.072 128.365 157.072C128.845 157.072 129.261 156.976 129.613 156.784C129.975 156.592 130.242 156.373 130.413 156.128C130.583 155.883 130.717 155.584 130.813 155.232C130.909 154.88 130.962 154.608 130.973 154.416C130.994 154.224 131.005 154.021 131.005 153.808V152.88C130.386 153.744 129.527 154.176 128.429 154.176C127.565 154.176 126.813 153.872 126.173 153.264C125.533 152.656 125.213 151.813 125.213 150.736C125.213 149.765 125.511 148.955 126.109 148.304C126.706 147.653 127.506 147.328 128.509 147.328C129.575 147.328 130.407 147.755 131.005 148.608V147.472ZM130.317 148.736C129.847 148.203 129.223 147.936 128.445 147.936C127.666 147.936 127.042 148.213 126.573 148.768C126.114 149.312 125.885 149.979 125.885 150.768C125.885 151.568 126.114 152.235 126.573 152.768C127.042 153.301 127.655 153.568 128.413 153.568C129.202 153.568 129.837 153.296 130.317 152.752C130.797 152.208 131.037 151.525 131.037 150.704C131.037 149.925 130.797 149.269 130.317 148.736ZM133.941 147.472H134.581V154H133.941V147.472ZM134.661 145.728C134.554 145.835 134.421 145.888 134.261 145.888C134.101 145.888 133.962 145.835 133.845 145.728C133.738 145.611 133.685 145.467 133.685 145.296C133.685 145.125 133.738 144.987 133.845 144.88C133.962 144.763 134.101 144.704 134.261 144.704C134.421 144.704 134.554 144.763 134.661 144.88C134.778 144.987 134.837 145.125 134.837 145.296C134.837 145.467 134.778 145.611 134.661 145.728ZM135.855 147.472H136.559L138.863 152.896L141.135 147.472H141.839L138.863 154.4L135.855 147.472ZM148.953 150.816H143.369C143.369 151.627 143.62 152.288 144.121 152.8C144.633 153.312 145.246 153.568 145.961 153.568C146.473 153.568 146.926 153.435 147.321 153.168C147.716 152.891 148.02 152.528 148.233 152.08L148.777 152.4C148.532 152.869 148.174 153.285 147.705 153.648C147.236 154 146.638 154.176 145.913 154.176C144.921 154.176 144.137 153.856 143.561 153.216C142.985 152.565 142.697 151.749 142.697 150.768C142.697 149.691 143.006 148.848 143.625 148.24C144.254 147.632 145.001 147.328 145.865 147.328C146.75 147.328 147.486 147.653 148.073 148.304C148.66 148.955 148.953 149.792 148.953 150.816ZM143.417 150.208H148.281C148.196 149.547 147.929 149.003 147.481 148.576C147.044 148.149 146.505 147.936 145.865 147.936C145.214 147.936 144.665 148.155 144.217 148.592C143.769 149.019 143.502 149.557 143.417 150.208ZM18.5871 166.16V167.008C17.9685 166.293 17.2165 165.936 16.3311 165.936C15.5418 165.936 14.8911 166.208 14.3791 166.752C13.8671 167.285 13.6111 167.957 13.6111 168.768C13.6111 169.643 13.8831 170.331 14.4271 170.832C14.9711 171.323 15.5951 171.568 16.2991 171.568C17.1631 171.568 17.9525 171.179 18.6671 170.4V171.264C17.9845 171.872 17.1898 172.176 16.2831 172.176C15.3018 172.176 14.4965 171.856 13.8671 171.216C13.2485 170.565 12.9391 169.755 12.9391 168.784C12.9391 167.792 13.2485 166.971 13.8671 166.32C14.4858 165.659 15.3071 165.328 16.3311 165.328C17.1738 165.328 17.9258 165.605 18.5871 166.16ZM20.4333 165.472H21.0733V169.408C21.0733 170.165 21.2119 170.709 21.4893 171.04C21.7879 171.392 22.2199 171.568 22.7853 171.568C23.3506 171.568 23.7826 171.392 24.0813 171.04C24.3586 170.709 24.4973 170.165 24.4973 169.408V165.472H25.1373V169.584C25.1373 170.352 24.9719 170.949 24.6413 171.376C24.2253 171.909 23.6066 172.176 22.7853 172.176C21.9639 172.176 21.3453 171.909 20.9293 171.376C20.5986 170.949 20.4333 170.352 20.4333 169.584V165.472ZM30.7769 166.384L30.2329 166.672C30.0195 166.181 29.6409 165.936 29.0969 165.936C28.7555 165.936 28.4835 166.043 28.2809 166.256C28.0889 166.469 27.9929 166.709 27.9929 166.976C27.9929 167.179 28.0515 167.355 28.1689 167.504C28.2862 167.643 28.4089 167.749 28.5369 167.824C28.6649 167.888 28.8675 167.973 29.1449 168.08C29.1875 168.091 29.2889 168.133 29.4489 168.208C29.6195 168.272 29.7315 168.315 29.7849 168.336C29.8382 168.357 29.9289 168.4 30.0569 168.464C30.1955 168.517 30.2969 168.571 30.3609 168.624C30.4249 168.667 30.4995 168.725 30.5849 168.8C30.6809 168.875 30.7609 168.955 30.8249 169.04C31.0489 169.317 31.1609 169.669 31.1609 170.096C31.1609 170.789 30.9475 171.312 30.5209 171.664C30.1049 172.005 29.6089 172.176 29.0329 172.176C28.4782 172.176 27.9982 172.021 27.5929 171.712C27.1875 171.403 26.9155 170.981 26.7769 170.448L27.4009 170.256C27.5075 170.672 27.7102 170.997 28.0089 171.232C28.3182 171.456 28.6595 171.568 29.0329 171.568C29.4489 171.568 29.7955 171.435 30.0729 171.168C30.3502 170.891 30.4889 170.544 30.4889 170.128C30.4889 169.787 30.3822 169.525 30.1689 169.344C29.9555 169.152 29.5769 168.944 29.0329 168.72C28.2862 168.411 27.8115 168.123 27.6089 167.856C27.4169 167.6 27.3209 167.317 27.3209 167.008C27.3209 166.517 27.4862 166.117 27.8169 165.808C28.1475 165.488 28.5635 165.328 29.0649 165.328C29.9075 165.328 30.4782 165.68 30.7769 166.384ZM34.6166 166.08H33.4806V172H32.8406V166.08H32.1206V165.472H32.8406V163.136H33.4806V165.472H34.6166V166.08ZM36.462 166.32C37.1233 165.659 37.9393 165.328 38.91 165.328C39.8807 165.328 40.6913 165.659 41.342 166.32C42.0033 166.971 42.334 167.781 42.334 168.752C42.334 169.723 42.0033 170.539 41.342 171.2C40.6913 171.851 39.8807 172.176 38.91 172.176C37.9393 172.176 37.1233 171.851 36.462 171.2C35.8113 170.539 35.486 169.723 35.486 168.752C35.486 167.781 35.8113 166.971 36.462 166.32ZM36.942 170.752C37.4753 171.296 38.1313 171.568 38.91 171.568C39.6887 171.568 40.3393 171.296 40.862 170.752C41.3953 170.208 41.662 169.541 41.662 168.752C41.662 167.963 41.3953 167.296 40.862 166.752C40.3393 166.208 39.6887 165.936 38.91 165.936C38.1313 165.936 37.4753 166.208 36.942 166.752C36.4193 167.296 36.158 167.963 36.158 168.752C36.158 169.541 36.4193 170.208 36.942 170.752ZM44.2145 172V165.472H44.8545V166.288C45.2278 165.648 45.7932 165.328 46.5505 165.328C47.4678 165.328 48.0758 165.723 48.3745 166.512C48.7478 165.723 49.3932 165.328 50.3105 165.328C50.9292 165.328 51.4198 165.509 51.7825 165.872C52.1558 166.245 52.3425 166.837 52.3425 167.648V172H51.7025V167.648C51.7025 167.019 51.5745 166.571 51.3185 166.304C51.0838 166.059 50.7585 165.936 50.3425 165.936C50.0225 165.936 49.7398 166 49.4945 166.128C49.2598 166.256 49.0838 166.4 48.9665 166.56C48.8598 166.72 48.7745 166.917 48.7105 167.152C48.6572 167.387 48.6252 167.563 48.6145 167.68C48.6038 167.797 48.5985 167.925 48.5985 168.064V172H47.9585V167.808C47.9585 166.56 47.4785 165.936 46.5185 165.936C45.9745 165.936 45.5585 166.149 45.2705 166.576C44.9932 166.992 44.8545 167.541 44.8545 168.224V172H44.2145ZM60.492 168.816H54.908C54.908 169.627 55.1587 170.288 55.66 170.8C56.172 171.312 56.7853 171.568 57.5 171.568C58.012 171.568 58.4653 171.435 58.86 171.168C59.2547 170.891 59.5587 170.528 59.772 170.08L60.316 170.4C60.0707 170.869 59.7133 171.285 59.244 171.648C58.7747 172 58.1773 172.176 57.452 172.176C56.46 172.176 55.676 171.856 55.1 171.216C54.524 170.565 54.236 169.749 54.236 168.768C54.236 167.691 54.5453 166.848 55.164 166.24C55.7933 165.632 56.54 165.328 57.404 165.328C58.2893 165.328 59.0253 165.653 59.612 166.304C60.1987 166.955 60.492 167.792 60.492 168.816ZM54.956 168.208H59.82C59.7347 167.547 59.468 167.003 59.02 166.576C58.5827 166.149 58.044 165.936 57.404 165.936C56.7533 165.936 56.204 166.155 55.756 166.592C55.308 167.019 55.0413 167.557 54.956 168.208ZM62.3864 172V165.472H63.0264V166.32C63.3144 165.659 63.7944 165.328 64.4664 165.328C64.7224 165.328 64.9517 165.381 65.1544 165.488L64.8344 166.064C64.717 165.979 64.557 165.936 64.3544 165.936C64.045 165.936 63.789 166.027 63.5864 166.208C63.3944 166.379 63.261 166.624 63.1864 166.944C63.1224 167.253 63.0797 167.515 63.0584 167.728C63.037 167.941 63.0264 168.197 63.0264 168.496V172H62.3864ZM69.5269 166.384L68.9829 166.672C68.7695 166.181 68.3909 165.936 67.8469 165.936C67.5055 165.936 67.2335 166.043 67.0309 166.256C66.8389 166.469 66.7429 166.709 66.7429 166.976C66.7429 167.179 66.8015 167.355 66.9189 167.504C67.0362 167.643 67.1589 167.749 67.2869 167.824C67.4149 167.888 67.6175 167.973 67.8949 168.08C67.9375 168.091 68.0389 168.133 68.1989 168.208C68.3695 168.272 68.4815 168.315 68.5349 168.336C68.5882 168.357 68.6789 168.4 68.8069 168.464C68.9455 168.517 69.0469 168.571 69.1109 168.624C69.1749 168.667 69.2495 168.725 69.3349 168.8C69.4309 168.875 69.5109 168.955 69.5749 169.04C69.7989 169.317 69.9109 169.669 69.9109 170.096C69.9109 170.789 69.6975 171.312 69.2709 171.664C68.8549 172.005 68.3589 172.176 67.7829 172.176C67.2282 172.176 66.7482 172.021 66.3429 171.712C65.9375 171.403 65.6655 170.981 65.5269 170.448L66.1509 170.256C66.2575 170.672 66.4602 170.997 66.7589 171.232C67.0682 171.456 67.4095 171.568 67.7829 171.568C68.1989 171.568 68.5455 171.435 68.8229 171.168C69.1002 170.891 69.2389 170.544 69.2389 170.128C69.2389 169.787 69.1322 169.525 68.9189 169.344C68.7055 169.152 68.3269 168.944 67.7829 168.72C67.0362 168.411 66.5615 168.123 66.3589 167.856C66.1669 167.6 66.0709 167.317 66.0709 167.008C66.0709 166.517 66.2362 166.117 66.5669 165.808C66.8975 165.488 67.3135 165.328 67.8149 165.328C68.6575 165.328 69.2282 165.68 69.5269 166.384ZM75.277 160.336H75.917V166.608C76.5463 165.755 77.3997 165.328 78.477 165.328C79.437 165.328 80.205 165.648 80.781 166.288C81.357 166.917 81.645 167.717 81.645 168.688C81.645 169.68 81.3517 170.512 80.765 171.184C80.189 171.845 79.4157 172.176 78.445 172.176C77.9543 172.176 77.5117 172.08 77.117 171.888C76.7223 171.685 76.4503 171.504 76.301 171.344C76.1517 171.173 76.0237 171.003 75.917 170.832V172H75.277V160.336ZM76.557 170.752C77.005 171.296 77.629 171.568 78.429 171.568C79.229 171.568 79.853 171.296 80.301 170.752C80.749 170.208 80.973 169.52 80.973 168.688C80.973 167.824 80.7277 167.152 80.237 166.672C79.7463 166.181 79.149 165.936 78.445 165.936C77.7517 165.936 77.149 166.176 76.637 166.656C76.1357 167.136 75.885 167.803 75.885 168.656C75.885 169.499 76.109 170.197 76.557 170.752ZM89.367 168.816H83.783C83.783 169.627 84.0337 170.288 84.535 170.8C85.047 171.312 85.6603 171.568 86.375 171.568C86.887 171.568 87.3403 171.435 87.735 171.168C88.1297 170.891 88.4337 170.528 88.647 170.08L89.191 170.4C88.9457 170.869 88.5883 171.285 88.119 171.648C87.6497 172 87.0523 172.176 86.327 172.176C85.335 172.176 84.551 171.856 83.975 171.216C83.399 170.565 83.111 169.749 83.111 168.768C83.111 167.691 83.4203 166.848 84.039 166.24C84.6683 165.632 85.415 165.328 86.279 165.328C87.1643 165.328 87.9003 165.653 88.487 166.304C89.0737 166.955 89.367 167.792 89.367 168.816ZM83.831 168.208H88.695C88.6097 167.547 88.343 167.003 87.895 166.576C87.4577 166.149 86.919 165.936 86.279 165.936C85.6283 165.936 85.079 166.155 84.631 166.592C84.183 167.019 83.9163 167.557 83.831 168.208ZM94.5894 166.384L94.0454 166.672C93.832 166.181 93.4534 165.936 92.9094 165.936C92.568 165.936 92.296 166.043 92.0934 166.256C91.9014 166.469 91.8054 166.709 91.8054 166.976C91.8054 167.179 91.864 167.355 91.9814 167.504C92.0987 167.643 92.2214 167.749 92.3494 167.824C92.4774 167.888 92.68 167.973 92.9574 168.08C93 168.091 93.1014 168.133 93.2614 168.208C93.432 168.272 93.544 168.315 93.5974 168.336C93.6507 168.357 93.7414 168.4 93.8694 168.464C94.008 168.517 94.1094 168.571 94.1734 168.624C94.2374 168.667 94.312 168.725 94.3974 168.8C94.4934 168.875 94.5734 168.955 94.6374 169.04C94.8614 169.317 94.9734 169.669 94.9734 170.096C94.9734 170.789 94.76 171.312 94.3334 171.664C93.9174 172.005 93.4214 172.176 92.8454 172.176C92.2907 172.176 91.8107 172.021 91.4054 171.712C91 171.403 90.728 170.981 90.5894 170.448L91.2134 170.256C91.32 170.672 91.5227 170.997 91.8214 171.232C92.1307 171.456 92.472 171.568 92.8454 171.568C93.2614 171.568 93.608 171.435 93.8854 171.168C94.1627 170.891 94.3014 170.544 94.3014 170.128C94.3014 169.787 94.1947 169.525 93.9814 169.344C93.768 169.152 93.3894 168.944 92.8454 168.72C92.0987 168.411 91.624 168.123 91.4214 167.856C91.2294 167.6 91.1334 167.317 91.1334 167.008C91.1334 166.517 91.2987 166.117 91.6294 165.808C91.96 165.488 92.376 165.328 92.8774 165.328C93.72 165.328 94.2907 165.68 94.5894 166.384ZM98.4291 166.08H97.2931V172H96.6531V166.08H95.9331V165.472H96.6531V163.136H97.2931V165.472H98.4291V166.08ZM109.289 168.816H103.705C103.705 169.627 103.956 170.288 104.457 170.8C104.969 171.312 105.582 171.568 106.297 171.568C106.809 171.568 107.262 171.435 107.657 171.168C108.052 170.891 108.356 170.528 108.569 170.08L109.113 170.4C108.868 170.869 108.51 171.285 108.041 171.648C107.572 172 106.974 172.176 106.249 172.176C105.257 172.176 104.473 171.856 103.897 171.216C103.321 170.565 103.033 169.749 103.033 168.768C103.033 167.691 103.342 166.848 103.961 166.24C104.59 165.632 105.337 165.328 106.201 165.328C107.086 165.328 107.822 165.653 108.409 166.304C108.996 166.955 109.289 167.792 109.289 168.816ZM103.753 168.208H108.617C108.532 167.547 108.265 167.003 107.817 166.576C107.38 166.149 106.841 165.936 106.201 165.936C105.55 165.936 105.001 166.155 104.553 166.592C104.105 167.019 103.838 167.557 103.753 168.208ZM109.816 172L112.456 168.576L110.04 165.472H110.824L112.888 168.16L114.92 165.472H115.704L113.336 168.576L115.96 172H115.176L112.888 168.992L110.6 172H109.816ZM117.886 170.832V175.68H117.246V165.472H117.886V166.608C118.515 165.755 119.368 165.328 120.446 165.328C121.406 165.328 122.174 165.648 122.75 166.288C123.326 166.917 123.614 167.717 123.614 168.688C123.614 169.68 123.32 170.512 122.734 171.184C122.158 171.845 121.384 172.176 120.414 172.176C119.923 172.176 119.48 172.08 119.086 171.888C118.691 171.685 118.419 171.504 118.27 171.344C118.12 171.173 117.992 171.003 117.886 170.832ZM118.526 170.752C118.974 171.296 119.598 171.568 120.398 171.568C121.198 171.568 121.822 171.296 122.27 170.752C122.718 170.208 122.942 169.52 122.942 168.688C122.942 167.824 122.696 167.152 122.206 166.672C121.715 166.181 121.118 165.936 120.414 165.936C119.72 165.936 119.118 166.176 118.606 166.656C118.104 167.136 117.854 167.803 117.854 168.656C117.854 169.499 118.078 170.197 118.526 170.752ZM131.336 168.816H125.752C125.752 169.627 126.002 170.288 126.504 170.8C127.016 171.312 127.629 171.568 128.344 171.568C128.856 171.568 129.309 171.435 129.704 171.168C130.098 170.891 130.402 170.528 130.616 170.08L131.16 170.4C130.914 170.869 130.557 171.285 130.088 171.648C129.618 172 129.021 172.176 128.296 172.176C127.304 172.176 126.52 171.856 125.944 171.216C125.368 170.565 125.08 169.749 125.08 168.768C125.08 167.691 125.389 166.848 126.008 166.24C126.637 165.632 127.384 165.328 128.248 165.328C129.133 165.328 129.869 165.653 130.456 166.304C131.042 166.955 131.336 167.792 131.336 168.816ZM125.8 168.208H130.664C130.578 167.547 130.312 167.003 129.864 166.576C129.426 166.149 128.888 165.936 128.248 165.936C127.597 165.936 127.048 166.155 126.6 166.592C126.152 167.019 125.885 167.557 125.8 168.208ZM133.23 172V165.472H133.87V166.32C134.158 165.659 134.638 165.328 135.31 165.328C135.566 165.328 135.795 165.381 135.998 165.488L135.678 166.064C135.561 165.979 135.401 165.936 135.198 165.936C134.889 165.936 134.633 166.027 134.43 166.208C134.238 166.379 134.105 166.624 134.03 166.944C133.966 167.253 133.923 167.515 133.902 167.728C133.881 167.941 133.87 168.197 133.87 168.496V172H133.23ZM137.386 165.472H138.026V172H137.386V165.472ZM138.106 163.728C138 163.835 137.866 163.888 137.706 163.888C137.546 163.888 137.408 163.835 137.29 163.728C137.184 163.611 137.13 163.467 137.13 163.296C137.13 163.125 137.184 162.987 137.29 162.88C137.408 162.763 137.546 162.704 137.706 162.704C137.866 162.704 138 162.763 138.106 162.88C138.224 162.987 138.282 163.125 138.282 163.296C138.282 163.467 138.224 163.611 138.106 163.728ZM146.164 168.816H140.58C140.58 169.627 140.831 170.288 141.332 170.8C141.844 171.312 142.457 171.568 143.172 171.568C143.684 171.568 144.137 171.435 144.532 171.168C144.927 170.891 145.231 170.528 145.444 170.08L145.988 170.4C145.743 170.869 145.385 171.285 144.916 171.648C144.447 172 143.849 172.176 143.124 172.176C142.132 172.176 141.348 171.856 140.772 171.216C140.196 170.565 139.908 169.749 139.908 168.768C139.908 167.691 140.217 166.848 140.836 166.24C141.465 165.632 142.212 165.328 143.076 165.328C143.961 165.328 144.697 165.653 145.284 166.304C145.871 166.955 146.164 167.792 146.164 168.816ZM140.628 168.208H145.492C145.407 167.547 145.14 167.003 144.692 166.576C144.255 166.149 143.716 165.936 143.076 165.936C142.425 165.936 141.876 166.155 141.428 166.592C140.98 167.019 140.713 167.557 140.628 168.208ZM148.058 172V165.472H148.698V166.496C149.136 165.717 149.802 165.328 150.698 165.328C151.509 165.328 152.112 165.632 152.506 166.24C152.72 166.581 152.826 167.131 152.826 167.888V172H152.186V167.888C152.186 167.28 152.101 166.843 151.93 166.576C151.674 166.149 151.248 165.936 150.65 165.936C149.925 165.936 149.392 166.24 149.05 166.848C148.816 167.264 148.698 167.851 148.698 168.608V172H148.058ZM160.368 166.16V167.008C159.75 166.293 158.998 165.936 158.112 165.936C157.323 165.936 156.672 166.208 156.16 166.752C155.648 167.285 155.392 167.957 155.392 168.768C155.392 169.643 155.664 170.331 156.208 170.832C156.752 171.323 157.376 171.568 158.08 171.568C158.944 171.568 159.734 171.179 160.448 170.4V171.264C159.766 171.872 158.971 172.176 158.064 172.176C157.083 172.176 156.278 171.856 155.648 171.216C155.03 170.565 154.72 169.755 154.72 168.784C154.72 167.792 155.03 166.971 155.648 166.32C156.267 165.659 157.088 165.328 158.112 165.328C158.955 165.328 159.707 165.605 160.368 166.16ZM168.055 168.816H162.471C162.471 169.627 162.721 170.288 163.223 170.8C163.735 171.312 164.348 171.568 165.062 171.568C165.575 171.568 166.028 171.435 166.423 171.168C166.817 170.891 167.121 170.528 167.335 170.08L167.879 170.4C167.633 170.869 167.276 171.285 166.807 171.648C166.337 172 165.74 172.176 165.015 172.176C164.023 172.176 163.239 171.856 162.663 171.216C162.087 170.565 161.799 169.749 161.799 168.768C161.799 167.691 162.108 166.848 162.727 166.24C163.356 165.632 164.103 165.328 164.967 165.328C165.852 165.328 166.588 165.653 167.175 166.304C167.761 166.955 168.055 167.792 168.055 168.816ZM162.519 168.208H167.383C167.297 167.547 167.031 167.003 166.583 166.576C166.145 166.149 165.607 165.936 164.967 165.936C164.316 165.936 163.767 166.155 163.319 166.592C162.871 167.019 162.604 167.557 162.519 168.208Z" fill="black"/>
<path d="M52.44 77.994H54.276V90H52.44V77.994ZM56.8089 90V82.422H58.5729V83.124C59.1129 82.524 59.7969 82.224 60.6249 82.224C61.6209 82.224 62.3649 82.566 62.8569 83.25C63.1689 83.694 63.3249 84.396 63.3249 85.356V90H61.5609V85.788C61.5609 85.332 61.5249 84.96 61.4529 84.672C61.3809 84.384 61.2669 84.186 61.1109 84.078C60.9549 83.958 60.8109 83.886 60.6789 83.862C60.5589 83.826 60.3909 83.808 60.1749 83.808C59.9229 83.808 59.7189 83.832 59.5629 83.88C59.4189 83.916 59.2569 84.012 59.0769 84.168C58.9089 84.312 58.7829 84.57 58.6989 84.942C58.6149 85.302 58.5729 85.776 58.5729 86.364V90H56.8089ZM68.7313 84.042H67.3813V90H65.6173V84.042H64.8793V82.422H65.6173V79.65H67.3813V82.422H68.7313V84.042ZM75.2326 87.444L76.7086 88.272C76.3726 88.872 75.9466 89.334 75.4306 89.658C74.8426 90.042 74.0986 90.234 73.1986 90.234C72.1426 90.234 71.2906 89.91 70.6426 89.262C69.8986 88.518 69.5266 87.552 69.5266 86.364C69.5266 85.116 69.9286 84.078 70.7326 83.25C71.4166 82.566 72.2626 82.224 73.2706 82.224C74.2546 82.224 75.0646 82.554 75.7006 83.214C76.4086 83.946 76.7626 85.014 76.7626 86.418V86.634H71.3266C71.3746 87.27 71.5906 87.78 71.9746 88.164C72.2986 88.488 72.7486 88.65 73.3246 88.65C73.7926 88.65 74.1946 88.524 74.5306 88.272C74.8066 88.056 75.0406 87.78 75.2326 87.444ZM71.4526 85.194H74.9626C74.8906 84.774 74.7106 84.432 74.4226 84.168C74.1106 83.88 73.7146 83.736 73.2346 83.736C72.7306 83.736 72.3166 83.898 71.9926 84.222C71.7286 84.462 71.5486 84.786 71.4526 85.194ZM84.1502 83.25V82.422H85.9142V89.388C85.9142 90.372 85.8302 91.17 85.6622 91.782C85.4942 92.406 85.1642 92.922 84.6722 93.33C84.0122 93.87 83.1722 94.14 82.1522 94.14C81.1202 94.14 80.2922 93.828 79.6682 93.204C79.0562 92.592 78.6842 91.806 78.5522 90.846H80.2622C80.3462 91.326 80.5322 91.722 80.8202 92.034C81.1442 92.382 81.6002 92.556 82.1882 92.556C82.7762 92.556 83.2382 92.388 83.5742 92.052C83.9582 91.68 84.1502 91.044 84.1502 90.144V89.154C83.5862 89.874 82.8182 90.234 81.8462 90.234C80.8262 90.234 79.9922 89.892 79.3442 89.208C78.5882 88.416 78.2102 87.414 78.2102 86.202C78.2102 84.99 78.5822 84.012 79.3262 83.268C80.0102 82.572 80.8682 82.224 81.9002 82.224C82.8242 82.224 83.5742 82.566 84.1502 83.25ZM82.1162 83.808C81.5762 83.808 81.1322 83.976 80.7842 84.312C80.2682 84.792 80.0102 85.434 80.0102 86.238C80.0102 87.066 80.2622 87.702 80.7662 88.146C81.1502 88.482 81.6002 88.65 82.1162 88.65C82.7042 88.65 83.1962 88.446 83.5922 88.038C84.0362 87.558 84.2582 86.964 84.2582 86.256C84.2582 85.44 84.0182 84.804 83.5382 84.348C83.1782 83.988 82.7042 83.808 82.1162 83.808ZM88.1512 90V82.422H89.9152V83.106C90.1432 82.842 90.3892 82.632 90.6532 82.476C90.9412 82.308 91.3012 82.224 91.7332 82.224C92.2492 82.224 92.7112 82.344 93.1192 82.584L92.3992 84.186C92.1112 84.006 91.8112 83.916 91.4992 83.916C91.0312 83.916 90.6652 84.054 90.4012 84.33C90.0772 84.678 89.9152 85.26 89.9152 86.076V90H88.1512ZM99.285 83.304V82.422H101.049V90H99.285V89.208C98.697 89.892 97.941 90.234 97.017 90.234C95.901 90.234 95.007 89.838 94.335 89.046C93.675 88.254 93.345 87.306 93.345 86.202C93.345 85.002 93.699 84.042 94.407 83.322C95.127 82.59 96.003 82.224 97.035 82.224C97.983 82.224 98.733 82.584 99.285 83.304ZM97.251 83.808C96.627 83.808 96.117 84.042 95.721 84.51C95.337 84.978 95.145 85.554 95.145 86.238C95.145 86.91 95.337 87.48 95.721 87.948C96.117 88.416 96.627 88.65 97.251 88.65C97.851 88.65 98.355 88.44 98.763 88.02C99.183 87.6 99.393 87.012 99.393 86.256C99.393 85.476 99.183 84.876 98.763 84.456C98.355 84.024 97.851 83.808 97.251 83.808ZM106.454 84.042H105.104V90H103.34V84.042H102.602V82.422H103.34V79.65H105.104V82.422H106.454V84.042ZM107.645 82.422H109.409V90H107.645V82.422ZM107.717 80.1C107.501 79.884 107.393 79.614 107.393 79.29C107.393 78.966 107.501 78.696 107.717 78.48C107.933 78.264 108.203 78.156 108.527 78.156C108.851 78.156 109.121 78.264 109.337 78.48C109.553 78.696 109.661 78.966 109.661 79.29C109.661 79.614 109.553 79.884 109.337 80.1C109.121 80.316 108.851 80.424 108.527 80.424C108.203 80.424 107.933 80.316 107.717 80.1ZM112.392 83.358C113.172 82.602 114.138 82.224 115.29 82.224C116.442 82.224 117.402 82.602 118.17 83.358C118.95 84.102 119.34 85.056 119.34 86.22C119.34 87.372 118.95 88.332 118.17 89.1C117.402 89.856 116.442 90.234 115.29 90.234C114.138 90.234 113.172 89.856 112.392 89.1C111.624 88.332 111.24 87.372 111.24 86.22C111.24 85.056 111.624 84.102 112.392 83.358ZM113.652 88.002C114.06 88.434 114.606 88.65 115.29 88.65C115.974 88.65 116.52 88.434 116.928 88.002C117.336 87.558 117.54 86.97 117.54 86.238C117.54 85.434 117.318 84.828 116.874 84.42C116.442 84.012 115.914 83.808 115.29 83.808C114.666 83.808 114.132 84.012 113.688 84.42C113.256 84.828 113.04 85.434 113.04 86.238C113.04 86.97 113.244 87.558 113.652 88.002ZM121.162 90V82.422H122.926V83.124C123.466 82.524 124.15 82.224 124.978 82.224C125.974 82.224 126.718 82.566 127.21 83.25C127.522 83.694 127.678 84.396 127.678 85.356V90H125.914V85.788C125.914 85.332 125.878 84.96 125.806 84.672C125.734 84.384 125.62 84.186 125.464 84.078C125.308 83.958 125.164 83.886 125.032 83.862C124.912 83.826 124.744 83.808 124.528 83.808C124.276 83.808 124.072 83.832 123.916 83.88C123.772 83.916 123.61 84.012 123.43 84.168C123.262 84.312 123.136 84.57 123.052 84.942C122.968 85.302 122.926 85.776 122.926 86.364V90H121.162Z" fill="black"/>
<g clip-path="url(#clip0_202_4)">
<path d="M84.0781 35.7266H95.1523V24.0547C95.1523 23.4725 94.6011 23 93.9219 23H69.2305C68.5513 23 68 23.4725 68 24.0547V45.2188C68 45.8009 68.5513 46.2734 69.2305 46.2734H82.8477V36.7812C82.8477 36.1991 83.3989 35.7266 84.0781 35.7266Z" fill="black"/>
<path d="M108.77 35.7266H95.1523V45.2188C95.1523 45.8009 94.6011 46.2734 93.9219 46.2734H82.8477V57.9453C82.8477 58.5275 83.3989 59 84.0781 59H108.77C109.449 59 110 58.5275 110 57.9453V36.7813C110 36.1991 109.449 35.7266 108.77 35.7266Z" fill="black"/>
</g>
<defs>
<filter id="filter0_b_202_4" x="-40" y="-40" width="258.256" height="273.5" filterUnits="userSpaceOnUse" color-interpolation-filters="sRGB">
<feFlood flood-opacity="0" result="BackgroundImageFix"/>
<feGaussianBlur in="BackgroundImageFix" stdDeviation="20"/>
<feComposite in2="SourceAlpha" operator="in" result="effect1_backgroundBlur_202_4"/>
<feBlend mode="normal" in="SourceGraphic" in2="effect1_backgroundBlur_202_4" result="shape"/>
</filter>
<clipPath id="clip0_202_4">
<rect width="42" height="36" fill="white" transform="translate(68 23)"/>
</clipPath>
</defs>
</svg>
