<svg width="179" height="194" viewBox="0 0 179 194" fill="none" xmlns="http://www.w3.org/2000/svg">
<g filter="url(#filter0_b_202_7)">
<rect width="178.256" height="193.5" rx="20" fill="white" fill-opacity="0.1"/>
</g>
<path d="M26.0094 116.27V115.63H30.4894C30.4894 117.038 30.1267 118.206 29.4014 119.134C28.4627 120.329 27.1241 120.926 25.3854 120.926C23.8067 120.926 22.4894 120.409 21.4334 119.374C20.3881 118.339 19.8654 117.027 19.8654 115.438C19.8654 113.87 20.3987 112.563 21.4654 111.518C22.5427 110.462 23.8654 109.934 25.4334 109.934C26.6601 109.934 27.7747 110.318 28.7774 111.086C29.2681 111.47 29.6947 111.918 30.0574 112.43L29.4974 112.878C29.2414 112.441 28.9001 112.046 28.4734 111.694C27.5774 110.947 26.5587 110.574 25.4174 110.574C24.0521 110.574 22.9054 111.049 21.9774 111.998C21.0601 112.947 20.6014 114.105 20.6014 115.47C20.6014 116.814 21.0547 117.955 21.9614 118.894C22.8681 119.822 24.0041 120.286 25.3694 120.286C26.2121 120.286 26.9587 120.11 27.6094 119.758C28.2707 119.395 28.7614 118.969 29.0814 118.478C29.5081 117.817 29.7427 117.081 29.7854 116.27H26.0094ZM37.8248 115.358V114.222H38.4648V120.75H37.8248V119.582C37.2381 120.478 36.3901 120.926 35.2808 120.926C34.3954 120.926 33.6434 120.611 33.0248 119.982C32.4061 119.353 32.0968 118.521 32.0968 117.486C32.0968 116.473 32.3901 115.651 32.9768 115.022C33.5634 114.393 34.3314 114.078 35.2808 114.078C36.3688 114.078 37.2168 114.505 37.8248 115.358ZM35.3128 114.686C34.6194 114.686 34.0221 114.937 33.5208 115.438C33.0194 115.929 32.7688 116.595 32.7688 117.438C32.7688 118.217 32.9981 118.894 33.4568 119.47C33.9154 120.035 34.5394 120.318 35.3288 120.318C36.1074 120.318 36.7208 120.041 37.1688 119.486C37.6274 118.921 37.8568 118.238 37.8568 117.438C37.8568 116.553 37.5954 115.875 37.0728 115.406C36.5501 114.926 35.9634 114.686 35.3128 114.686ZM42.5868 114.83H41.4508V120.75H40.8108V114.83H40.0908V114.222H40.8108V111.886H41.4508V114.222H42.5868V114.83ZM43.8721 120.75V109.086H44.5121V115.246C44.9495 114.467 45.6161 114.078 46.5121 114.078C47.3228 114.078 47.9255 114.382 48.3201 114.99C48.5335 115.331 48.6401 115.881 48.6401 116.638V120.75H48.0001V116.638C48.0001 116.03 47.9148 115.593 47.7441 115.326C47.4881 114.899 47.0615 114.686 46.4641 114.686C45.7388 114.686 45.2055 114.99 44.8641 115.598C44.6295 116.014 44.5121 116.601 44.5121 117.358V120.75H43.8721ZM56.2903 117.566H50.7063C50.7063 118.377 50.9569 119.038 51.4583 119.55C51.9703 120.062 52.5836 120.318 53.2983 120.318C53.8103 120.318 54.2636 120.185 54.6583 119.918C55.0529 119.641 55.3569 119.278 55.5703 118.83L56.1143 119.15C55.8689 119.619 55.5116 120.035 55.0423 120.398C54.5729 120.75 53.9756 120.926 53.2503 120.926C52.2583 120.926 51.4743 120.606 50.8983 119.966C50.3223 119.315 50.0343 118.499 50.0343 117.518C50.0343 116.441 50.3436 115.598 50.9623 114.99C51.5916 114.382 52.3383 114.078 53.2023 114.078C54.0876 114.078 54.8236 114.403 55.4103 115.054C55.9969 115.705 56.2903 116.542 56.2903 117.566ZM50.7543 116.958H55.6183C55.5329 116.297 55.2663 115.753 54.8183 115.326C54.3809 114.899 53.8423 114.686 53.2023 114.686C52.5516 114.686 52.0023 114.905 51.5543 115.342C51.1063 115.769 50.8396 116.307 50.7543 116.958ZM58.1846 120.75V114.222H58.8246V115.07C59.1126 114.409 59.5926 114.078 60.2646 114.078C60.5206 114.078 60.75 114.131 60.9526 114.238L60.6326 114.814C60.5153 114.729 60.3553 114.686 60.1526 114.686C59.8433 114.686 59.5873 114.777 59.3846 114.958C59.1926 115.129 59.0593 115.374 58.9846 115.694C58.9206 116.003 58.878 116.265 58.8566 116.478C58.8353 116.691 58.8246 116.947 58.8246 117.246V120.75H58.1846ZM62.3409 114.222H62.9809V120.75H62.3409V114.222ZM63.0609 112.478C62.9542 112.585 62.8209 112.638 62.6609 112.638C62.5009 112.638 62.3622 112.585 62.2449 112.478C62.1382 112.361 62.0849 112.217 62.0849 112.046C62.0849 111.875 62.1382 111.737 62.2449 111.63C62.3622 111.513 62.5009 111.454 62.6609 111.454C62.8209 111.454 62.9542 111.513 63.0609 111.63C63.1782 111.737 63.2369 111.875 63.2369 112.046C63.2369 112.217 63.1782 112.361 63.0609 112.478ZM65.2784 120.75V114.222H65.9184V115.246C66.3557 114.467 67.0224 114.078 67.9184 114.078C68.7291 114.078 69.3317 114.382 69.7264 114.99C69.9397 115.331 70.0464 115.881 70.0464 116.638V120.75H69.4064V116.638C69.4064 116.03 69.3211 115.593 69.1504 115.326C68.8944 114.899 68.4677 114.686 67.8704 114.686C67.1451 114.686 66.6117 114.99 66.2704 115.598C66.0357 116.014 65.9184 116.601 65.9184 117.358V120.75H65.2784ZM77.7325 114.222H78.3725V120.558C78.3725 121.785 78.0792 122.734 77.4925 123.406C76.9165 124.089 76.1165 124.43 75.0925 124.43C74.2072 124.43 73.4605 124.179 72.8525 123.678C72.2552 123.187 71.9352 122.505 71.8925 121.63H72.5645C72.6178 122.302 72.8738 122.835 73.3325 123.23C73.8018 123.625 74.3885 123.822 75.0925 123.822C75.5725 123.822 75.9885 123.726 76.3405 123.534C76.7032 123.342 76.9698 123.123 77.1405 122.878C77.3112 122.633 77.4445 122.334 77.5405 121.982C77.6365 121.63 77.6898 121.358 77.7005 121.166C77.7218 120.974 77.7325 120.771 77.7325 120.558V119.63C77.1138 120.494 76.2552 120.926 75.1565 120.926C74.2925 120.926 73.5405 120.622 72.9005 120.014C72.2605 119.406 71.9405 118.563 71.9405 117.486C71.9405 116.515 72.2392 115.705 72.8365 115.054C73.4338 114.403 74.2338 114.078 75.2365 114.078C76.3032 114.078 77.1352 114.505 77.7325 115.358V114.222ZM77.0445 115.486C76.5752 114.953 75.9512 114.686 75.1725 114.686C74.3938 114.686 73.7698 114.963 73.3005 115.518C72.8418 116.062 72.6125 116.729 72.6125 117.518C72.6125 118.318 72.8418 118.985 73.3005 119.518C73.7698 120.051 74.3832 120.318 75.1405 120.318C75.9298 120.318 76.5645 120.046 77.0445 119.502C77.5245 118.958 77.7645 118.275 77.7645 117.454C77.7645 116.675 77.5245 116.019 77.0445 115.486ZM89.6354 114.91V115.758C89.0167 115.043 88.2647 114.686 87.3794 114.686C86.5901 114.686 85.9394 114.958 85.4274 115.502C84.9154 116.035 84.6594 116.707 84.6594 117.518C84.6594 118.393 84.9314 119.081 85.4754 119.582C86.0194 120.073 86.6434 120.318 87.3474 120.318C88.2114 120.318 89.0007 119.929 89.7154 119.15V120.014C89.0327 120.622 88.2381 120.926 87.3314 120.926C86.3501 120.926 85.5447 120.606 84.9154 119.966C84.2967 119.315 83.9874 118.505 83.9874 117.534C83.9874 116.542 84.2967 115.721 84.9154 115.07C85.5341 114.409 86.3554 114.078 87.3794 114.078C88.2221 114.078 88.9741 114.355 89.6354 114.91ZM91.4815 109.086H92.1215V120.75H91.4815V109.086ZM94.419 114.222H95.059V120.75H94.419V114.222ZM95.139 112.478C95.0323 112.585 94.899 112.638 94.739 112.638C94.579 112.638 94.4403 112.585 94.323 112.478C94.2163 112.361 94.163 112.217 94.163 112.046C94.163 111.875 94.2163 111.737 94.323 111.63C94.4403 111.513 94.579 111.454 94.739 111.454C94.899 111.454 95.0323 111.513 95.139 111.63C95.2563 111.737 95.315 111.875 95.315 112.046C95.315 112.217 95.2563 112.361 95.139 112.478ZM103.197 117.566H97.6125C97.6125 118.377 97.8632 119.038 98.3645 119.55C98.8765 120.062 99.4898 120.318 100.205 120.318C100.717 120.318 101.17 120.185 101.565 119.918C101.959 119.641 102.263 119.278 102.477 118.83L103.021 119.15C102.775 119.619 102.418 120.035 101.949 120.398C101.479 120.75 100.882 120.926 100.157 120.926C99.1645 120.926 98.3805 120.606 97.8045 119.966C97.2285 119.315 96.9405 118.499 96.9405 117.518C96.9405 116.441 97.2498 115.598 97.8685 114.99C98.4978 114.382 99.2445 114.078 100.109 114.078C100.994 114.078 101.73 114.403 102.317 115.054C102.903 115.705 103.197 116.542 103.197 117.566ZM97.6605 116.958H102.525C102.439 116.297 102.173 115.753 101.725 115.326C101.287 114.899 100.749 114.686 100.109 114.686C99.4578 114.686 98.9085 114.905 98.4605 115.342C98.0125 115.769 97.7458 116.307 97.6605 116.958ZM105.091 120.75V114.222H105.731V115.246C106.168 114.467 106.835 114.078 107.731 114.078C108.542 114.078 109.144 114.382 109.539 114.99C109.752 115.331 109.859 115.881 109.859 116.638V120.75H109.219V116.638C109.219 116.03 109.134 115.593 108.963 115.326C108.707 114.899 108.28 114.686 107.683 114.686C106.958 114.686 106.424 114.99 106.083 115.598C105.848 116.014 105.731 116.601 105.731 117.358V120.75H105.091ZM113.993 114.83H112.857V120.75H112.217V114.83H111.497V114.222H112.217V111.886H112.857V114.222H113.993V114.83ZM115.79 110.078L115.678 114.382H115.198L115.086 110.078H115.79ZM121.231 115.134L120.687 115.422C120.474 114.931 120.095 114.686 119.551 114.686C119.21 114.686 118.938 114.793 118.735 115.006C118.543 115.219 118.447 115.459 118.447 115.726C118.447 115.929 118.506 116.105 118.623 116.254C118.741 116.393 118.863 116.499 118.991 116.574C119.119 116.638 119.322 116.723 119.599 116.83C119.642 116.841 119.743 116.883 119.903 116.958C120.074 117.022 120.186 117.065 120.239 117.086C120.293 117.107 120.383 117.15 120.511 117.214C120.65 117.267 120.751 117.321 120.815 117.374C120.879 117.417 120.954 117.475 121.039 117.55C121.135 117.625 121.215 117.705 121.279 117.79C121.503 118.067 121.615 118.419 121.615 118.846C121.615 119.539 121.402 120.062 120.975 120.414C120.559 120.755 120.063 120.926 119.487 120.926C118.933 120.926 118.453 120.771 118.047 120.462C117.642 120.153 117.37 119.731 117.231 119.198L117.855 119.006C117.962 119.422 118.165 119.747 118.463 119.982C118.773 120.206 119.114 120.318 119.487 120.318C119.903 120.318 120.25 120.185 120.527 119.918C120.805 119.641 120.943 119.294 120.943 118.878C120.943 118.537 120.837 118.275 120.623 118.094C120.41 117.902 120.031 117.694 119.487 117.47C118.741 117.161 118.266 116.873 118.063 116.606C117.871 116.35 117.775 116.067 117.775 115.758C117.775 115.267 117.941 114.867 118.271 114.558C118.602 114.238 119.018 114.078 119.519 114.078C120.362 114.078 120.933 114.43 121.231 115.134ZM126.982 114.222H127.622V120.75H126.982V114.222ZM127.702 112.478C127.595 112.585 127.462 112.638 127.302 112.638C127.142 112.638 127.003 112.585 126.886 112.478C126.779 112.361 126.726 112.217 126.726 112.046C126.726 111.875 126.779 111.737 126.886 111.63C127.003 111.513 127.142 111.454 127.302 111.454C127.462 111.454 127.595 111.513 127.702 111.63C127.819 111.737 127.878 111.875 127.878 112.046C127.878 112.217 127.819 112.361 127.702 112.478ZM135.231 115.358V109.086H135.871V120.75H135.231V119.582C134.644 120.478 133.802 120.926 132.703 120.926C131.818 120.926 131.06 120.622 130.431 120.014C129.812 119.395 129.503 118.542 129.503 117.454C129.503 116.345 129.818 115.507 130.447 114.942C131.076 114.366 131.828 114.078 132.703 114.078C133.791 114.078 134.634 114.505 135.231 115.358ZM132.703 114.686C131.988 114.686 131.386 114.926 130.895 115.406C130.415 115.886 130.175 116.563 130.175 117.438C130.175 118.345 130.426 119.054 130.927 119.566C131.428 120.067 132.031 120.318 132.735 120.318C133.428 120.318 134.02 120.067 134.511 119.566C135.012 119.054 135.263 118.345 135.263 117.438C135.263 116.649 135.034 115.993 134.575 115.47C134.116 114.947 133.492 114.686 132.703 114.686ZM144.009 117.566H138.425C138.425 118.377 138.676 119.038 139.177 119.55C139.689 120.062 140.302 120.318 141.017 120.318C141.529 120.318 141.982 120.185 142.377 119.918C142.772 119.641 143.076 119.278 143.289 118.83L143.833 119.15C143.588 119.619 143.23 120.035 142.761 120.398C142.292 120.75 141.694 120.926 140.969 120.926C139.977 120.926 139.193 120.606 138.617 119.966C138.041 119.315 137.753 118.499 137.753 117.518C137.753 116.441 138.062 115.598 138.681 114.99C139.31 114.382 140.057 114.078 140.921 114.078C141.806 114.078 142.542 114.403 143.129 115.054C143.716 115.705 144.009 116.542 144.009 117.566ZM138.473 116.958H143.337C143.252 116.297 142.985 115.753 142.537 115.326C142.1 114.899 141.561 114.686 140.921 114.686C140.27 114.686 139.721 114.905 139.273 115.342C138.825 115.769 138.558 116.307 138.473 116.958ZM151.215 115.358V114.222H151.855V120.75H151.215V119.582C150.629 120.478 149.781 120.926 148.671 120.926C147.786 120.926 147.034 120.611 146.415 119.982C145.797 119.353 145.487 118.521 145.487 117.486C145.487 116.473 145.781 115.651 146.367 115.022C146.954 114.393 147.722 114.078 148.671 114.078C149.759 114.078 150.607 114.505 151.215 115.358ZM148.703 114.686C148.01 114.686 147.413 114.937 146.911 115.438C146.41 115.929 146.159 116.595 146.159 117.438C146.159 118.217 146.389 118.894 146.847 119.47C147.306 120.035 147.93 120.318 148.719 120.318C149.498 120.318 150.111 120.041 150.559 119.486C151.018 118.921 151.247 118.238 151.247 117.438C151.247 116.553 150.986 115.875 150.463 115.406C149.941 114.926 149.354 114.686 148.703 114.686ZM157.481 115.134L156.937 115.422C156.724 114.931 156.345 114.686 155.801 114.686C155.46 114.686 155.188 114.793 154.985 115.006C154.793 115.219 154.697 115.459 154.697 115.726C154.697 115.929 154.756 116.105 154.873 116.254C154.991 116.393 155.113 116.499 155.241 116.574C155.369 116.638 155.572 116.723 155.849 116.83C155.892 116.841 155.993 116.883 156.153 116.958C156.324 117.022 156.436 117.065 156.489 117.086C156.543 117.107 156.633 117.15 156.761 117.214C156.9 117.267 157.001 117.321 157.065 117.374C157.129 117.417 157.204 117.475 157.289 117.55C157.385 117.625 157.465 117.705 157.529 117.79C157.753 118.067 157.865 118.419 157.865 118.846C157.865 119.539 157.652 120.062 157.225 120.414C156.809 120.755 156.313 120.926 155.737 120.926C155.183 120.926 154.703 120.771 154.297 120.462C153.892 120.153 153.62 119.731 153.481 119.198L154.105 119.006C154.212 119.422 154.415 119.747 154.713 119.982C155.023 120.206 155.364 120.318 155.737 120.318C156.153 120.318 156.5 120.185 156.777 119.918C157.055 119.641 157.193 119.294 157.193 118.878C157.193 118.537 157.087 118.275 156.873 118.094C156.66 117.902 156.281 117.694 155.737 117.47C154.991 117.161 154.516 116.873 154.313 116.606C154.121 116.35 154.025 116.067 154.025 115.758C154.025 115.267 154.191 114.867 154.521 114.558C154.852 114.238 155.268 114.078 155.769 114.078C156.612 114.078 157.183 114.43 157.481 115.134ZM24.395 132.222H25.099L27.355 137.614L29.611 131.822L31.867 137.614L34.187 132.222H34.891L31.867 139.15L29.611 133.358L27.355 139.15L24.395 132.222ZM42.009 135.566H36.425C36.425 136.377 36.6757 137.038 37.177 137.55C37.689 138.062 38.3023 138.318 39.017 138.318C39.529 138.318 39.9823 138.185 40.377 137.918C40.7717 137.641 41.0757 137.278 41.289 136.83L41.833 137.15C41.5877 137.619 41.2303 138.035 40.761 138.398C40.2917 138.75 39.6943 138.926 38.969 138.926C37.977 138.926 37.193 138.606 36.617 137.966C36.041 137.315 35.753 136.499 35.753 135.518C35.753 134.441 36.0623 133.598 36.681 132.99C37.3103 132.382 38.057 132.078 38.921 132.078C39.8063 132.078 40.5423 132.403 41.129 133.054C41.7157 133.705 42.009 134.542 42.009 135.566ZM36.473 134.958H41.337C41.2517 134.297 40.985 133.753 40.537 133.326C40.0997 132.899 39.561 132.686 38.921 132.686C38.2703 132.686 37.721 132.905 37.273 133.342C36.825 133.769 36.5583 134.307 36.473 134.958ZM52.9498 133.358V132.222H53.5898V138.75H52.9498V137.582C52.3631 138.478 51.5151 138.926 50.4058 138.926C49.5204 138.926 48.7684 138.611 48.1498 137.982C47.5311 137.353 47.2218 136.521 47.2218 135.486C47.2218 134.473 47.5151 133.651 48.1018 133.022C48.6884 132.393 49.4564 132.078 50.4058 132.078C51.4938 132.078 52.3418 132.505 52.9498 133.358ZM50.4378 132.686C49.7444 132.686 49.1471 132.937 48.6458 133.438C48.1444 133.929 47.8938 134.595 47.8938 135.438C47.8938 136.217 48.1231 136.894 48.5818 137.47C49.0404 138.035 49.6644 138.318 50.4538 138.318C51.2324 138.318 51.8458 138.041 52.2938 137.486C52.7524 136.921 52.9818 136.238 52.9818 135.438C52.9818 134.553 52.7204 133.875 52.1978 133.406C51.6751 132.926 51.0884 132.686 50.4378 132.686ZM55.8878 138.75V132.222H56.5278V133.07C56.8158 132.409 57.2958 132.078 57.9678 132.078C58.2238 132.078 58.4531 132.131 58.6558 132.238L58.3358 132.814C58.2184 132.729 58.0584 132.686 57.8558 132.686C57.5464 132.686 57.2904 132.777 57.0878 132.958C56.8958 133.129 56.7624 133.374 56.6878 133.694C56.6238 134.003 56.5811 134.265 56.5598 134.478C56.5384 134.691 56.5278 134.947 56.5278 135.246V138.75H55.8878ZM65.884 135.566H60.3C60.3 136.377 60.5507 137.038 61.052 137.55C61.564 138.062 62.1773 138.318 62.892 138.318C63.404 138.318 63.8573 138.185 64.252 137.918C64.6467 137.641 64.9507 137.278 65.164 136.83L65.708 137.15C65.4627 137.619 65.1053 138.035 64.636 138.398C64.1667 138.75 63.5693 138.926 62.844 138.926C61.852 138.926 61.068 138.606 60.492 137.966C59.916 137.315 59.628 136.499 59.628 135.518C59.628 134.441 59.9373 133.598 60.556 132.99C61.1853 132.382 61.932 132.078 62.796 132.078C63.6813 132.078 64.4173 132.403 65.004 133.054C65.5907 133.705 65.884 134.542 65.884 135.566ZM60.348 134.958H65.212C65.1267 134.297 64.86 133.753 64.412 133.326C63.9747 132.899 63.436 132.686 62.796 132.686C62.1453 132.686 61.596 132.905 61.148 133.342C60.7 133.769 60.4333 134.307 60.348 134.958ZM71.5128 138.75V127.086H72.1528V133.246C72.5901 132.467 73.2568 132.078 74.1528 132.078C74.9634 132.078 75.5661 132.382 75.9608 132.99C76.1741 133.331 76.2808 133.881 76.2808 134.638V138.75H75.6408V134.638C75.6408 134.03 75.5554 133.593 75.3848 133.326C75.1288 132.899 74.7021 132.686 74.1048 132.686C73.3794 132.686 72.8461 132.99 72.5048 133.598C72.2701 134.014 72.1528 134.601 72.1528 135.358V138.75H71.5128ZM83.5591 133.358V132.222H84.1991V138.75H83.5591V137.582C82.9725 138.478 82.1245 138.926 81.0151 138.926C80.1298 138.926 79.3778 138.611 78.7591 137.982C78.1405 137.353 77.8311 136.521 77.8311 135.486C77.8311 134.473 78.1245 133.651 78.7111 133.022C79.2978 132.393 80.0658 132.078 81.0151 132.078C82.1031 132.078 82.9511 132.505 83.5591 133.358ZM81.0471 132.686C80.3538 132.686 79.7565 132.937 79.2551 133.438C78.7538 133.929 78.5031 134.595 78.5031 135.438C78.5031 136.217 78.7325 136.894 79.1911 137.47C79.6498 138.035 80.2738 138.318 81.0631 138.318C81.8418 138.318 82.4551 138.041 82.9031 137.486C83.3618 136.921 83.5911 136.238 83.5911 135.438C83.5911 134.553 83.3298 133.875 82.8071 133.406C82.2845 132.926 81.6978 132.686 81.0471 132.686ZM87.1371 137.582V142.43H86.4971V132.222H87.1371V133.358C87.7665 132.505 88.6198 132.078 89.6971 132.078C90.6571 132.078 91.4251 132.398 92.0011 133.038C92.5771 133.667 92.8651 134.467 92.8651 135.438C92.8651 136.43 92.5718 137.262 91.9851 137.934C91.4091 138.595 90.6358 138.926 89.6651 138.926C89.1745 138.926 88.7318 138.83 88.3371 138.638C87.9425 138.435 87.6705 138.254 87.5211 138.094C87.3718 137.923 87.2438 137.753 87.1371 137.582ZM87.7771 137.502C88.2251 138.046 88.8491 138.318 89.6491 138.318C90.4491 138.318 91.0731 138.046 91.5211 137.502C91.9691 136.958 92.1931 136.27 92.1931 135.438C92.1931 134.574 91.9478 133.902 91.4571 133.422C90.9665 132.931 90.3691 132.686 89.6651 132.686C88.9718 132.686 88.3691 132.926 87.8571 133.406C87.3558 133.886 87.1051 134.553 87.1051 135.406C87.1051 136.249 87.3291 136.947 87.7771 137.502ZM95.3871 137.582V142.43H94.7471V132.222H95.3871V133.358C96.0165 132.505 96.8698 132.078 97.9471 132.078C98.9071 132.078 99.6751 132.398 100.251 133.038C100.827 133.667 101.115 134.467 101.115 135.438C101.115 136.43 100.822 137.262 100.235 137.934C99.6591 138.595 98.8858 138.926 97.9151 138.926C97.4245 138.926 96.9818 138.83 96.5871 138.638C96.1925 138.435 95.9205 138.254 95.7711 138.094C95.6218 137.923 95.4938 137.753 95.3871 137.582ZM96.0271 137.502C96.4751 138.046 97.0991 138.318 97.8991 138.318C98.6991 138.318 99.3231 138.046 99.7711 137.502C100.219 136.958 100.443 136.27 100.443 135.438C100.443 134.574 100.198 133.902 99.7071 133.422C99.2165 132.931 98.6191 132.686 97.9151 132.686C97.2218 132.686 96.6191 132.926 96.1071 133.406C95.6058 133.886 95.3551 134.553 95.3551 135.406C95.3551 136.249 95.5791 136.947 96.0271 137.502ZM103.541 142.43L105.077 138.862L101.973 132.222H102.709L105.445 138.03L107.829 132.222H108.565L104.277 142.43H103.541ZM115.399 132.83H114.263V138.75H113.623V132.83H112.903V132.222H113.623V129.886H114.263V132.222H115.399V132.83ZM117.245 133.07C117.906 132.409 118.722 132.078 119.693 132.078C120.663 132.078 121.474 132.409 122.125 133.07C122.786 133.721 123.117 134.531 123.117 135.502C123.117 136.473 122.786 137.289 122.125 137.95C121.474 138.601 120.663 138.926 119.693 138.926C118.722 138.926 117.906 138.601 117.245 137.95C116.594 137.289 116.269 136.473 116.269 135.502C116.269 134.531 116.594 133.721 117.245 133.07ZM117.725 137.502C118.258 138.046 118.914 138.318 119.693 138.318C120.471 138.318 121.122 138.046 121.645 137.502C122.178 136.958 122.445 136.291 122.445 135.502C122.445 134.713 122.178 134.046 121.645 133.502C121.122 132.958 120.471 132.686 119.693 132.686C118.914 132.686 118.258 132.958 117.725 133.502C117.202 134.046 116.941 134.713 116.941 135.502C116.941 136.291 117.202 136.958 117.725 137.502ZM128.732 138.75V127.086H129.372V133.246C129.809 132.467 130.476 132.078 131.372 132.078C132.182 132.078 132.785 132.382 133.18 132.99C133.393 133.331 133.5 133.881 133.5 134.638V138.75H132.86V134.638C132.86 134.03 132.774 133.593 132.604 133.326C132.348 132.899 131.921 132.686 131.324 132.686C130.598 132.686 130.065 132.99 129.724 133.598C129.489 134.014 129.372 134.601 129.372 135.358V138.75H128.732ZM141.15 135.566H135.566C135.566 136.377 135.816 137.038 136.318 137.55C136.83 138.062 137.443 138.318 138.158 138.318C138.67 138.318 139.123 138.185 139.518 137.918C139.912 137.641 140.216 137.278 140.43 136.83L140.974 137.15C140.728 137.619 140.371 138.035 139.902 138.398C139.432 138.75 138.835 138.926 138.11 138.926C137.118 138.926 136.334 138.606 135.758 137.966C135.182 137.315 134.894 136.499 134.894 135.518C134.894 134.441 135.203 133.598 135.822 132.99C136.451 132.382 137.198 132.078 138.062 132.078C138.947 132.078 139.683 132.403 140.27 133.054C140.856 133.705 141.15 134.542 141.15 135.566ZM135.614 134.958H140.478C140.392 134.297 140.126 133.753 139.678 133.326C139.24 132.899 138.702 132.686 138.062 132.686C137.411 132.686 136.862 132.905 136.414 133.342C135.966 133.769 135.699 134.307 135.614 134.958ZM143.044 127.086H143.684V138.75H143.044V127.086ZM146.622 137.582V142.43H145.982V132.222H146.622V133.358C147.251 132.505 148.104 132.078 149.182 132.078C150.142 132.078 150.91 132.398 151.486 133.038C152.062 133.667 152.35 134.467 152.35 135.438C152.35 136.43 152.056 137.262 151.47 137.934C150.894 138.595 150.12 138.926 149.15 138.926C148.659 138.926 148.216 138.83 147.822 138.638C147.427 138.435 147.155 138.254 147.006 138.094C146.856 137.923 146.728 137.753 146.622 137.582ZM147.262 137.502C147.71 138.046 148.334 138.318 149.134 138.318C149.934 138.318 150.558 138.046 151.006 137.502C151.454 136.958 151.678 136.27 151.678 135.438C151.678 134.574 151.432 133.902 150.942 133.422C150.451 132.931 149.854 132.686 149.15 132.686C148.456 132.686 147.854 132.926 147.342 133.406C146.84 133.886 146.59 134.553 146.59 135.406C146.59 136.249 146.814 136.947 147.262 137.502ZM22.6138 150.222H23.3178L25.5738 155.614L27.8298 149.822L30.0858 155.614L32.4058 150.222H33.1098L30.0858 157.15L27.8298 151.358L25.5738 157.15L22.6138 150.222ZM34.3878 150.222H35.0278V156.75H34.3878V150.222ZM35.1078 148.478C35.0011 148.585 34.8678 148.638 34.7078 148.638C34.5478 148.638 34.4091 148.585 34.2918 148.478C34.1851 148.361 34.1318 148.217 34.1318 148.046C34.1318 147.875 34.1851 147.737 34.2918 147.63C34.4091 147.513 34.5478 147.454 34.7078 147.454C34.8678 147.454 35.0011 147.513 35.1078 147.63C35.2251 147.737 35.2838 147.875 35.2838 148.046C35.2838 148.217 35.2251 148.361 35.1078 148.478ZM39.1493 150.83H38.0133V156.75H37.3733V150.83H36.6533V150.222H37.3733V147.886H38.0133V150.222H39.1493V150.83ZM40.4346 156.75V145.086H41.0746V151.246C41.512 150.467 42.1786 150.078 43.0746 150.078C43.8853 150.078 44.488 150.382 44.8826 150.99C45.096 151.331 45.2026 151.881 45.2026 152.638V156.75H44.5626V152.638C44.5626 152.03 44.4773 151.593 44.3066 151.326C44.0506 150.899 43.624 150.686 43.0266 150.686C42.3013 150.686 41.768 150.99 41.4266 151.598C41.192 152.014 41.0746 152.601 41.0746 153.358V156.75H40.4346ZM56.5591 151.358V150.222H57.1991V156.75H56.5591V155.582C55.9725 156.478 55.1245 156.926 54.0151 156.926C53.1298 156.926 52.3778 156.611 51.7591 155.982C51.1405 155.353 50.8311 154.521 50.8311 153.486C50.8311 152.473 51.1245 151.651 51.7111 151.022C52.2978 150.393 53.0658 150.078 54.0151 150.078C55.1031 150.078 55.9511 150.505 56.5591 151.358ZM54.0471 150.686C53.3538 150.686 52.7565 150.937 52.2551 151.438C51.7538 151.929 51.5031 152.595 51.5031 153.438C51.5031 154.217 51.7325 154.894 52.1911 155.47C52.6498 156.035 53.2738 156.318 54.0631 156.318C54.8418 156.318 55.4551 156.041 55.9031 155.486C56.3618 154.921 56.5911 154.238 56.5911 153.438C56.5911 152.553 56.3298 151.875 55.8071 151.406C55.2845 150.926 54.6978 150.686 54.0471 150.686ZM65.0555 150.83H63.9195V156.75H63.2795V150.83H62.5595V150.222H63.2795V147.886H63.9195V150.222H65.0555V150.83ZM72.1809 153.566H66.5969C66.5969 154.377 66.8476 155.038 67.3489 155.55C67.8609 156.062 68.4742 156.318 69.1889 156.318C69.7009 156.318 70.1542 156.185 70.5489 155.918C70.9436 155.641 71.2476 155.278 71.4609 154.83L72.0049 155.15C71.7596 155.619 71.4022 156.035 70.9329 156.398C70.4636 156.75 69.8662 156.926 69.1409 156.926C68.1489 156.926 67.3649 156.606 66.7889 155.966C66.2129 155.315 65.9249 154.499 65.9249 153.518C65.9249 152.441 66.2342 151.598 66.8529 150.99C67.4822 150.382 68.2289 150.078 69.0929 150.078C69.9782 150.078 70.7142 150.403 71.3009 151.054C71.8876 151.705 72.1809 152.542 72.1809 153.566ZM66.6449 152.958H71.5089C71.4236 152.297 71.1569 151.753 70.7089 151.326C70.2716 150.899 69.7329 150.686 69.0929 150.686C68.4422 150.686 67.8929 150.905 67.4449 151.342C66.9969 151.769 66.7302 152.307 66.6449 152.958ZM79.3073 150.91V151.758C78.6886 151.043 77.9366 150.686 77.0513 150.686C76.2619 150.686 75.6113 150.958 75.0993 151.502C74.5873 152.035 74.3313 152.707 74.3313 153.518C74.3313 154.393 74.6033 155.081 75.1473 155.582C75.6913 156.073 76.3153 156.318 77.0193 156.318C77.8833 156.318 78.6726 155.929 79.3873 155.15V156.014C78.7046 156.622 77.9099 156.926 77.0033 156.926C76.0219 156.926 75.2166 156.606 74.5873 155.966C73.9686 155.315 73.6593 154.505 73.6593 153.534C73.6593 152.542 73.9686 151.721 74.5873 151.07C75.2059 150.409 76.0273 150.078 77.0513 150.078C77.8939 150.078 78.6459 150.355 79.3073 150.91ZM81.1534 156.75V145.086H81.7934V151.246C82.2307 150.467 82.8974 150.078 83.7934 150.078C84.6041 150.078 85.2067 150.382 85.6014 150.99C85.8147 151.331 85.9214 151.881 85.9214 152.638V156.75H85.2814V152.638C85.2814 152.03 85.1961 151.593 85.0254 151.326C84.7694 150.899 84.3427 150.686 83.7454 150.686C83.0201 150.686 82.4867 150.99 82.1454 151.598C81.9107 152.014 81.7934 152.601 81.7934 153.358V156.75H81.1534ZM87.919 156.75V150.222H88.559V151.246C88.9963 150.467 89.663 150.078 90.559 150.078C91.3697 150.078 91.9723 150.382 92.367 150.99C92.5803 151.331 92.687 151.881 92.687 152.638V156.75H92.047V152.638C92.047 152.03 91.9617 151.593 91.791 151.326C91.535 150.899 91.1083 150.686 90.511 150.686C89.7857 150.686 89.2523 150.99 88.911 151.598C88.6763 152.014 88.559 152.601 88.559 153.358V156.75H87.919ZM94.9971 150.222H95.6371V156.75H94.9971V150.222ZM95.7171 148.478C95.6105 148.585 95.4771 148.638 95.3171 148.638C95.1571 148.638 95.0185 148.585 94.9011 148.478C94.7945 148.361 94.7411 148.217 94.7411 148.046C94.7411 147.875 94.7945 147.737 94.9011 147.63C95.0185 147.513 95.1571 147.454 95.3171 147.454C95.4771 147.454 95.6105 147.513 95.7171 147.63C95.8345 147.737 95.8931 147.875 95.8931 148.046C95.8931 148.217 95.8345 148.361 95.7171 148.478ZM103.167 150.91V151.758C102.548 151.043 101.796 150.686 100.911 150.686C100.121 150.686 99.4706 150.958 98.9586 151.502C98.4466 152.035 98.1906 152.707 98.1906 153.518C98.1906 154.393 98.4626 155.081 99.0066 155.582C99.5506 156.073 100.175 156.318 100.879 156.318C101.743 156.318 102.532 155.929 103.247 155.15V156.014C102.564 156.622 101.769 156.926 100.863 156.926C99.8813 156.926 99.076 156.606 98.4466 155.966C97.828 155.315 97.5186 154.505 97.5186 153.534C97.5186 152.542 97.828 151.721 98.4466 151.07C99.0653 150.409 99.8866 150.078 100.911 150.078C101.753 150.078 102.505 150.355 103.167 150.91ZM110.325 151.358V150.222H110.965V156.75H110.325V155.582C109.738 156.478 108.89 156.926 107.781 156.926C106.895 156.926 106.143 156.611 105.525 155.982C104.906 155.353 104.597 154.521 104.597 153.486C104.597 152.473 104.89 151.651 105.477 151.022C106.063 150.393 106.831 150.078 107.781 150.078C108.869 150.078 109.717 150.505 110.325 151.358ZM107.813 150.686C107.119 150.686 106.522 150.937 106.021 151.438C105.519 151.929 105.269 152.595 105.269 153.438C105.269 154.217 105.498 154.894 105.957 155.47C106.415 156.035 107.039 156.318 107.829 156.318C108.607 156.318 109.221 156.041 109.669 155.486C110.127 154.921 110.357 154.238 110.357 153.438C110.357 152.553 110.095 151.875 109.573 151.406C109.05 150.926 108.463 150.686 107.813 150.686ZM113.263 145.086H113.903V156.75H113.263V145.086ZM118.911 150.222H119.615L121.919 155.646L124.191 150.222H124.895L121.919 157.15L118.911 150.222ZM126.169 150.222H126.809V156.75H126.169V150.222ZM126.889 148.478C126.782 148.585 126.649 148.638 126.489 148.638C126.329 148.638 126.19 148.585 126.073 148.478C125.966 148.361 125.913 148.217 125.913 148.046C125.913 147.875 125.966 147.737 126.073 147.63C126.19 147.513 126.329 147.454 126.489 147.454C126.649 147.454 126.782 147.513 126.889 147.63C127.006 147.737 127.065 147.875 127.065 148.046C127.065 148.217 127.006 148.361 126.889 148.478ZM132.435 151.134L131.891 151.422C131.677 150.931 131.299 150.686 130.755 150.686C130.413 150.686 130.141 150.793 129.939 151.006C129.747 151.219 129.651 151.459 129.651 151.726C129.651 151.929 129.709 152.105 129.827 152.254C129.944 152.393 130.067 152.499 130.195 152.574C130.323 152.638 130.525 152.723 130.803 152.83C130.845 152.841 130.947 152.883 131.107 152.958C131.277 153.022 131.389 153.065 131.443 153.086C131.496 153.107 131.587 153.15 131.715 153.214C131.853 153.267 131.955 153.321 132.019 153.374C132.083 153.417 132.157 153.475 132.243 153.55C132.339 153.625 132.419 153.705 132.483 153.79C132.707 154.067 132.819 154.419 132.819 154.846C132.819 155.539 132.605 156.062 132.179 156.414C131.763 156.755 131.267 156.926 130.691 156.926C130.136 156.926 129.656 156.771 129.251 156.462C128.845 156.153 128.573 155.731 128.435 155.198L129.059 155.006C129.165 155.422 129.368 155.747 129.667 155.982C129.976 156.206 130.317 156.318 130.691 156.318C131.107 156.318 131.453 156.185 131.731 155.918C132.008 155.641 132.147 155.294 132.147 154.878C132.147 154.537 132.04 154.275 131.827 154.094C131.613 153.902 131.235 153.694 130.691 153.47C129.944 153.161 129.469 152.873 129.267 152.606C129.075 152.35 128.979 152.067 128.979 151.758C128.979 151.267 129.144 150.867 129.475 150.558C129.805 150.238 130.221 150.078 130.723 150.078C131.565 150.078 132.136 150.43 132.435 151.134ZM134.45 150.222H135.09V156.75H134.45V150.222ZM135.17 148.478C135.064 148.585 134.93 148.638 134.77 148.638C134.61 148.638 134.472 148.585 134.354 148.478C134.248 148.361 134.194 148.217 134.194 148.046C134.194 147.875 134.248 147.737 134.354 147.63C134.472 147.513 134.61 147.454 134.77 147.454C134.93 147.454 135.064 147.513 135.17 147.63C135.288 147.737 135.346 147.875 135.346 148.046C135.346 148.217 135.288 148.361 135.17 148.478ZM137.948 151.07C138.609 150.409 139.425 150.078 140.396 150.078C141.366 150.078 142.177 150.409 142.828 151.07C143.489 151.721 143.82 152.531 143.82 153.502C143.82 154.473 143.489 155.289 142.828 155.95C142.177 156.601 141.366 156.926 140.396 156.926C139.425 156.926 138.609 156.601 137.948 155.95C137.297 155.289 136.972 154.473 136.972 153.502C136.972 152.531 137.297 151.721 137.948 151.07ZM138.428 155.502C138.961 156.046 139.617 156.318 140.396 156.318C141.174 156.318 141.825 156.046 142.348 155.502C142.881 154.958 143.148 154.291 143.148 153.502C143.148 152.713 142.881 152.046 142.348 151.502C141.825 150.958 141.174 150.686 140.396 150.686C139.617 150.686 138.961 150.958 138.428 151.502C137.905 152.046 137.644 152.713 137.644 153.502C137.644 154.291 137.905 154.958 138.428 155.502ZM145.7 156.75V150.222H146.34V151.246C146.778 150.467 147.444 150.078 148.34 150.078C149.151 150.078 149.754 150.382 150.148 150.99C150.362 151.331 150.468 151.881 150.468 152.638V156.75H149.828V152.638C149.828 152.03 149.743 151.593 149.572 151.326C149.316 150.899 148.89 150.686 148.292 150.686C147.567 150.686 147.034 150.99 146.692 151.598C146.458 152.014 146.34 152.601 146.34 153.358V156.75H145.7ZM152.81 156.702C152.704 156.585 152.65 156.441 152.65 156.27C152.65 156.099 152.704 155.961 152.81 155.854C152.928 155.737 153.072 155.678 153.242 155.678C153.413 155.678 153.552 155.737 153.658 155.854C153.776 155.961 153.834 156.099 153.834 156.27C153.834 156.441 153.776 156.585 153.658 156.702C153.552 156.809 153.413 156.862 153.242 156.862C153.072 156.862 152.928 156.809 152.81 156.702Z" fill="black"/>
<path d="M68.756 93L67.496 90.102H62.366L61.052 93H59.072L65.048 80.292L70.736 93H68.756ZM63.122 88.374H66.758L64.976 84.306L63.122 88.374ZM71.9105 93V85.422H73.6745V86.124C74.2145 85.524 74.8985 85.224 75.7265 85.224C76.7225 85.224 77.4665 85.566 77.9585 86.25C78.2705 86.694 78.4265 87.396 78.4265 88.356V93H76.6625V88.788C76.6625 88.332 76.6265 87.96 76.5545 87.672C76.4825 87.384 76.3685 87.186 76.2125 87.078C76.0565 86.958 75.9125 86.886 75.7805 86.862C75.6605 86.826 75.4925 86.808 75.2765 86.808C75.0245 86.808 74.8205 86.832 74.6645 86.88C74.5205 86.916 74.3585 87.012 74.1785 87.168C74.0105 87.312 73.8845 87.57 73.8005 87.942C73.7165 88.302 73.6745 88.776 73.6745 89.364V93H71.9105ZM86.2088 86.304V85.422H87.9728V93H86.2088V92.208C85.6208 92.892 84.8648 93.234 83.9408 93.234C82.8248 93.234 81.9308 92.838 81.2588 92.046C80.5988 91.254 80.2688 90.306 80.2688 89.202C80.2688 88.002 80.6228 87.042 81.3308 86.322C82.0508 85.59 82.9268 85.224 83.9588 85.224C84.9068 85.224 85.6568 85.584 86.2088 86.304ZM84.1748 86.808C83.5508 86.808 83.0408 87.042 82.6448 87.51C82.2608 87.978 82.0688 88.554 82.0688 89.238C82.0688 89.91 82.2608 90.48 82.6448 90.948C83.0408 91.416 83.5508 91.65 84.1748 91.65C84.7748 91.65 85.2788 91.44 85.6868 91.02C86.1068 90.6 86.3168 90.012 86.3168 89.256C86.3168 88.476 86.1068 87.876 85.6868 87.456C85.2788 87.024 84.7748 86.808 84.1748 86.808ZM90.2098 79.878H91.9738V93H90.2098V79.878ZM93.642 97.122L96.432 91.812L93.192 85.422H95.316L97.476 89.85L99.672 85.422H101.652L95.622 97.122H93.642ZM107.334 86.556L106.02 87.42C105.756 86.988 105.396 86.772 104.94 86.772C104.712 86.772 104.532 86.838 104.4 86.97C104.292 87.078 104.238 87.21 104.238 87.366C104.238 87.546 104.322 87.69 104.49 87.798C104.526 87.822 104.562 87.846 104.598 87.87C104.634 87.882 104.7 87.912 104.796 87.96C104.892 88.008 104.988 88.056 105.084 88.104L105.984 88.554C106.488 88.806 106.842 89.04 107.046 89.256C107.418 89.628 107.604 90.096 107.604 90.66C107.604 91.332 107.382 91.908 106.938 92.388C106.422 92.952 105.714 93.234 104.814 93.234C104.142 93.234 103.596 93.072 103.176 92.748C102.72 92.412 102.396 91.95 102.204 91.362L103.644 90.678C103.764 91.026 103.902 91.266 104.058 91.398C104.25 91.59 104.508 91.686 104.832 91.686C105.144 91.686 105.384 91.602 105.552 91.434C105.72 91.266 105.804 91.068 105.804 90.84C105.804 90.624 105.726 90.432 105.57 90.264C105.402 90.096 105.15 89.94 104.814 89.796L104.166 89.49C103.662 89.25 103.314 89.034 103.122 88.842C102.762 88.494 102.582 88.068 102.582 87.564C102.582 86.928 102.792 86.388 103.212 85.944C103.668 85.464 104.286 85.224 105.066 85.224C105.606 85.224 106.074 85.356 106.47 85.62C106.83 85.848 107.118 86.16 107.334 86.556ZM109.194 85.422H110.958V93H109.194V85.422ZM109.266 83.1C109.05 82.884 108.942 82.614 108.942 82.29C108.942 81.966 109.05 81.696 109.266 81.48C109.482 81.264 109.752 81.156 110.076 81.156C110.4 81.156 110.67 81.264 110.886 81.48C111.102 81.696 111.21 81.966 111.21 82.29C111.21 82.614 111.102 82.884 110.886 83.1C110.67 83.316 110.4 83.424 110.076 83.424C109.752 83.424 109.482 83.316 109.266 83.1ZM117.81 86.556L116.496 87.42C116.232 86.988 115.872 86.772 115.416 86.772C115.188 86.772 115.008 86.838 114.876 86.97C114.768 87.078 114.714 87.21 114.714 87.366C114.714 87.546 114.798 87.69 114.966 87.798C115.002 87.822 115.038 87.846 115.074 87.87C115.11 87.882 115.176 87.912 115.272 87.96C115.368 88.008 115.464 88.056 115.56 88.104L116.46 88.554C116.964 88.806 117.318 89.04 117.522 89.256C117.894 89.628 118.08 90.096 118.08 90.66C118.08 91.332 117.858 91.908 117.414 92.388C116.898 92.952 116.19 93.234 115.29 93.234C114.618 93.234 114.072 93.072 113.652 92.748C113.196 92.412 112.872 91.95 112.68 91.362L114.12 90.678C114.24 91.026 114.378 91.266 114.534 91.398C114.726 91.59 114.984 91.686 115.308 91.686C115.62 91.686 115.86 91.602 116.028 91.434C116.196 91.266 116.28 91.068 116.28 90.84C116.28 90.624 116.202 90.432 116.046 90.264C115.878 90.096 115.626 89.94 115.29 89.796L114.642 89.49C114.138 89.25 113.79 89.034 113.598 88.842C113.238 88.494 113.058 88.068 113.058 87.564C113.058 86.928 113.268 86.388 113.688 85.944C114.144 85.464 114.762 85.224 115.542 85.224C116.082 85.224 116.55 85.356 116.946 85.62C117.306 85.848 117.594 86.16 117.81 86.556Z" fill="black"/>
<path d="M95.7696 60.315V61.8635C95.7696 63.0958 94.8303 64.1209 93.608 64.2954L93.2119 65.7022C92.9969 66.4656 92.284 67 91.4578 67H87.5309C86.7047 67 85.9918 66.4656 85.7768 65.7022L85.392 64.2954C84.1584 64.11 83.2191 63.0958 83.2191 61.8526V60.3041C83.2191 59.4753 83.9095 58.81 84.7696 58.81H94.2192C95.0792 58.8209 95.7696 59.4862 95.7696 60.315ZM103.046 39.4421C103.046 42.9646 101.598 46.1598 99.2438 48.5045C97.4558 50.293 96.3015 52.5722 95.9167 55.0041C95.7469 56.051 94.8076 56.8253 93.6986 56.8253H85.2901C84.1924 56.8253 83.2418 56.0619 83.0833 55.015C82.6873 52.5831 81.5216 50.2712 79.7336 48.4936C77.4249 46.1816 75.9877 43.0409 75.9537 39.5839C75.8745 32.321 81.8724 26.443 89.4095 26.3884C96.9352 26.3339 103.046 32.201 103.046 39.4421ZM91.0278 31.5358C91.0278 30.7288 90.3488 30.0635 89.5 30.0635C84.1132 30.0635 79.7222 34.2839 79.7222 39.4858C79.7222 40.2928 80.4012 40.958 81.25 40.958C82.0875 40.958 82.7778 40.3037 82.7778 39.4858C82.7778 35.9088 85.7994 33.008 89.5 33.008C90.3488 33.008 91.0278 32.3537 91.0278 31.5358Z" fill="black"/>
<defs>
<filter id="filter0_b_202_7" x="-40" y="-40" width="258.256" height="273.5" filterUnits="userSpaceOnUse" color-interpolation-filters="sRGB">
<feFlood flood-opacity="0" result="BackgroundImageFix"/>
<feGaussianBlur in="BackgroundImageFix" stdDeviation="20"/>
<feComposite in2="SourceAlpha" operator="in" result="effect1_backgroundBlur_202_7"/>
<feBlend mode="normal" in="SourceGraphic" in2="effect1_backgroundBlur_202_7" result="shape"/>
</filter>
</defs>
</svg>
